<?xml version="1.0" standalone="no"?>
<!DOCTYPE svg PUBLIC "-//W3C//DTD SVG 1.1//EN" "http://www.w3.org/Graphics/SVG/1.1/DTD/svg11.dtd" >
<svg>
<metadata>
Created by FontForge 20110222 at Tue Sep 04 09:42:52 2012

Copyright (c) 2007 M. Hacen, All Rights Reserved / www.hacen.net
</metadata>
<defs>
<font id="HacenTunisiaLt" horiz-adv-x="0" >
  <font-face 
    font-family="Hacen Tunisia Lt"
    font-weight="400"
    font-stretch="normal"
    units-per-em="2048"
    panose-1="2 0 0 0 0 0 0 0 0 0"
    ascent="1638"
    descent="-410"
    x-height="1102"
    cap-height="1449"
    bbox="-246 -568 2701 2134"
    underline-thickness="100"
    underline-position="-700"
    unicode-range="U+0020-FEFF"
  />
<missing-glyph horiz-adv-x="582" 
d="M5 1257h485v-1107h-485v1107zM76 1186v-966h343v966h-343z" />
    <glyph glyph-name=".notdef" unicode="&#x640;&#x651;&#x650;" horiz-adv-x="582" 
d="M5 1257h485v-1107h-485v1107zM76 1186v-966h343v966h-343z" />
    <glyph glyph-name="shaddawithfathatanisolated" unicode="&#x651;&#x64b;" 
d="M398 1823q6 -11 6 -16q0 -4 -1 -6.5t-1 -7.5q0 -2 0.5 -5t2.5 -8q15 -41 15 -83q0 -24 -5.5 -46.5t-17 -40t-29 -27.5t-41.5 -10q-17 0 -29 6t-26 16q-5 -14 -14 -31t-24 -33t-38 -26.5t-54 -10.5q-22 0 -36.5 8t-23.5 21.5t-12.5 30.5t-3.5 34q0 22 4.5 41.5t9.5 30.5
q0 -1 1 -1t4.5 4t8 9t8.5 9t6 4q1 0 1 -1q-3 -14 -5.5 -27.5t-2.5 -24.5q0 -19 8 -31t29 -12q25 0 40.5 8t24.5 21t13 29.5t5.5 33.5t3 32.5t4.5 27.5l1 -1q2 0 5 3.5t6 8t6.5 8t5.5 3.5q1 0 2 -1q-1 -5 -1 -13q0 -38 19.5 -64t47.5 -26q5 0 13.5 2t16.5 6.5t14 11.5t6 17
q0 20 -14 42t-29 37q5 10 14.5 15.5t20 10t20 9.5t15.5 13zM390 2031l-340 -193l17 91l340 193zM401 1903l-340 -193l17 91l340 193z" />
    <glyph glyph-name="shaddawithdammatanisolated" unicode="&#x651;&#x64c;" arabic-form="isolated" 
d="M425 1928q-9 -15 -30 -38t-49 -44.5t-60.5 -37t-64.5 -15.5q-33 0 -49 13.5t-16 30.5q0 19 9 39.5t9 35.5q0 10 -7 16t-27 6q-15 0 -38.5 -4t-58.5 -13q25 29 58.5 43.5t64.5 14.5q30 0 51 -14.5t21 -43.5q0 -14 -5.5 -31t-18.5 -37q48 17 89.5 38t75.5 53
q-48 10 -67.5 30.5t-19.5 45.5q0 22 12 43t31.5 37.5t44.5 27t50 10.5q21 -2 28.5 -19t7.5 -40q0 -26 -5.5 -50t-9.5 -33l40 -10l-18 -65zM396 1846q26 -31 39.5 -69.5t13.5 -78.5q0 -25 -5.5 -48t-17.5 -40t-30 -27.5t-42 -10.5q-17 0 -28.5 6.5t-25.5 16.5
q-5 -12 -13.5 -29t-23 -32.5t-36 -26.5t-50.5 -11q-26 0 -43.5 12.5t-28 33t-14.5 45t-4 48.5q0 26 4 47t9 32q0 -1 1 -1t5 4l8.5 8.5l8.5 8.5t6 4q1 0 1 -1q-3 -12 -5 -26.5t-2 -29.5q0 -17 2.5 -33t9 -28.5t16.5 -20t25 -7.5q33 0 48 17.5t21 42t7.5 49.5t6.5 40l1 -1
q2 0 5 3.5t6.5 8t6.5 8t5 3.5t2 -1q-1 -5 -1 -14q0 -38 19.5 -64t47.5 -26q5 0 13.5 2t16.5 6t14 10.5t6 16.5q0 20 -14 43t-28 38q11 20 19.5 37.5t17.5 34.5zM403 2065q-6 6 -13.5 7t-12.5 1q-17 0 -24 -9t-7 -20q0 -17 20 -25l45 -18q0 5 1 9q0 4 0.5 9t0.5 11
q0 12 -2 22.5t-8 14.5v-2z" />
    <glyph glyph-name="shaddawithkasratanisolated" unicode="&#x651;&#x64d;" arabic-form="isolated" 
d="M370 2050q24 -30 36.5 -67.5t12.5 -75.5q0 -26 -6 -49.5t-18 -41.5t-30 -28.5t-42 -10.5q-18 0 -29.5 7t-26.5 18q-5 -12 -13.5 -28.5t-23.5 -31.5t-36 -25.5t-49 -10.5q-26 0 -43 12t-27.5 31.5t-14.5 43t-4 47.5q0 28 4.5 51.5t10.5 34.5q0 -1 1 -1t5 4l8.5 8.5
l8.5 8.5t6 4q1 0 1 -1q-8 -29 -8 -62t11.5 -59t40.5 -26q32 0 47.5 17t22 41t8 49t7.5 40l1 -1q2 0 5 3.5t7 7.5t7 7.5t5 3.5t2 -1q-1 -5 -1 -9v-9q0 -37 18.5 -62t46.5 -25q5 0 13 2t16 6t14 11t6 17q0 19 -12.5 41t-26.5 38q11 20 20 37t19 34zM381 1579l-350 -141l33 75
l350 141zM391 1684l-350 -141l33 75l350 141z" />
    <glyph glyph-name="shaddawithfathaisolated" unicode="&#x651;&#x64e;" arabic-form="isolated" 
d="M398 1823q6 -11 6 -16q0 -4 -1 -6.5t-1 -7.5q0 -2 0.5 -5t2.5 -8q15 -41 15 -83q0 -24 -5.5 -46.5t-17 -40t-29 -27.5t-41.5 -10q-17 0 -29 6t-26 16q-5 -14 -14 -31t-24 -33t-38 -26.5t-54 -10.5q-22 0 -36.5 8t-23.5 21.5t-12.5 30.5t-3.5 34q0 22 4.5 41.5t9.5 30.5
q0 -1 1 -1t4.5 4t8 9t8.5 9t6 4q1 0 1 -1q-3 -14 -5.5 -27.5t-2.5 -24.5q0 -19 8 -31t29 -12q25 0 40.5 8t24.5 21t13 29.5t5.5 33.5t3 32.5t4.5 27.5l1 -1q2 0 5 3.5t6 8t6.5 8t5.5 3.5q1 0 2 -1q-1 -5 -1 -13q0 -38 19.5 -64t47.5 -26q5 0 13.5 2t16.5 6.5t14 11.5t6 17
q0 20 -14 42t-29 37q5 10 14.5 15.5t20 10t20 9.5t15.5 13zM401 1903l-340 -193l17 91l340 193z" />
    <glyph glyph-name="shaddawithdammaisolated" unicode="&#x651;&#x64f;" arabic-form="isolated" 
d="M372 1846q26 -31 39.5 -69.5t13.5 -78.5q0 -25 -5.5 -48t-17.5 -40t-30 -27.5t-42 -10.5q-17 0 -28.5 6.5t-25.5 16.5q-5 -12 -13.5 -29t-23 -32.5t-36 -26.5t-50.5 -11q-26 0 -43.5 12.5t-28 33t-14.5 45t-4 48.5q0 26 4 47t9 32q0 -1 1 -1t5 4l8.5 8.5l8.5 8.5t6 4
q1 0 1 -1q-3 -12 -5 -26.5t-2 -29.5q0 -17 2.5 -33t9 -28.5t16.5 -20t25 -7.5q33 0 48 17.5t21 42t7.5 49.5t6.5 40l1 -1q2 0 5 3.5t6.5 8t6.5 8t5 3.5t2 -1q-1 -5 -1 -14q0 -38 19.5 -64t47.5 -26q5 0 13.5 2t16.5 6t14 10.5t6 16.5q0 20 -14 43t-28 38q11 20 19.5 37.5
t17.5 34.5zM347 1915q-11 -18 -36 -40.5t-59 -42.5t-74.5 -33.5t-81.5 -13.5q-53 0 -73.5 3.5t-21.5 1.5q0 1 1 1q60 20 103 34t77 28t61.5 31t54.5 43q-51 9 -72 30t-21 46q0 22 13 43.5t34 38t47 27t52 10.5q23 -2 31 -19.5t8 -40.5q0 -25 -6 -49.5t-11 -34.5l43 -10
l-19 -63zM322 2054q-6 5 -13 6.5t-12 1.5q-17 0 -26 -9t-9 -20q0 -18 20.5 -27t48.5 -17q0 4 1 9q0 4 0.5 9.5t0.5 11.5q0 11 -2 22t-9 14v-1z" />
    <glyph glyph-name="shaddawithkasraisolated" unicode="&#x651;&#x650;" arabic-form="isolated" 
d="M385 1972q24 -30 36.5 -67.5t12.5 -75.5q0 -26 -6 -49.5t-18 -41.5t-30 -28.5t-42 -10.5q-18 0 -29.5 7t-26.5 18q-5 -12 -13.5 -28.5t-23.5 -31.5t-36 -25.5t-49 -10.5q-26 0 -43 12t-27.5 31.5t-14.5 43t-4 47.5q0 28 4.5 51.5t10.5 34.5q0 -1 1 -1t5 4l8.5 8.5
l8.5 8.5t6 4q1 0 1 -1q-8 -29 -8 -62t11.5 -59t40.5 -26q32 0 47.5 17t22 41t8 49t7.5 40l1 -1q2 0 5 3.5t7 7.5t7 7.5t5 3.5t2 -1q-1 -5 -1 -9v-9q0 -37 18.5 -62t46.5 -25q5 0 13 2t16 6t14 11t6 17q0 19 -12.5 41t-26.5 38q11 20 20 37t19 34zM422 1590l-340 -193l17 91
l340 193z" />
    <glyph glyph-name="shaddawithfathamedial" unicode="&#x640;&#x651;&#x64e;" arabic-form="medial" 
d="M298 1190q6 -11 6 -16q0 -4 -1 -6.5t-1 -7.5q0 -2 0.5 -5t2.5 -8q15 -41 15 -83q0 -24 -5.5 -46.5t-17 -40t-29 -27.5t-41.5 -10q-17 0 -29 6t-26 16q-5 -14 -14 -31t-24 -33t-38 -26.5t-54 -10.5q-22 0 -36.5 8t-23.5 21.5t-12.5 30.5t-3.5 34q0 22 4.5 41.5t9.5 30.5
q0 -1 1 -1t4.5 4t8 9t8.5 9t6 4q1 0 1 -1q-3 -14 -5.5 -27.5t-2.5 -24.5q0 -19 8 -31t29 -12q25 0 40.5 8t24.5 21t13 29.5t5.5 33.5t3 33t4.5 27l1 -1q2 0 5 3.5t6 8t6.5 8t5.5 3.5q1 0 2 -1q-1 -5 -1 -13q0 -38 19.5 -64t47.5 -26q5 0 13.5 2t16.5 6.5t14 11.5t6 17
q0 20 -14 42t-29 37q5 10 14.5 15.5t20 10t20 9.5t15.5 13zM301 1270l-340 -193l17 91l340 193z" />
    <glyph glyph-name="shaddawithdammamedial" unicode="&#x640;&#x651;&#x64f;" arabic-form="medial" 
d="M365 1238q26 -31 39.5 -69.5t13.5 -78.5q0 -25 -5.5 -48t-17.5 -40t-30 -27.5t-42 -10.5q-17 0 -28.5 6.5t-25.5 16.5q-5 -12 -13.5 -29t-23 -32.5t-36 -26.5t-50.5 -11q-26 0 -43.5 12.5t-28 33t-14.5 45t-4 48.5q0 26 4 47t9 32q0 -1 1 -1t5 4l8.5 8.5l8.5 8.5t6 4
q1 0 1 -1q-3 -12 -5 -26.5t-2 -29.5q0 -17 2.5 -33t9 -28.5t16.5 -20t25 -7.5q33 0 48 17.5t21 42t7.5 49.5t6.5 40l1 -1q2 0 5 3.5t6.5 8t6.5 8t5 3.5t2 -1q-1 -5 -1 -14q0 -38 19.5 -64t47.5 -26q5 0 13.5 2t16.5 6t14 10.5t6 16.5q0 20 -14 43t-28 38q11 20 19.5 37.5
t17.5 34.5zM340 1307q-11 -18 -36 -40.5t-59 -42.5t-74.5 -33.5t-81.5 -13.5q-53 0 -73.5 3.5t-21.5 1.5q0 1 1 1q60 20 103 34t77 28t61.5 31t54.5 43q-51 9 -72 30t-21 46q0 22 13 43.5t34 38t47 27t52 10.5q23 -2 31 -19.5t8 -40.5q0 -25 -6 -49.5t-11 -34.5l43 -10
l-19 -63zM315 1446q-6 5 -13 6.5t-12 1.5q-17 0 -26 -9t-9 -20q0 -18 20.5 -27t48.5 -17q0 4 1 9q0 4 0.5 9.5t0.5 11.5q0 11 -2 22t-9 14v-1z" />
    <glyph glyph-name="allahisolated" unicode="&#xfedf;&#xfee0;&#xfeea;" horiz-adv-x="2039" arabic-form="isolated" 
d="M1223 1111h179v-780h374v1022h179v-1103q1 -4 1 -9q0 -38 -27 -64t-64 -26h-1114q-43 0 -67 29t-24 70l-2 559l-215 1q-44 0 -83 -17.5t-68 -46.5t-46 -68.5t-17 -82.5l1 -256q38 -7 79.5 -10.5t83 -4.5t82 -0.5t75.5 1.5q2 -25 1.5 -46.5t-1 -42.5l-1 -42t1.5 -45
q-50 -3 -106.5 -3.5t-113.5 3t-112 11.5t-103 22q-29 6 -47.5 30t-18.5 56v327q0 81 30.5 153t84 125.5t125 84.5t153.5 31h274q23 0 44.5 -9.5t37.5 -25t26 -36.5t11 -44l3 -543h384v780zM1503 1255q0 -20 -6 -33t-16 -20.5t-22 -10.5t-25 -3h-266q-34 0 -51 15.5t-17 51.5
v155q0 7 5 11.5t12 4.5h38q17 0 17 -16v-150h93v150q0 7 5 11.5t13 4.5h38q7 0 12 -4.5t5 -11.5v-150h92v150q0 7 5 11.5t13 4.5h38q7 0 12 -4.5t5 -11.5v-155z" />
    <glyph glyph-name="fathamedial" unicode="&#x640;&#x64e;" arabic-form="medial" 
d="M396 1157q-97 -52 -191.5 -102.5t-191.5 -102.5q5 24 8 39.5t7 37.5q99 52 191.5 101.5t191.5 102.5z" />
    <glyph glyph-name="dammamedial" unicode="&#x640;&#x64f;" arabic-form="medial" 
d="M360 1221q-11 -23 -36.5 -51.5t-60.5 -53.5t-76 -42.5t-83 -17.5q-56 0 -77 4t-21 3q0 1 1 1q61 25 105.5 43t79 36t62.5 39.5t56 54.5q-52 12 -73.5 38t-21.5 58q0 27 12.5 54t33 48.5t46.5 35.5t52 14t35.5 -22t9.5 -54t-6 -63t-11 -44l44 -13l-19 -80zM335 1398
q-6 7 -14.5 8.5t-13.5 1.5q-17 0 -25.5 -11.5t-8.5 -25.5q0 -23 21 -34t50 -22q0 5 1 11q0 5 0.5 12t0.5 15q0 15 -2 28.5t-9 18.5v-2z" />
    <glyph glyph-name="kasramedial" unicode="&#x640;&#x650;" arabic-form="medial" 
d="M392 506q-97 -52 -191.5 -102.5t-191.5 -102.5q5 23 8 39t7 38q99 52 191.5 101.5t191.5 102.5z" />
    <glyph glyph-name="shaddamedial" unicode="&#x640;&#x651;" arabic-form="medial" 
d="M386 1293q17 -26 25 -57.5t8 -61.5q0 -28 -6.5 -54.5t-19 -47t-31 -33t-43.5 -12.5t-37.5 9t-27.5 23q-6 -11 -16 -25t-24.5 -26.5t-34.5 -21t-45 -8.5t-42 9.5t-27 25t-14 35.5t-4 41q0 37 9 70t18 47q0 -1 1 -1t5.5 3.5t9.5 7t9.5 7t6.5 3.5q1 0 1 -1
q-8 -17 -12.5 -39.5t-4.5 -43.5q0 -29 11.5 -48.5t40.5 -19.5t44.5 16t23.5 37.5t12.5 44.5t12.5 38q0 -2 2 -2q4 0 12.5 9.5t12.5 9.5q2 0 2 -1q-4 -15 -4 -32q0 -34 17 -57t44 -23q6 0 14 1.5t15.5 5t13 10.5t5.5 19q0 19 -9.5 40.5t-20.5 36.5q13 18 24.5 34t22.5 32z
" />
    <glyph glyph-name="lamwithalefmaddaaboveisolatedd" unicode="&#xfedf;&#xfe82;" horiz-adv-x="1012" arabic-form="isolated" 
d="M435 262q0 97 -15 202q-14 98 -41.5 198t-69.5 196t-100 184.5t-133 165.5q35 35 63.5 64t62.5 63q85 -87 151.5 -189t115.5 -211t81 -222t47 -223q7 -40 11 -84.5t7 -93.5q61 51 95.5 114t40.5 147v780h179v-792q-9 -104 -35.5 -179t-69.5 -129t-103 -89.5t-135 -60.5
t-165.5 -43t-194.5 -35q-8 48 -14.5 89t-14.5 87q63 8 118 19t102 22zM44 1400q-8 -2 -13.5 4.5t-5.5 14.5l3 49q0 11 6 17.5t14 8.5l384 68q17 3 19 -19l-3 -49q0 -9 -6 -17t-14 -9z" />
    <glyph glyph-name="lamwithalefmaddaabovefinal" unicode="&#xfee0;&#xfe82;" horiz-adv-x="1076" arabic-form="final" 
d="M1081 151h-245q-19 0 -38 9.5t-36 26.5q-61 -32 -128 -57t-136 -44.5t-138 -34.5t-135 -26q-8 48 -14.5 89t-14.5 87q60 7 121.5 19.5t115.5 25.5q0 57 -4 111t-11 107q-14 98 -41.5 198t-69.5 196t-100 184.5t-133 165.5q35 35 63.5 64t62.5 63q85 -87 151.5 -189
t115.5 -211t81 -222t47 -223q12 -79 18 -178q41 33 83 55q9 5 24.5 14t25.5 14v958h179v-1022h156v-180zM44 1400q-8 -2 -13.5 4.5t-5.5 14.5l3 49q0 11 6 17.5t14 8.5l384 68q17 3 19 -19l-3 -49q0 -9 -6 -17t-14 -9z" />
    <glyph glyph-name="lamwithalefhamzaaboveisolatedd" unicode="&#xfedf;&#xfe84;" horiz-adv-x="1012" arabic-form="isolated" 
d="M436 248q-2 129 -23 258t-64.5 252t-111 237t-162.5 213l33.5 33.5l30.5 30.5l30.5 30.5l32.5 32.5q85 -87 151.5 -189t115 -211t80.5 -222t48 -223q6 -40 10 -84.5t7 -93.5q61 51 96 114t40 147v780h179v-792q-9 -104 -35.5 -179t-69.5 -129t-103 -89.5t-135 -60.5
t-165.5 -43t-194.5 -35q-8 48 -14 89t-14 87q63 8 117.5 19t102.5 22zM130 1568q-5 11 -6.5 23t-1.5 24q0 25 8 48.5t23.5 42t39 29.5t53.5 11h111v-83l-111 1q-27 0 -39 -15.5t-12 -33.5q0 -17 11 -31t35 -16h125v-83h-274v83h38z" />
    <glyph glyph-name="lamwithalefhamzaabovefinal" unicode="&#xfee0;&#xfe84;" horiz-adv-x="1076" arabic-form="final" 
d="M1080 151h-245q-18 0 -37.5 9.5t-36.5 26.5q-61 -32 -128 -57t-136 -44.5t-138 -34.5t-135 -26q-8 48 -14.5 89t-14.5 87q61 7 122 19.5t115 25.5q0 57 -3.5 111t-10.5 107q-14 98 -41.5 198t-69.5 196t-100 184.5t-134 165.5q35 35 63.5 64t62.5 63q85 -87 151.5 -189
t115.5 -211t81 -222t48 -223q6 -40 10 -84.5t7 -93.5q20 16 41.5 30t41.5 25q10 5 25 14t26 14v958h179v-1022h155v-180zM130 1568q-5 11 -6.5 23t-1.5 24q0 25 8 48.5t23.5 42t39 29.5t53.5 11h111v-83l-111 1q-27 0 -39 -15.5t-12 -33.5q0 -17 11 -31t35 -16h125v-83h-274
v83h38z" />
    <glyph glyph-name="lamwithalefhamzabelowisolated" unicode="&#xfedf;&#xfe88;" horiz-adv-x="1012" arabic-form="isolated" 
d="M436 253q-2 128 -23 256.5t-64.5 251t-111 236t-162.5 211.5l33.5 33.5l30.5 30.5l30.5 30.5l32.5 32.5q85 -87 151.5 -189t115 -211t80.5 -222t48 -223q6 -40 10 -84.5t7 -93.5q61 51 96 114t40 147v780h179v-792q-9 -104 -35.5 -179t-69.5 -129t-103 -89.5t-135 -60.5
t-165.5 -43t-194.5 -35q-8 48 -14 89t-14 87q63 8 117.5 19t102.5 22zM170 -267q-5 11 -6.5 23t-1.5 24q0 25 8 48.5t23.5 42t39 29.5t53.5 11h111v-83l-111 1q-27 0 -39 -15.5t-12 -33.5q0 -17 11 -31t35 -16h125v-83h-274v83h38z" />
    <glyph glyph-name="lamwithalefhamzabelowfinal" unicode="&#xfee0;&#xfe88;" horiz-adv-x="1076" arabic-form="final" 
d="M1080 151h-245q-18 0 -37.5 9.5t-36.5 26.5q-61 -32 -128 -57t-136 -44.5t-138 -34.5t-135 -26q-8 48 -14.5 89t-14.5 87q61 7 122 19.5t115 25.5q0 57 -3.5 111t-10.5 107q-14 98 -41.5 198t-69.5 196t-100 184.5t-134 165.5q35 35 63.5 64t62.5 63q85 -87 151.5 -189
t115.5 -211t81 -222t48 -223q6 -40 10 -84.5t7 -93.5q20 16 41.5 30t41.5 25q10 5 25 14t26 14v958h179v-1022h155v-180zM170 -267q-5 11 -6.5 23t-1.5 24q0 25 8 48.5t23.5 42t39 29.5t53.5 11h111v-83l-111 1q-27 0 -39 -15.5t-12 -33.5q0 -17 11 -31t35 -16h125v-83h-274
v83h38z" />
    <glyph glyph-name="lamwithalefisolated" unicode="&#xfedf;&#xfe8e;" horiz-adv-x="1012" arabic-form="isolated" 
d="M434 262q0 48 -3.5 98.5t-10.5 103.5q-14 98 -41.5 198t-69.5 196t-100 184.5t-134 165.5l33.5 33.5l30.5 30.5l30.5 30.5l32.5 32.5q85 -87 151.5 -189t115 -211t80.5 -222t48 -223q6 -40 10 -84.5t7 -93.5q61 51 96 114t40 147v780h179v-792q-9 -104 -35.5 -179
t-69.5 -129t-103 -89.5t-135 -60.5t-165.5 -43t-194.5 -35q-8 48 -14 89t-14 87q63 8 117.5 19t102.5 22z" />
    <glyph glyph-name="lamwithaleffinal" unicode="&#xfee0;&#xfe8e;" horiz-adv-x="1076" arabic-form="final" 
d="M1080 151h-245q-18 0 -37.5 9.5t-36.5 26.5q-61 -32 -128 -57t-136 -44.5t-138 -34.5t-135 -26q-8 48 -14.5 89t-14.5 87q61 7 122 19.5t115 25.5q0 57 -3.5 111t-10.5 107q-14 98 -41.5 198t-69.5 196t-100 184.5t-134 165.5q35 35 63.5 64t62.5 63q85 -87 151.5 -189
t115.5 -211t81 -222t48 -223q6 -40 10 -84.5t7 -93.5q20 16 41.5 30t41.5 25q10 5 25 14t26 14v958h179v-1022h155v-180z" />
    <glyph glyph-name="bullet_ara" unicode="&#xfcf4;" arabic-form="medial" 
d="M424 1178q-11 -23 -36.5 -51.5t-60.5 -53.5t-76 -42.5t-83 -17.5q-56 0 -77 4t-21 3q0 1 1 1q61 25 105.5 43t79 36t62.5 39.5t56 54.5q-52 12 -73.5 38t-21.5 58q0 27 12.5 54t33 48.5t46.5 35.5t52 14t35.5 -22t9.5 -54t-6 -63t-11 -44l44 -13l-19 -80zM399 1355
q-6 7 -14.5 8.5t-13.5 1.5q-17 0 -25.5 -11.5t-8.5 -25.5q0 -23 21 -34t50 -22q0 5 1 11q0 5 0.5 12t0.5 15q0 15 -2 28.5t-9 18.5v-2z" />
    <glyph glyph-name="fathatanisolated" unicode="&#xfe70;" arabic-form="isolated" 
d="M389 1675l-340 -193l17 91l340 193zM403 1842l-340 -193l17 91l340 193z" />
    <glyph glyph-name="fathatanabove" unicode="&#xfe71;" arabic-form="medial" 
d="M383 1154q-97 -52 -191 -102.5t-191 -102.5q5 23 8 39t7 38q99 52 191.5 101.5t191.5 102.5zM416 1345q-97 -52 -191.5 -102.5t-191.5 -102.5q5 23 8.5 38.5t7.5 38.5q99 52 191 101.5t191 102.5z" />
    <glyph glyph-name="dammatanisolated" unicode="&#xfe72;" arabic-form="isolated" 
d="M409 1632q-8 -18 -28 -45.5t-47 -53t-58 -43.5t-62 -18t-46 16t-15 36q0 23 8 47t8 41q0 12 -6.5 19.5t-26.5 7.5q-14 0 -36.5 -4.5t-54.5 -15.5q23 34 55.5 51t61.5 17t49 -16.5t20 -51.5q0 -34 -23 -80q46 20 85.5 44t71.5 62q-45 11 -64 35.5t-19 53.5q0 26 12 51
t30.5 45t42 32.5t47.5 12.5q20 -2 27 -23t7 -47q0 -29 -5 -58t-9 -40l38 -12l-17 -76zM388 1793q-6 6 -12.5 8t-12.5 2q-15 0 -22 -11t-7 -24q0 -20 19 -30t43 -21q0 5 1 10q0 5 0.5 10.5t0.5 12.5q0 14 -2 27.5t-8 17.5v-2z" />
    <glyph glyph-name="kasratanisolated" unicode="&#xfe74;" arabic-form="isolated" 
d="M384 -83q-97 -52 -191.5 -102.5t-191.5 -102.5q5 23 8 38.5t7 38.5q99 52 191.5 101.5t191.5 102.5zM416 107q-97 -52 -191.5 -102.5t-191.5 -102.5q5 24 8.5 39.5t7.5 38.5q99 52 191 101t191 102z" />
    <glyph glyph-name="fathaisolated" unicode="&#xfe76;" arabic-form="isolated" 
d="M396 1583q-97 -52 -191.5 -102.5t-191.5 -102.5q5 24 8 39.5t7 37.5q99 52 191.5 101.5t191.5 102.5z" />
    <glyph glyph-name="dammaisolated" unicode="&#xfe78;" arabic-form="isolated" 
d="M366 1664q-11 -23 -36.5 -51.5t-60.5 -53.5t-76 -42.5t-83 -17.5q-56 0 -77 4t-21 3q0 1 1 1q61 25 105.5 43t79 36t62.5 39.5t56 54.5q-52 12 -73.5 38t-21.5 58q0 27 12.5 54t33 48.5t46.5 35.5t52 14t35.5 -22t9.5 -54t-6 -63t-11 -44l44 -13l-19 -80zM341 1841
q-6 7 -14.5 8.5t-13.5 1.5q-17 0 -25.5 -11.5t-8.5 -25.5q0 -23 21 -34t50 -22q0 5 1 11q0 5 0.5 12t0.5 15q0 15 -2 28.5t-9 18.5v-2z" />
    <glyph glyph-name="kasraisolated" unicode="&#xfe7a;" arabic-form="isolated" 
d="M392 -363q-97 -52 -191.5 -102.5t-191.5 -102.5q5 23 8 39t7 38q99 52 191.5 101.5t191.5 102.5z" />
    <glyph glyph-name="shaddaisolated" unicode="&#xfe7c;" arabic-form="isolated" 
d="M398 1823q17 -26 25 -57.5t8 -61.5q0 -28 -6.5 -54.5t-19 -47t-31 -33t-43.5 -12.5t-37.5 9t-27.5 23q-6 -11 -16 -25t-24.5 -26.5t-34.5 -21t-45 -8.5t-42 9.5t-27 25t-14 35.5t-4 41q0 37 9 70t18 47q0 -1 1 -1t5.5 3.5t9.5 7t9.5 7t6.5 3.5q1 0 1 -1
q-8 -17 -12.5 -39.5t-4.5 -43.5q0 -29 11.5 -48.5t40.5 -19.5t44.5 16t23.5 37.5t12.5 44.5t12.5 38q0 -2 2 -2q4 0 12.5 9.5t12.5 9.5q2 0 2 -1q-4 -15 -4 -32q0 -34 17 -57t44 -23q6 0 14 1.5t15.5 5t13 10.5t5.5 19q0 19 -9.5 40.5t-20.5 36.5q13 18 24.5 34t22.5 32z
" />
    <glyph glyph-name="sukunisolated" unicode="&#xfe7e;" arabic-form="isolated" 
d="M347 1696q1 -4 1 -8v-8q0 -31 -14.5 -65t-37.5 -78v1q0 1 1 2l-3 -5q-13 -8 -30 -15.5t-36.5 -13.5t-40.5 -9.5t-40 -3.5q-40 0 -65 19.5t-25 69.5q0 37 12 78t32.5 75t48.5 56.5t60 22.5q25 0 48.5 -12t42.5 -29.5t31 -38t15 -38.5zM283 1628q-3 13 -12.5 28.5t-23 28.5
t-29.5 21.5t-32 8.5q-32 0 -48 -21t-16 -43q0 -28 20.5 -40t48.5 -12q23 0 47.5 7.5t43.5 20.5z" />
    <glyph glyph-name="logo" unicode="&#xfe7f;" horiz-adv-x="2797" arabic-form="medial" 
d="M90 727h2611v-504h-2611v504zM1364 886q-21 -12 -45 -26t-49.5 -25.5t-50.5 -19.5t-49 -8q-31 0 -55.5 20.5t-43.5 65.5q-17 -12 -30 -20.5t-25.5 -15.5t-25.5 -12t-30 -11q-18 -6 -32 -6q-17 0 -33 11.5t-16 33.5q0 7 2.5 15t6.5 17q18 40 49 76.5t68.5 64t77.5 44
t76 16.5q27 0 48 -16t21 -52q0 -15 -13.5 -34t-30 -39t-30 -42t-13.5 -43q0 -15 9 -21.5t23 -6.5q21 0 49.5 10t56.5 23t51.5 25.5t33.5 18.5q8 37 32.5 68.5t55.5 54.5t63.5 36.5t57.5 13.5q14 0 20 -5t6 -13q0 -10 -11 -20.5t-30 -12.5q-19 -7 -44 -19t-47.5 -30t-38 -41
t-15.5 -52q0 -32 16.5 -45t42.5 -13t59 10t64.5 23.5t58 27.5t41.5 21q0 36 19 71t48.5 62.5t66.5 44t73 16.5q22 0 36.5 -4.5t22 -11t10.5 -15t3 -15.5q0 -26 -29 -52t-67 -49t-74.5 -40.5t-52.5 -25.5q16 -23 41 -33.5t57 -10.5q30 0 64.5 8.5t70 23.5t70 35.5t64.5 43.5
q19 14 38 32t40 33q4 3 13 8t19.5 10.5t21.5 9t20 3.5q15 0 15 -13q0 -5 -4 -16.5t-10 -22.5q-16 -45 -25.5 -75t-11.5 -47q0 -5 6 -5q7 0 20 6.5t29.5 16t34 22t32.5 24.5q4 2 23 15t43 27.5t48 26.5t38 12q12 0 12 -12q-3 -29 -3 -57q0 -12 1 -24.5t4.5 -22t10 -15.5
t17.5 -6q17 0 31 5.5t27 13.5t25.5 18t27.5 19l8 -21q-12 -9 -30 -25t-38.5 -31.5t-42.5 -27t-42 -11.5q-15 0 -25 6t-15 15t-7 19t-2 19t1 18.5t1 17.5q0 11 -3.5 21t-14.5 10q-10 0 -27.5 -9.5t-38.5 -24t-45 -31t-48 -31t-46 -24.5t-40 -10q-11 2 -22 8t-11 19
q0 23 4.5 44.5t18.5 62.5q0 1 -15.5 -10t-43 -28t-64 -37t-77 -37.5t-83 -29t-82.5 -11.5q-41 0 -76.5 16.5t-49.5 46.5q-19 -8 -47.5 -22t-62 -27.5t-68.5 -23t-66 -9.5q-35 0 -61.5 16.5t-35.5 60.5zM524 1295q8 37 25.5 64t46.5 27q10 0 19.5 -3.5t9.5 -17.5
q0 -9 -8 -24.5t-17 -28.5l-97 -192q105 5 209 36t189 97q35 31 61.5 43.5t43.5 12.5q25 0 25 -21q0 -19 -23 -47.5t-73 -54.5q-33 -34 -63 -72t-54 -82t-40 -96t-20 -115q0 -19 -15 -19q-12 0 -18 13.5t-6 45.5q0 73 22.5 140.5t56.5 124.5q-76 -25 -155 -36.5t-161 -11.5
l-80 -160q-16 -31 -39.5 -54t-55.5 -23q-24 0 -50 18.5t-47 49t-35 68.5t-14 77q0 34 16.5 56.5t54.5 22.5q51 0 104.5 -8.5t107.5 -8.5zM1103 265h91v320l318 -320h109v421h-91v-320l-313 320h-114v-421zM1709 265h430v76h-331v108h299v75h-299v87h322v75h-421v-421z
M2202 686v-77h183v-344h89v344h183v77h-455zM427 1080q-108 3 -214 21q-13 -10 -13 -35q0 -23 9.5 -52.5t25.5 -56t36 -45t40 -18.5q15 0 29 12t26 40zM1183 1059q-5 1 -10 1h-10q-36 0 -70.5 -17t-65 -43.5t-56 -58.5t-43.5 -61q41 0 77.5 16.5t68.5 42t59 57.5t50 63z
M880 390v-125h126v125h-126zM1914 1091q-50 -5 -99 -38t-78 -99q40 17 73.5 34t58.5 33t39 30t14 25q0 10 -8 15z" />
    <glyph glyph-name="hamzaisolated" unicode="&#x621;" horiz-adv-x="1002" arabic-form="isolated" 
d="M111 151v180h125q-18 44 -26 80.5t-8 66.5q0 61 22.5 120.5t67 106t110.5 75t153 28.5h315v-180l-315 1q-45 0 -78 -13t-54 -34.5t-31.5 -48.5t-10.5 -55q0 -27 9 -52.5t28.5 -45.5t49.5 -33t72 -16h358v-180h-787z" />
    <glyph glyph-name="alefwithmaddaaboveisolated" unicode="&#x622;" horiz-adv-x="506" arabic-form="isolated" 
d="M340 153h-179v1166q50 8 90.5 15t88.5 15v-1196zM44 1400q-8 -2 -13.5 4.5t-5.5 14.5l3 49q0 11 6 17.5t14 8.5l384 68q17 3 19 -19l-3 -49q0 -9 -6 -17t-14 -9z" />
    <glyph glyph-name="alefwithmaddaabovefinal" unicode="&#x622;" horiz-adv-x="486" arabic-form="final" 
d="M497 151h-292q-37 0 -63.5 26t-26.5 64q0 5 1 9v1064q48 8 91 17t88 18v-1018h202v-180zM44 1400q-8 -2 -13.5 4.5t-5.5 14.5l3 49q0 11 6 17.5t14 8.5l384 68q17 3 19 -19l-3 -49q0 -9 -6 -17t-14 -9z" />
    <glyph glyph-name="alefwithhamzaaboveisolated" unicode="&#x623;" horiz-adv-x="506" arabic-form="isolated" 
d="M340 153h-179v1200h179v-1200zM130 1568q-5 11 -6.5 23t-1.5 24q0 25 8 48.5t23.5 42t39 29.5t53.5 11h111v-83l-111 1q-27 0 -39 -15.5t-12 -33.5q0 -17 11 -31t35 -16h125v-83h-274v83h38z" />
    <glyph glyph-name="alefwithhamzaabovefinal" unicode="&#x623;" horiz-adv-x="491" arabic-form="final" 
d="M496 151h-292q-37 0 -63.5 26t-26.5 64q0 5 1 9v1103h179v-1022h202v-180zM130 1568q-5 11 -6.5 23t-1.5 24q0 25 8 48.5t23.5 42t39 29.5t53.5 11h111v-83l-111 1q-27 0 -39 -15.5t-12 -33.5q0 -17 11 -31t35 -16h125v-83h-274v83h38z" />
    <glyph glyph-name="wawwithhamzaaboveisolated" unicode="&#x624;" horiz-adv-x="962" arabic-form="isolated" 
d="M670 164q-24 -8 -76.5 -15t-118 -9.5t-135 1t-127 17.5t-94.5 40.5t-37 69.5v327q0 81 30.5 153t84 125.5t125 84.5t153.5 31h273q25 0 47 -9.5t38 -25.5t25.5 -38.5t9.5 -47.5q0 -88 3 -185.5t2 -197.5t-8.5 -199t-29 -189.5t-60 -169.5t-100.5 -139t-151.5 -97.5
t-212.5 -45.5v180q82 3 139.5 26.5t98 63.5t66.5 93t46 114zM475 319q54 0 108.5 5.5t109.5 16.5q4 55 4 116q0 62 -1.5 123t-3.5 119.5t-2 109.5l-215 1q-44 0 -83 -17.5t-68.5 -47t-46 -68.5t-16.5 -82l1 -254q36 -8 63 -12.5t50.5 -6.5t44.5 -2.5t45 -0.5h10zM340 1221
q-6 14 -9 30.5t-3 33.5q0 33 12.5 65t36.5 57t59.5 40.5t82.5 15.5h170v-113l-170 1q-42 0 -60.5 -21t-18.5 -45t17 -43t54 -21h193v-113h-422v113h58z" />
    <glyph glyph-name="wawwithhamzaabovefinal" unicode="&#x624;" horiz-adv-x="1037" arabic-form="final" 
d="M637 149q-41 -5 -81.5 -7.5t-82.5 -2.5q-24 0 -62.5 1t-82.5 4.5t-88 11.5t-79.5 22.5t-58 36.5t-22.5 53v327q0 81 30.5 153t84 125.5t125 84.5t153.5 31h273q25 0 47 -9.5t38 -25.5t25 -38.5t9 -47.5q0 -35 1.5 -79.5t3.5 -94t3.5 -100.5t2.5 -99t0 -90.5t-4 -73.5h172
v-180h-196q-22 -104 -62 -194.5t-104.5 -159t-156 -109t-216.5 -43.5v180q82 3 139.5 26.5t97.5 63.5t66.5 93t46.5 114zM473 319q54 0 108.5 5.5t109.5 16.5q4 55 4 116q0 62 -1.5 123t-3.5 119.5t-2 109.5l-215 1q-44 0 -83 -17.5t-68.5 -47t-46 -68.5t-16.5 -82l1 -254
q36 -8 63 -12.5t50 -6.5t44 -2.5t45 -0.5h11zM340 1221q-6 14 -9 30.5t-3 33.5q0 33 12.5 65t36.5 57t59.5 40.5t82.5 15.5h170v-113l-170 1q-42 0 -60.5 -21t-18.5 -45t17 -43t54 -21h193v-113h-422v113h58z" />
    <glyph glyph-name="alefwithhamzabelowisolated" unicode="&#x625;" horiz-adv-x="506" arabic-form="isolated" 
d="M340 153h-179v1200h179v-1200zM130 -153q-5 11 -6.5 23t-1.5 24q0 25 8 48.5t23.5 42t39 29.5t53.5 11h111v-83l-111 1q-27 0 -39 -15.5t-12 -33.5q0 -17 11 -31t35 -16h125v-83h-274v83h38z" />
    <glyph glyph-name="alefwithhamzabelowfinal" unicode="&#x625;" horiz-adv-x="491" arabic-form="final" 
d="M497 151h-293q-37 0 -63.5 26t-26.5 64q0 5 1 9v1103h179v-1022h203v-180zM130 -153q-5 11 -6.5 23t-1.5 24q0 25 8 48.5t23.5 42t39 29.5t53.5 11h111v-83l-111 1q-27 0 -39 -15.5t-12 -33.5q0 -17 11 -31t35 -16h125v-83h-274v83h38z" />
    <glyph glyph-name="yehwithhamzaaboveisolated" unicode="&#x626;" horiz-adv-x="1148" arabic-form="isolated" 
d="M275 464q-17 -40 -29 -92t-12 -106q0 -41 8.5 -77.5t32.5 -64t67.5 -43.5t113.5 -16h303q39 0 65 10t41.5 26.5t21.5 38.5t6 47q0 42 -13 70t-37 48t-59 34.5t-80 29.5q-54 19 -105.5 40t-91.5 54.5t-64 86t-24 133.5q0 95 34 162.5t89.5 110.5t126 63t142.5 20
q68 0 131 -14.5t115 -38.5q-23 -43 -43.5 -79.5t-43.5 -77.5q-33 14 -75 22.5t-87 8.5q-42 0 -80 -8.5t-67 -29.5t-46 -56t-17 -88q0 -29 15 -50.5t38.5 -38t52.5 -28t58 -21.5q34 -12 68.5 -25.5t67.5 -31.5t63 -42t53 -57q27 -44 43 -94.5t16 -101.5q0 -56 -19 -110
t-58 -97.5t-99 -70t-142 -26.5q-75 0 -149.5 1t-149.5 1q-113 0 -189.5 33.5t-124 87.5t-68 122.5t-20.5 140.5q0 77 18.5 150t44.5 127zM58 1023q-6 14 -9 30.5t-3 33.5q0 33 12.5 65t36.5 57t59.5 40.5t82.5 15.5h170v-113l-170 1q-42 0 -60.5 -21t-18.5 -45t17 -43
t54 -21h193v-113h-422v113h58z" />
    <glyph glyph-name="yehwithhamzaabovefinal" unicode="&#x626;" horiz-adv-x="1498" arabic-form="final" 
d="M261 729q-17 -38 -29 -90.5t-12 -107.5q1 -41 9.5 -77.5t32 -64t66.5 -43.5t114 -16l293 1v317q0 164 88.5 252.5t252.5 88.5q48 -1 94.5 -2t94.5 -3q38 -1 62.5 -28t24.5 -64v-561h157v-180h-246q-38 0 -64 26t-26 64v567l-101 2q-46 0 -76.5 -8.5t-48.5 -27.5
t-25.5 -50t-7.5 -76l1 -397q0 -42 -24 -71t-67 -29h-382q-111 0 -188 33t-124 87t-68 123t-21 141q0 78 17.5 151t43.5 127zM177 1018q-6 14 -9 30.5t-3 33.5q0 33 12.5 65t36.5 57t59.5 40.5t82.5 15.5h170v-113l-170 1q-42 0 -60.5 -21t-18.5 -45t17 -43t54 -21h193v-113
h-422v113h58z" />
    <glyph glyph-name="yehwithhamzaaboveinitial" unicode="&#x626;" horiz-adv-x="565" arabic-form="initial" 
d="M-12 331h289v434h179v-515q1 -4 1 -9q0 -38 -26 -64t-64 -26h-379v180zM137 993q-6 14 -9 30.5t-3 33.5q0 33 12.5 65t36.5 57t59.5 40.5t82.5 15.5h170v-113l-170 1q-42 0 -60.5 -21t-18.5 -45t17 -43t54 -21h193v-113h-422v113h58z" />
    <glyph glyph-name="yehwithhamzaabovemedial" unicode="&#x626;" horiz-adv-x="556" arabic-form="medial" 
d="M-8 151v180h208v433h179v-433h187v-180h-574zM137 993q-6 14 -9 30.5t-3 33.5q0 33 12.5 65t36.5 57t59.5 40.5t82.5 15.5h170v-113l-170 1q-42 0 -60.5 -21t-18.5 -45t17 -43t54 -21h193v-113h-422v113h58z" />
    <glyph glyph-name="alefisolated" unicode="&#x627;" horiz-adv-x="506" arabic-form="isolated" 
d="M339 153h-178v1200h178v-1200z" />
    <glyph glyph-name="aleffinal" unicode="&#x627;" horiz-adv-x="486" arabic-form="final" 
d="M496 151h-292q-37 0 -63.5 26t-26.5 64q0 5 1 9v1103h179v-1022h202v-180z" />
    <glyph glyph-name="behisolated" unicode="&#x628;" horiz-adv-x="1275" arabic-form="isolated" 
d="M1191 955v-714q0 -38 -26 -64t-64 -26h-636q-113 0 -189.5 33.5t-123.5 88t-67.5 123.5t-20.5 139q0 78 18 151t44 127q45 -24 80 -42.5t78 -40.5q-17 -39 -29 -91t-12 -107q0 -41 8.5 -77t32 -63.5t65 -44t106.5 -17.5l557 1v624h179zM629 -145q0 21 7.5 39t21 31.5
t31 21t38.5 7.5t39 -7.5t31.5 -21t21 -31.5t7.5 -39q0 -42 -28.5 -70t-70.5 -28t-70 28t-28 70z" />
    <glyph glyph-name="behfinal" unicode="&#x628;" horiz-adv-x="1354" arabic-form="final" 
d="M463 151q-113 0 -189.5 33.5t-123.5 88t-67.5 123.5t-20.5 139q0 78 18 151t44 127q22 -12 41.5 -22.5t38 -20t37.5 -19.5t41 -21q-18 -39 -29.5 -91t-11.5 -107q0 -41 8.5 -77t32 -63.5t65 -44t106.5 -17.5l556 1v624h179v-624h176v-180h-901zM627 -145q0 21 7.5 39
t20.5 31.5t31 21t38 7.5q42 0 70.5 -28.5t28.5 -70.5q0 -21 -7.5 -38.5t-21 -31t-31.5 -21t-39 -7.5q-41 0 -69 28t-28 70z" />
    <glyph glyph-name="behinitial" unicode="&#x628;" horiz-adv-x="565" arabic-form="initial" 
d="M-12 331h290v624h179v-705q1 -4 1 -9q0 -38 -26.5 -64t-64.5 -26h-379v180zM137 -145q0 21 7.5 39t20.5 31.5t31 21t38 7.5q42 0 70.5 -28.5t28.5 -70.5q0 -21 -7.5 -38.5t-21 -31t-31.5 -21t-39 -7.5q-41 0 -69 28t-28 70z" />
    <glyph glyph-name="behmedial" unicode="&#x628;" horiz-adv-x="565" arabic-form="medial" 
d="M-3 151v180h208v624h179v-624h187v-180h-574zM176 -145q0 21 7.5 39t21 31.5t31 21t38.5 7.5t38.5 -7.5t31 -21t21 -31.5t7.5 -39q0 -42 -28 -70t-70 -28t-70 28t-28 70z" />
    <glyph glyph-name="tehmarbutaisolated" unicode="&#x629;" horiz-adv-x="962" arabic-form="isolated" 
d="M797 180q-75 -20 -156.5 -30.5t-164.5 -10.5q-43 0 -84.5 3t-83.5 8h1q-35 6 -75 12t-73.5 17.5t-55.5 32t-22 56.5v327q0 81 30.5 153t84 125.5t125 84.5t153.5 31h274q24 0 45.5 -9t38 -25.5t26 -38.5t9.5 -48l1 -600q0 -32 -20.5 -56.5t-51.5 -30.5zM476 319
q54 0 107 5t107 15v470l-214 1q-44 0 -83 -17.5t-68.5 -47t-46 -68.5t-16.5 -82l1 -254q36 -8 63 -12.5t50.5 -6.5t44.5 -2.5t45 -0.5h10zM558 1245q0 42 28.5 70.5t69.5 28.5q21 0 39 -7.5t31.5 -21t21 -31.5t7.5 -39t-7.5 -38.5t-21 -31t-31.5 -21t-39 -7.5
q-41 0 -69.5 28t-28.5 70zM283 1245q0 42 28 70.5t69 28.5q21 0 39 -7.5t31.5 -21t21 -31.5t7.5 -39t-7.5 -38.5t-21 -31t-31.5 -21t-39 -7.5q-41 0 -69 28t-28 70z" />
    <glyph glyph-name="tehmarbutafinal" unicode="&#x629;" horiz-adv-x="1022" arabic-form="final" 
d="M1029 151h-265q-42 0 -66 29t-24 70l-2 559l-215 1q-44 0 -83 -17.5t-68.5 -46.5t-46 -68.5t-16.5 -82.5l1 -256q39 -5 67.5 -9.5t61.5 -4.5q34 0 79 6.5t117 21.5q4 -50 8 -90.5t8 -88.5q-71 -11 -132.5 -16t-117 -4t-106.5 8t-100 20q-29 6 -47 30t-18 56v327
q0 81 30.5 153t84 125.5t125 84.5t153.5 31h273q23 0 44.5 -9.5t37.5 -25t26 -36.5t11 -44l4 -543h176v-180zM556 1245q0 42 28 70.5t70 28.5q21 0 39 -7.5t31.5 -21t21 -31.5t7.5 -39t-7.5 -38.5t-21 -31t-31.5 -21t-39 -7.5q-42 0 -70 28t-28 70zM281 1245q0 42 28 70.5
t69 28.5q21 0 39 -7.5t31.5 -21t21 -31.5t7.5 -39t-7.5 -38.5t-21 -31t-31.5 -21t-39 -7.5q-41 0 -69 28t-28 70z" />
    <glyph glyph-name="tehisolated" unicode="&#x62a;" horiz-adv-x="1275" arabic-form="isolated" 
d="M1191 955v-714q0 -38 -26 -64t-64 -26h-636q-113 0 -189.5 33.5t-123.5 88t-67.5 123.5t-20.5 139q0 78 18 151t44 127q45 -24 80 -42.5t78 -40.5q-17 -39 -29 -91t-12 -107q0 -41 8.5 -77t32 -63.5t65 -44t106.5 -17.5l557 1v624h179zM682 1163q0 21 7.5 39t20.5 31.5
t31 21t38 7.5q42 0 70.5 -28.5t28.5 -70.5q0 -20 -7.5 -38t-21 -31t-31.5 -20.5t-39 -7.5q-41 0 -69 28t-28 69zM406 1163q0 21 7.5 39t21 31.5t31 21t38.5 7.5t38.5 -7.5t31 -21t21 -31.5t7.5 -39q0 -41 -28 -69t-70 -28t-70 28t-28 69z" />
    <glyph glyph-name="tehfinal" unicode="&#x62a;" horiz-adv-x="1354" arabic-form="final" 
d="M463 151q-113 0 -189.5 33.5t-123.5 88t-67.5 123.5t-20.5 139q0 78 18 151t44 127q22 -12 41.5 -22.5t38 -20t37.5 -19.5t41 -21q-18 -39 -29.5 -91t-11.5 -107q0 -41 8.5 -77t32 -63.5t65 -44t106.5 -17.5l556 1v624h179v-624h176v-180h-901zM616 1170q0 42 28.5 70
t69.5 28q21 0 39 -7.5t31.5 -21t21 -31t7.5 -38.5t-7.5 -38.5t-21 -31t-31.5 -21t-39 -7.5q-41 0 -69.5 28t-28.5 70zM341 1170q0 42 28 70t69 28q21 0 39 -7.5t31.5 -21t21 -31t7.5 -38.5t-7.5 -38.5t-21 -31t-31.5 -21t-39 -7.5q-41 0 -69 28t-28 70z" />
    <glyph glyph-name="tehinitial" unicode="&#x62a;" horiz-adv-x="570" arabic-form="initial" 
d="M-7 331h289v624h179v-705q1 -4 1 -9q0 -38 -26 -64t-64 -26h-379v180zM300 1245q0 42 28 70.5t69 28.5q21 0 39 -7.5t31.5 -21t21 -31.5t7.5 -39t-7.5 -38.5t-21 -31t-31.5 -21t-39 -7.5q-41 0 -69 28t-28 70zM24 1245q0 42 28 70.5t70 28.5t70 -28.5t28 -70.5t-28 -70
t-70 -28t-70 28t-28 70z" />
    <glyph glyph-name="tehmedial" unicode="&#x62a;" horiz-adv-x="556" arabic-form="medial" 
d="M-8 151v180h208v624h179v-624h187v-180h-574zM299 1245q0 42 28 70.5t69 28.5q21 0 39 -7.5t31.5 -21t21 -31.5t7.5 -39t-7.5 -38.5t-21 -31t-31.5 -21t-39 -7.5q-41 0 -69 28t-28 70zM23 1245q0 42 28 70.5t70 28.5t70 -28.5t28 -70.5t-28 -70t-70 -28t-70 28t-28 70z
" />
    <glyph glyph-name="thehisolated" unicode="&#x62b;" horiz-adv-x="1275" arabic-form="isolated" 
d="M1191 955v-714q0 -38 -26 -64t-64 -26h-636q-113 0 -189.5 33.5t-123.5 88t-67.5 123.5t-20.5 139q0 78 18 151t44 127q45 -24 80 -42.5t78 -40.5q-17 -39 -29 -91t-12 -107q0 -41 8.5 -77t32 -63.5t65 -44t106.5 -17.5l557 1v624h179zM490 1436q0 21 7.5 39t21 31.5
t31 21t38.5 7.5t39 -7.5t31.5 -21t21 -31.5t7.5 -39q0 -41 -28.5 -69.5t-70.5 -28.5t-70 28.5t-28 69.5zM325 1170q0 42 28 70t69 28q21 0 39 -7.5t31.5 -21t21 -31t7.5 -38.5t-7.5 -38.5t-21 -31t-31.5 -21t-39 -7.5q-41 0 -69 28t-28 70zM655 1170q0 42 28 70t70 28
t70 -28t28 -70t-28 -70t-70 -28t-70 28t-28 70z" />
    <glyph glyph-name="thehfinal" unicode="&#x62b;" horiz-adv-x="1354" arabic-form="final" 
d="M463 151q-113 0 -189.5 33.5t-123.5 88t-67.5 123.5t-20.5 139q0 78 18 151t44 127q22 -12 41.5 -22.5t38 -20t37.5 -19.5t41 -21q-18 -39 -29.5 -91t-11.5 -107q0 -41 8.5 -77t32 -63.5t65 -44t106.5 -17.5l556 1v624h179v-624h176v-180h-901zM468 1433q0 21 7.5 39
t21 31.5t31 21t38.5 7.5t39 -7.5t31.5 -21t21 -31.5t7.5 -39q0 -42 -28.5 -70t-70.5 -28t-70 28t-28 70zM633 1167q0 42 28 70t69 28q21 0 39 -7.5t31.5 -21t21 -31t7.5 -38.5t-7.5 -38.5t-21 -31t-31.5 -21t-39 -7.5q-41 0 -69 28t-28 70zM303 1167q0 42 28 70t69 28
q21 0 39 -7.5t31.5 -21t21 -31t7.5 -38.5t-7.5 -38.5t-21 -31t-31.5 -21t-39 -7.5q-41 0 -69 28t-28 70z" />
    <glyph glyph-name="thehinitial" unicode="&#x62b;" horiz-adv-x="570" arabic-form="initial" 
d="M-8 331h289v624h179v-705q1 -4 1 -9q0 -38 -26 -64t-64 -26h-379v180zM342 1245q0 42 28 70.5t70 28.5t70.5 -28.5t28.5 -70.5t-28.5 -70t-70.5 -28t-70 28t-28 70zM178 1511q0 21 7.5 39t20.5 31.5t31 21t38 7.5q42 0 70.5 -28.5t28.5 -70.5q0 -20 -7.5 -38t-21 -31.5
t-31.5 -21t-39 -7.5q-41 0 -69 28.5t-28 69.5zM12 1245q0 42 28 70.5t70 28.5t70 -28.5t28 -70.5t-28 -70t-70 -28t-70 28t-28 70z" />
    <glyph glyph-name="thehmedial" unicode="&#x62b;" horiz-adv-x="561" arabic-form="medial" 
d="M-10 151v180h208v624h179v-624h187v-180h-574zM180 1509q0 21 7.5 39t21 31.5t31.5 21t38 7.5q42 0 70.5 -28.5t28.5 -70.5q0 -20 -7.5 -38t-21 -31.5t-31.5 -21t-39 -7.5q-41 0 -69.5 28.5t-28.5 69.5zM15 1243q0 42 28 70t69 28q21 0 39 -7.5t31.5 -21t21 -31
t7.5 -38.5t-7.5 -38.5t-21 -31t-31.5 -21t-39 -7.5q-41 0 -69 28t-28 70zM345 1243q0 42 28 70t70 28t70 -28t28 -70t-28 -70t-70 -28t-70 28t-28 70z" />
    <glyph glyph-name="jeemisolated" unicode="&#x62c;" horiz-adv-x="1250" arabic-form="isolated" 
d="M542 331h344q-6 116 -35.5 196.5t-75 132.5t-102 81t-117.5 42.5t-122 16.5t-114 3q-17 0 -32.5 -0.5t-30.5 0.5q5 51 7.5 91t7.5 88q27 -2 46.5 -2.5t50.5 -1.5q71 -3 149 -8.5t154 -26t145 -60.5t122.5 -111t87.5 -178.5t39 -262.5h90v-180h-616q-77 -4 -133 -25
t-92 -54t-53.5 -74t-17.5 -84q0 -55 28 -109t84 -97q-26 -38 -51.5 -76.5t-49.5 -73.5q-95 70 -143 165t-48 192q0 77 30.5 150t90.5 131t148.5 94t204.5 40h-1zM482 -150q0 42 28.5 70.5t69.5 28.5q21 0 39 -7.5t31.5 -21t21 -31.5t7.5 -39t-7.5 -38.5t-21 -31t-31.5 -21
t-39 -7.5q-41 0 -69.5 28t-28.5 70z" />
    <glyph glyph-name="jeemfinal" unicode="&#x62c;" horiz-adv-x="1265" arabic-form="final" 
d="M540 331h344q-6 116 -35.5 196.5t-75 132.5t-102 81t-117.5 42.5t-122 16.5t-114 3q-16 0 -32 -0.5t-30 0.5q5 51 7.5 91t6.5 88q27 -2 47 -2.5t51 -1.5q71 -3 149 -8.5t154 -26t145 -60.5t122.5 -111t87 -178.5t38.5 -262.5h206v-180h-732q-77 -4 -132.5 -25t-92 -54
t-54 -74t-17.5 -84q0 -55 28 -109t84 -97q-26 -38 -51.5 -76.5t-49.5 -73.5q-95 70 -143 165t-48 192q0 77 30.5 150t90.5 131t148.5 94t204.5 40h-1zM481 -150q0 42 28 70.5t70 28.5t70 -28.5t28 -70.5t-28 -70t-70 -28t-70 28t-28 70z" />
    <glyph glyph-name="jeeminitial" unicode="&#x62c;" horiz-adv-x="1081" arabic-form="initial" 
d="M117 982q27 -2 46.5 -2.5t50.5 -1.5q71 -3 149 -8.5t154 -26t145 -60.5t122.5 -111t87 -178.5t38.5 -262.5h91v-180h-1003v180h732q-6 116 -35.5 196.5t-74.5 132.5t-101.5 81t-117.5 42.5t-122 16.5t-114 3q-17 0 -33 -0.5t-30 0.5zM347 -150q0 42 28 70.5t69 28.5
q21 0 39 -7.5t31.5 -21t21 -31.5t7.5 -39t-7.5 -38.5t-21 -31t-31.5 -21t-39 -7.5q-41 0 -69 28t-28 70z" />
    <glyph glyph-name="jeemmedial" unicode="&#x62c;" horiz-adv-x="1121" arabic-form="medial" 
d="M168 982q27 -2 47 -2.5t51 -1.5q71 -3 149 -8.5t154 -26t145 -60.5t122.5 -111t87 -178.5t38.5 -262.5h165v-180h-1137v180h792q-6 116 -35.5 196.5t-74.5 132.5t-102 81t-118 42.5t-122 16.5t-114 3q-16 0 -32 -0.5t-30 0.5zM345 -150q0 42 28 70.5t70 28.5t70.5 -28.5
t28.5 -70.5t-28.5 -70t-70.5 -28t-70 28t-28 70z" />
    <glyph glyph-name="hahisolated" unicode="&#x62d;" horiz-adv-x="1250" arabic-form="isolated" 
d="M542 331h344q-6 116 -35.5 196.5t-75 132.5t-102 81t-117.5 42.5t-122 16.5t-114 3q-17 0 -32.5 -0.5t-30.5 0.5q5 51 7.5 91t7.5 88q27 -2 46.5 -2.5t50.5 -1.5q71 -3 149 -8.5t154 -26t145 -60.5t122.5 -111t87.5 -178.5t39 -262.5h90v-180h-616q-77 -4 -133 -25
t-92 -54t-53.5 -74t-17.5 -84q0 -55 28 -109t84 -97q-26 -38 -51.5 -76.5t-49.5 -73.5q-95 70 -143 165t-48 192q0 77 30.5 150t90.5 131t148.5 94t204.5 40h-1z" />
    <glyph glyph-name="hahfinal" unicode="&#x62d;" horiz-adv-x="1265" arabic-form="final" 
d="M540 331h344q-6 116 -35.5 196.5t-75 132.5t-102 81t-117.5 42.5t-122 16.5t-114 3q-16 0 -32 -0.5t-30 0.5q5 51 7.5 91t6.5 88q27 -2 47 -2.5t51 -1.5q71 -3 149 -8.5t154 -26t145 -60.5t122.5 -111t87 -178.5t38.5 -262.5h206v-180h-732q-77 -4 -132.5 -25t-92 -54
t-54 -74t-17.5 -84q0 -55 28 -109t84 -97q-26 -38 -51.5 -76.5t-49.5 -73.5q-95 70 -143 165t-48 192q0 77 30.5 150t90.5 131t148.5 94t204.5 40h-1z" />
    <glyph glyph-name="hahinitial" unicode="&#x62d;" horiz-adv-x="1081" arabic-form="initial" 
d="M116 982q27 -2 47 -2.5t51 -1.5q71 -3 149 -8.5t154 -26t145 -60.5t122.5 -111t87 -178.5t38.5 -262.5h91v-180h-1003v180h732q-6 116 -35.5 196.5t-74.5 132.5t-101.5 81t-117.5 42.5t-122 16.5t-114 3q-17 0 -33 -0.5t-30 0.5z" />
    <glyph glyph-name="hahmedial" unicode="&#x62d;" horiz-adv-x="1121" arabic-form="medial" 
d="M169 982q27 -2 46.5 -2.5t50.5 -1.5q71 -3 149 -8.5t154 -26t145 -60.5t122.5 -111t87 -178.5t38.5 -262.5h165v-180h-1137v180h792q-6 116 -35.5 196.5t-74.5 132.5t-102 81t-118 42.5t-122 16.5t-114 3q-16 0 -32 -0.5t-30 0.5z" />
    <glyph glyph-name="khahisolated" unicode="&#x62e;" horiz-adv-x="1250" arabic-form="isolated" 
d="M542 331h344q-6 116 -35.5 196.5t-75 132.5t-102 81t-117.5 42.5t-122 16.5t-114 3q-17 0 -32.5 -0.5t-30.5 0.5q5 51 7.5 91t7.5 88q27 -2 46.5 -2.5t50.5 -1.5q71 -3 149 -8.5t154 -26t145 -60.5t122.5 -111t87.5 -178.5t39 -262.5h90v-180h-616q-77 -4 -133 -25
t-92 -54t-53.5 -74t-17.5 -84q0 -55 28 -109t84 -97q-26 -38 -51.5 -76.5t-49.5 -73.5q-95 70 -143 165t-48 192q0 77 30.5 150t90.5 131t148.5 94t204.5 40h-1zM380 1243q0 42 28 70t69 28q21 0 39 -7.5t31.5 -21t21 -31t7.5 -38.5t-7.5 -38.5t-21 -31t-31.5 -21t-39 -7.5
q-41 0 -69 28t-28 70z" />
    <glyph glyph-name="khahfinal" unicode="&#x62e;" horiz-adv-x="1265" arabic-form="final" 
d="M540 331h344q-6 116 -35.5 196.5t-75 132.5t-102 81t-117.5 42.5t-122 16.5t-114 3q-16 0 -32 -0.5t-30 0.5q5 51 7.5 91t6.5 88q27 -2 47 -2.5t51 -1.5q71 -3 149 -8.5t154 -26t145 -60.5t122.5 -111t87 -178.5t38.5 -262.5h206v-180h-732q-77 -4 -132.5 -25t-92 -54
t-54 -74t-17.5 -84q0 -55 28 -109t84 -97q-26 -38 -51.5 -76.5t-49.5 -73.5q-95 70 -143 165t-48 192q0 77 30.5 150t90.5 131t148.5 94t204.5 40h-1zM378 1243q0 42 28 70t70 28t70 -28t28 -70t-28 -70t-70 -28t-70 28t-28 70z" />
    <glyph glyph-name="khahinitial" unicode="&#x62e;" horiz-adv-x="1081" arabic-form="initial" 
d="M117 982q27 -2 46.5 -2.5t50.5 -1.5q71 -3 149 -8.5t154 -26t145 -60.5t122.5 -111t87 -178.5t38.5 -262.5h91v-180h-1003v180h732q-6 116 -35.5 196.5t-74.5 132.5t-101.5 81t-117.5 42.5t-122 16.5t-114 3q-17 0 -33 -0.5t-30 0.5zM251 1243q0 42 28 70t70 28t70.5 -28
t28.5 -70t-28.5 -70t-70.5 -28t-70 28t-28 70z" />
    <glyph glyph-name="khahmedial" unicode="&#x62e;" horiz-adv-x="1121" arabic-form="medial" 
d="M168 982q27 -2 47 -2.5t51 -1.5q71 -3 149 -8.5t154 -26t145 -60.5t122.5 -111t87 -178.5t38.5 -262.5h165v-180h-1137v180h792q-6 116 -35.5 196.5t-74.5 132.5t-102 81t-118 42.5t-122 16.5t-114 3q-16 0 -32 -0.5t-30 0.5zM296 1243q0 42 28 70t69 28q21 0 39 -7.5
t31.5 -21t21 -31t7.5 -38.5t-7.5 -38.5t-21 -31t-31.5 -21t-39 -7.5q-41 0 -69 28t-28 70z" />
    <glyph glyph-name="dalisolated" unicode="&#x62f;" horiz-adv-x="957" arabic-form="isolated" 
d="M170 984q205 1 339 -41.5t215 -135.5q41 -47 68 -105t43.5 -129t23.5 -154.5t7 -181.5q0 -38 -26 -64t-64 -26h-675v180h584q-7 127 -29.5 217t-67.5 144q-54 60 -154.5 89.5t-261.5 27.5z" />
    <glyph glyph-name="dalfinal" unicode="&#x62f;" horiz-adv-x="977" arabic-form="final" 
d="M100 152v180h583q-6 127 -29 215t-68 141q-54 60 -154 89.5t-261 27.5q0 51 -1 91t-1 88q102 1 186 -9.5t152 -32t121 -55.5t94 -80q68 -79 100 -196t40 -280h127v-180z" />
    <glyph glyph-name="thalisolated" unicode="&#x630;" horiz-adv-x="957" arabic-form="isolated" 
d="M170 984q205 1 339 -41.5t215 -135.5q41 -47 68 -105t43.5 -129t23.5 -154.5t7 -181.5q0 -38 -26 -64t-64 -26h-675v180h584q-7 127 -29.5 217t-67.5 144q-54 60 -154.5 89.5t-261.5 27.5zM195 1248q0 42 28 70.5t70 28.5t70 -28.5t28 -70.5t-28 -70t-70 -28t-70 28
t-28 70z" />
    <glyph glyph-name="thalfinal" unicode="&#x630;" horiz-adv-x="982" arabic-form="final" 
d="M100 152v180h583q-6 127 -29 215t-68 141q-54 60 -154 89.5t-261 27.5q0 51 -1 91t-1 88q102 1 186 -9.5t152 -32t121 -55.5t94 -80q68 -79 100 -196t40 -280h127v-180zM193 1248q0 42 28 70.5t70 28.5t70.5 -28.5t28.5 -70.5t-28.5 -70t-70.5 -28t-70 28t-28 70z" />
    <glyph glyph-name="rehisolated" unicode="&#x631;" horiz-adv-x="624" arabic-form="isolated" 
d="M553 848q-1 -38 0 -70.5t3 -77.5q2 -52 4 -106.5t2 -112.5q0 -82 -6 -168.5t-23 -171.5q-21 -99 -61 -188t-104.5 -156t-156 -108t-216.5 -44v181q88 4 150.5 33t105.5 77t68.5 112t39.5 136.5t18 150.5t4 155q0 55 -1 109.5t-3 105.5q-2 38 -3 74t-1 69h180z" />
    <glyph glyph-name="rehfinal" unicode="&#x631;" horiz-adv-x="704" arabic-form="final" 
d="M375 705q-2 38 -3 74t-1 69h179q0 -8 0.5 -35.5t2 -64.5t2.5 -80t2.5 -81t2 -67t0.5 -39q0 -16 -0.5 -35.5t-1 -39.5t-1 -39.5t-1.5 -35.5h153v-180h-177q-22 -104 -62 -194.5t-104.5 -159t-156 -109t-216.5 -43.5v181q88 4 150.5 33t105.5 77t68.5 112t39.5 136.5
t18 150.5t4 155q0 55 -1 109.5t-3 105.5z" />
    <glyph glyph-name="zainisolated" unicode="&#x632;" horiz-adv-x="624" arabic-form="isolated" 
d="M553 848v-27q0 -5 0.5 -30t1.5 -60.5t2.5 -76t2.5 -76.5t1.5 -63t0.5 -34q0 -96 -9 -194t-32.5 -190t-63.5 -173t-103 -142t-151.5 -97.5t-207.5 -39.5v181q88 4 150.5 33t105.5 77t68.5 112t39.5 136.5t18 150.5t4 155q0 8 -0.5 36t-1.5 65.5t-2 80t-2 79.5t-1.5 64
t-0.5 33h180zM353 1182q0 21 7.5 39t21 31.5t31 21t38.5 7.5t39 -7.5t31.5 -21t21 -31.5t7.5 -39q0 -42 -28.5 -70t-70.5 -28t-70 28t-28 70z" />
    <glyph glyph-name="zainfinal" unicode="&#x632;" horiz-adv-x="704" arabic-form="final" 
d="M375 705q-2 38 -3 74t-1 69h179q0 -8 0.5 -35.5t2 -64.5t2.5 -80t2.5 -81t2 -67t0.5 -39q0 -16 -0.5 -35.5t-1 -39.5t-1 -39.5t-1.5 -35.5h153v-180h-177q-22 -104 -62 -194.5t-104.5 -159t-156 -109t-216.5 -43.5v181q88 4 150.5 33t105.5 77t68.5 112t39.5 136.5
t18 150.5t4 155q0 55 -1 109.5t-3 105.5zM351 1182q0 21 7.5 39t21 31.5t31 21t38.5 7.5t38.5 -7.5t31 -21t21 -31.5t7.5 -39q0 -42 -28 -70t-70 -28t-70 28t-28 70z" />
    <glyph glyph-name="seenisolated" unicode="&#x633;" horiz-adv-x="1850" arabic-form="isolated" 
d="M226 557v-359q0 -55 20 -95t53 -66.5t76 -39t88 -12.5q46 0 89 12.5t76 39t53 66.5t20 95v757h181v-624h272v624h179v-624h272v624h179v-714q0 -38 -26 -64t-63 -26h-816q-12 -85 -52 -149.5t-97 -108t-126 -66t-141 -22.5q-79 0 -154 25.5t-133.5 75t-94 123
t-35.5 169.5v359h180z" />
    <glyph glyph-name="seenfinal" unicode="&#x633;" horiz-adv-x="1920" arabic-form="final" 
d="M877 151q-12 -85 -52 -149.5t-97 -108t-126 -66t-141 -22.5q-79 0 -154 25.5t-133.5 75t-94 123t-35.5 169.5v359h180v-359q0 -55 20 -95t53 -66.5t76 -39t88 -12.5q46 0 89 12.5t76 39t53 66.5t20 95v757h181v-624h271v624h179v-624h273v624h179v-624h156v-180h-1061z
" />
    <glyph glyph-name="seeninitial" unicode="&#x633;" horiz-adv-x="1364" arabic-form="initial" 
d="M-8 331h218v624h180v-624h272v624h179v-624h272v624h179v-714q0 -38 -26 -64t-63 -26h-1211v180z" />
    <glyph glyph-name="seenmedial" unicode="&#x633;" horiz-adv-x="1399" arabic-form="medial" 
d="M-10 151v180h168v624h180v-624h272v624h179v-624h272v624h179v-624h167v-180h-1417z" />
    <glyph glyph-name="sheenisolated" unicode="&#x634;" horiz-adv-x="1850" arabic-form="isolated" 
d="M226 557v-359q0 -55 20 -95t53 -66.5t76 -39t88 -12.5q46 0 89 12.5t76 39t53 66.5t20 95v757h181v-624h272v624h179v-624h272v624h179v-714q0 -38 -26 -64t-63 -26h-816q-12 -85 -52 -149.5t-97 -108t-126 -66t-141 -22.5q-79 0 -154 25.5t-133.5 75t-94 123
t-35.5 169.5v359h180zM1141 1511q0 21 7.5 39t21 31.5t31.5 21t38 7.5q42 0 70.5 -28.5t28.5 -70.5q0 -20 -7.5 -38t-21 -31.5t-31.5 -21t-39 -7.5q-41 0 -69.5 28.5t-28.5 69.5zM976 1245q0 42 28 70.5t69 28.5q21 0 39 -7.5t31.5 -21t21 -31.5t7.5 -39t-7.5 -38.5t-21 -31
t-31.5 -21t-39 -7.5q-41 0 -69 28t-28 70zM1306 1245q0 42 28 70.5t70 28.5t70 -28.5t28 -70.5t-28 -70t-70 -28t-70 28t-28 70z" />
    <glyph glyph-name="sheenfinal" unicode="&#x634;" horiz-adv-x="1920" arabic-form="final" 
d="M877 151q-12 -85 -52 -149.5t-97 -108t-126 -66t-141 -22.5q-79 0 -154 25.5t-133.5 75t-94 123t-35.5 169.5v359h180v-359q0 -55 20 -95t53 -66.5t76 -39t88 -12.5q46 0 89 12.5t76 39t53 66.5t20 95v757h181v-624h271v624h179v-624h273v624h179v-624h156v-180h-1061z
M1139 1511q0 21 7.5 39t21 31.5t31 21t38.5 7.5t39 -7.5t31.5 -21t21 -31.5t7.5 -39q0 -41 -28.5 -69.5t-70.5 -28.5t-70 28.5t-28 69.5zM1304 1245q0 42 28 70.5t69 28.5q21 0 39 -7.5t31.5 -21t21 -31.5t7.5 -39t-7.5 -38.5t-21 -31t-31.5 -21t-39 -7.5q-41 0 -69 28
t-28 70zM974 1245q0 42 28 70.5t69 28.5q21 0 39 -7.5t31.5 -21t21 -31.5t7.5 -39t-7.5 -38.5t-21 -31t-31.5 -21t-39 -7.5q-41 0 -69 28t-28 70z" />
    <glyph glyph-name="sheeninitial" unicode="&#x634;" horiz-adv-x="1364" arabic-form="initial" 
d="M-8 331h218v624h180v-624h272v624h179v-624h272v624h179v-714q0 -38 -26 -64t-63 -26h-1211v180zM647 1511q0 21 7.5 39t21 31.5t31 21t38.5 7.5t39 -7.5t31.5 -21t21 -31.5t7.5 -39q0 -41 -28.5 -69.5t-70.5 -28.5t-70 28.5t-28 69.5zM812 1245q0 42 28 70.5t69 28.5
q21 0 39 -7.5t31.5 -21t21 -31.5t7.5 -39t-7.5 -38.5t-21 -31t-31.5 -21t-39 -7.5q-41 0 -69 28t-28 70zM482 1245q0 42 28 70.5t69 28.5q21 0 39 -7.5t31.5 -21t21 -31.5t7.5 -39t-7.5 -38.5t-21 -31t-31.5 -21t-39 -7.5q-41 0 -69 28t-28 70z" />
    <glyph glyph-name="sheenmedial" unicode="&#x634;" horiz-adv-x="1399" arabic-form="medial" 
d="M-10 151v180h168v624h180v-624h272v624h179v-624h272v624h179v-624h167v-180h-1417zM601 1511q0 21 7.5 39t21 31.5t31.5 21t38 7.5q42 0 70.5 -28.5t28.5 -70.5q0 -20 -7.5 -38t-21 -31.5t-31.5 -21t-39 -7.5q-41 0 -69.5 28.5t-28.5 69.5zM436 1245q0 42 28 70.5
t69 28.5q21 0 39 -7.5t31.5 -21t21 -31.5t7.5 -39t-7.5 -38.5t-21 -31t-31.5 -21t-39 -7.5q-41 0 -69 28t-28 70zM766 1245q0 42 28 70.5t70 28.5t70 -28.5t28 -70.5t-28 -70t-70 -28t-70 28t-28 70z" />
    <glyph glyph-name="sadisolated" unicode="&#x635;" horiz-adv-x="1776" arabic-form="isolated" 
d="M231 557v-359q0 -55 20 -95t53 -66.5t76 -39t89 -12.5q45 0 88 12.5t76 39t53 66.5t20 95q0 199 -1 395.5t-1 396.5h179l1 -206q11 37 43 73.5t77 65.5t98.5 47.5t107.5 18.5q102 -1 203 -2t203 -3q18 0 34.5 -7t28.5 -19t19 -28t7 -34v-645q0 -42 -23.5 -71t-65.5 -29
h-732q-12 -85 -52 -149.5t-97 -108t-126 -66t-140 -22.5q-79 0 -154.5 25.5t-134 75t-94 123t-35.5 169.5v359h180zM1205 810q-61 0 -118.5 -15.5t-102 -47.5t-72 -81t-29.5 -115v-220h642v476q-155 2 -235.5 2.5t-84.5 0.5z" />
    <glyph glyph-name="sadfinal" unicode="&#x635;" horiz-adv-x="1845" arabic-form="final" 
d="M882 151q-12 -85 -52 -149.5t-97 -108t-126 -66t-141 -22.5q-79 0 -154 25.5t-133.5 75t-94 123t-35.5 169.5v359h180v-359q0 -55 20 -95t53 -66.5t76 -39t88 -12.5q46 0 89 12.5t76 39t53 66.5t20 95q0 199 -1 395.5t-1 396.5h179l2 -216q11 37 43 75t76.5 69t98 51
t107.5 20q102 -1 203 -2t202 -3q19 0 35.5 -7t28.5 -19t19 -28t7 -34v-565h152v-180h-973zM1203 810q-62 0 -119 -15.5t-101.5 -47.5t-72 -81t-29.5 -115v-220h642v476q-155 2 -235.5 2.5t-84.5 0.5z" />
    <glyph glyph-name="sadinitial" unicode="&#x635;" horiz-adv-x="1245" arabic-form="initial" 
d="M345 784q10 37 42.5 73.5t78 65.5t99.5 47.5t108 18.5l202 -2t203 -3q18 0 34.5 -7t28.5 -19t19 -28t7 -34v-645q0 -42 -23.5 -71t-65.5 -29h-1087v180h175v659h179v-206zM667 810q-61 0 -118 -15.5t-101.5 -47.5t-72.5 -81t-30 -115v-220h642v476q-154 2 -234.5 2.5
t-85.5 0.5z" />
    <glyph glyph-name="sadmedial" unicode="&#x635;" horiz-adv-x="1305" arabic-form="medial" 
d="M-11 151v180h175v647h179l1 -199q11 37 43 74.5t77 67.5t99 49t108 19l202 -2t203 -3q18 0 34.5 -7t28.5 -19t19 -28t7 -34v-565h150v-180h-1326zM665 810q-61 0 -118 -15.5t-101.5 -47.5t-72.5 -81t-30 -115v-220h642v476q-154 2 -234.5 2.5t-85.5 0.5z" />
    <glyph glyph-name="dadisolated" unicode="&#x636;" horiz-adv-x="1776" arabic-form="isolated" 
d="M231 557v-359q0 -55 20 -95t53 -66.5t76 -39t89 -12.5q45 0 88 12.5t76 39t53 66.5t20 95q0 199 -1 395.5t-1 396.5h179l1 -206q11 37 43 73.5t77 65.5t98.5 47.5t107.5 18.5q102 -1 203 -2t203 -3q18 0 34.5 -7t28.5 -19t19 -28t7 -34v-645q0 -42 -23.5 -71t-65.5 -29
h-732q-12 -85 -52 -149.5t-97 -108t-126 -66t-140 -22.5q-79 0 -154.5 25.5t-134 75t-94 123t-35.5 169.5v359h180zM1205 810q-61 0 -118.5 -15.5t-102 -47.5t-72 -81t-29.5 -115v-220h642v476q-155 2 -235.5 2.5t-84.5 0.5zM1112 1227q0 21 7.5 39t20.5 31.5t31 21t38 7.5
q42 0 70.5 -28.5t28.5 -70.5q0 -20 -7.5 -38t-21 -31t-31.5 -20.5t-39 -7.5q-41 0 -69 28t-28 69z" />
    <glyph glyph-name="dadfinal" unicode="&#x636;" horiz-adv-x="1845" arabic-form="final" 
d="M882 151q-12 -85 -52 -149.5t-97 -108t-126 -66t-141 -22.5q-79 0 -154 25.5t-133.5 75t-94 123t-35.5 169.5v359h180v-359q0 -55 20 -95t53 -66.5t76 -39t88 -12.5q46 0 89 12.5t76 39t53 66.5t20 95q0 199 -1 395.5t-1 396.5h179l2 -216q11 37 43 75t76.5 69t98 51
t107.5 20q102 -1 203 -2t202 -3q19 0 35.5 -7t28.5 -19t19 -28t7 -34v-565h152v-180h-973zM1203 810q-62 0 -119 -15.5t-101.5 -47.5t-72 -81t-29.5 -115v-220h642v476q-155 2 -235.5 2.5t-84.5 0.5zM1109 1227q0 21 7.5 39t21 31.5t31.5 21t38 7.5q42 0 70.5 -28.5
t28.5 -70.5q0 -20 -7.5 -38t-21 -31t-31.5 -20.5t-39 -7.5q-41 0 -69.5 28t-28.5 69z" />
    <glyph glyph-name="dadinitial" unicode="&#x636;" horiz-adv-x="1245" arabic-form="initial" 
d="M345 784q10 37 42.5 73.5t78 65.5t99.5 47.5t108 18.5l202 -2t203 -3q18 0 34.5 -7t28.5 -19t19 -28t7 -34v-645q0 -42 -23.5 -71t-65.5 -29h-1087v180h175v659h179v-206zM667 810q-61 0 -118 -15.5t-101.5 -47.5t-72.5 -81t-30 -115v-220h642v476q-154 2 -234.5 2.5
t-85.5 0.5zM560 1245q0 42 28.5 70.5t69.5 28.5q21 0 39 -7.5t31.5 -21t21 -31.5t7.5 -39t-7.5 -38.5t-21 -31t-31.5 -21t-39 -7.5q-41 0 -69.5 28t-28.5 70z" />
    <glyph glyph-name="dadmedial" unicode="&#x636;" horiz-adv-x="1305" arabic-form="medial" 
d="M-11 151v180h175v647h179l1 -199q11 37 43 74.5t77 67.5t99 49t108 19l202 -2t203 -3q18 0 34.5 -7t28.5 -19t19 -28t7 -34v-565h150v-180h-1326zM665 810q-61 0 -118 -15.5t-101.5 -47.5t-72.5 -81t-30 -115v-220h642v476q-154 2 -234.5 2.5t-85.5 0.5zM558 1245
q0 42 28.5 70.5t69.5 28.5q21 0 39 -7.5t31.5 -21t21 -31.5t7.5 -39t-7.5 -38.5t-21 -31t-31.5 -21t-39 -7.5q-41 0 -69.5 28t-28.5 70z" />
    <glyph glyph-name="tahisolated" unicode="&#x637;" horiz-adv-x="1260" arabic-form="isolated" 
d="M362 769q10 37 42 76t77 71t98.5 52.5t107.5 20.5l202 -2t203 -3q18 0 34.5 -7t28.5 -19t19 -28t7 -34v-645q0 -42 -23.5 -71t-65.5 -29h-1017v180h106v1022h179zM681 810q-61 0 -118 -15.5t-101.5 -47.5t-72 -81t-29.5 -115v-220h641v476q-154 2 -234.5 2.5t-85.5 0.5z
" />
    <glyph glyph-name="tahfinal" unicode="&#x637;" horiz-adv-x="1335" arabic-form="final" 
d="M93 151v180h100v1022h179v-594q11 37 43 77.5t77 74.5t99 56t108 22q102 -1 203 -2t203 -3q18 0 34.5 -7t28.5 -19t19 -28t7 -34v-565h149v-180h-1250zM694 810q-61 0 -118.5 -15.5t-102 -47.5t-72 -81t-29.5 -115v-220h642v476q-154 2 -235 2.5t-85 0.5z" />
    <glyph glyph-name="tahinitial" unicode="&#x637;" horiz-adv-x="1245" arabic-form="initial" 
d="M345 769q10 37 42.5 76t78 71t99.5 52.5t108 20.5l202 -2t203 -3q18 0 34.5 -7t28.5 -19t19 -28t7 -34v-645q0 -42 -23.5 -71t-65.5 -29h-1087v180h175v1022h179v-584zM667 810q-61 0 -118 -15.5t-101.5 -47.5t-72.5 -81t-30 -115v-220h642v476q-154 2 -234.5 2.5
t-85.5 0.5z" />
    <glyph glyph-name="tahmedial" unicode="&#x637;" horiz-adv-x="1305" arabic-form="medial" 
d="M-11 151v180h175v1022h179l-1 -584q10 37 42.5 76t78.5 71t100 52.5t108 20.5l202 -2t203 -3q18 0 34.5 -7t28.5 -19t19 -28t7 -34v-565h146v-180h-1322zM665 810q-61 0 -118 -15.5t-101.5 -47.5t-72.5 -81t-30 -115v-220h642v476q-154 2 -234.5 2.5t-85.5 0.5z" />
    <glyph glyph-name="zahisolated" unicode="&#x638;" horiz-adv-x="1260" arabic-form="isolated" 
d="M362 769q10 37 42 76t77 71t98.5 52.5t107.5 20.5l202 -2t203 -3q18 0 34.5 -7t28.5 -19t19 -28t7 -34v-645q0 -42 -23.5 -71t-65.5 -29h-1017v180h106v1022h179zM681 810q-61 0 -118 -15.5t-101.5 -47.5t-72 -81t-29.5 -115v-220h641v476q-154 2 -234.5 2.5t-85.5 0.5z
M579 1245q0 42 28 70.5t69 28.5q21 0 39 -7.5t31.5 -21t21 -31.5t7.5 -39t-7.5 -38.5t-21 -31t-31.5 -21t-39 -7.5q-41 0 -69 28t-28 70z" />
    <glyph glyph-name="zahfinal" unicode="&#x638;" horiz-adv-x="1335" arabic-form="final" 
d="M93 151v180h100v1022h179v-594q11 37 43 77.5t77 74.5t99 56t108 22q102 -1 203 -2t203 -3q18 0 34.5 -7t28.5 -19t19 -28t7 -34v-565h149v-180h-1250zM694 810q-61 0 -118.5 -15.5t-102 -47.5t-72 -81t-29.5 -115v-220h642v476q-154 2 -235 2.5t-85 0.5zM576 1245
q0 42 28 70.5t70 28.5t70.5 -28.5t28.5 -70.5t-28.5 -70t-70.5 -28t-70 28t-28 70z" />
    <glyph glyph-name="zahinitial" unicode="&#x638;" horiz-adv-x="1245" arabic-form="initial" 
d="M345 769q10 37 42.5 76t78 71t99.5 52.5t108 20.5l202 -2t203 -3q18 0 34.5 -7t28.5 -19t19 -28t7 -34v-645q0 -42 -23.5 -71t-65.5 -29h-1087v180h175v1022h179v-584zM667 810q-61 0 -118 -15.5t-101.5 -47.5t-72.5 -81t-30 -115v-220h642v476q-154 2 -234.5 2.5
t-85.5 0.5zM580 1245q0 42 28 70.5t70 28.5t70.5 -28.5t28.5 -70.5t-28.5 -70t-70.5 -28t-70 28t-28 70z" />
    <glyph glyph-name="zahmedial" unicode="&#x638;" horiz-adv-x="1305" arabic-form="medial" 
d="M-11 151v180h175v1022h179l-1 -584q10 37 42.5 76t78.5 71t100 52.5t108 20.5l202 -2t203 -3q18 0 34.5 -7t28.5 -19t19 -28t7 -34v-565h146v-180h-1322zM665 810q-61 0 -118 -15.5t-101.5 -47.5t-72.5 -81t-30 -115v-220h642v476q-154 2 -234.5 2.5t-85.5 0.5zM578 1245
q0 42 28 70.5t70 28.5t70 -28.5t28 -70.5t-28 -70t-70 -28t-70 28t-28 70z" />
    <glyph glyph-name="ainisolated" unicode="&#x639;" horiz-adv-x="1131" arabic-form="isolated" 
d="M543 151q-75 -3 -130.5 -24t-92 -53t-55 -73.5t-18.5 -85.5q0 -55 26 -109.5t86 -98.5q-29 -42 -51 -75.5t-49 -73.5q-48 35 -83.5 77t-59.5 87.5t-36 94t-12 96.5q0 57 17.5 112t52 105t86 92t119.5 72q-45 66 -66 136t-21 139q0 80 25 155.5t74 134.5t121 94.5
t167 35.5h356v-180h-356q-54 0 -93 -21t-64.5 -55t-38 -77t-12.5 -87t12.5 -87t38 -76.5t64.5 -54t93 -20.5h386v-180h-486z" />
    <glyph glyph-name="ainfinal" unicode="&#x639;" horiz-adv-x="1141" arabic-form="final" 
d="M535 151q-77 -4 -133 -25t-92 -54t-53.5 -74t-17.5 -84q0 -55 28 -109t84 -97q-26 -38 -51.5 -76.5t-49.5 -73.5q-95 70 -143 165t-48 192q0 63 22.5 125t67 115.5t110 95t151.5 64.5l-151 231q-27 42 -39 83.5t-12 81.5q0 56 22.5 106.5t63 88.5t97 60.5t123.5 22.5h229
q68 0 125 -22t97.5 -60t63 -88t22.5 -106q0 -41 -13 -83t-40 -84l-139 -215h292v-180h-616zM612 331h33l204 313q22 35 22 69q0 44 -34.5 70.5t-93.5 26.5h-230q-60 -4 -93.5 -29.5t-33.5 -67.5q0 -35 23 -69z" />
    <glyph glyph-name="aininitial" unicode="&#x639;" horiz-adv-x="1061" arabic-form="initial" 
d="M232 331q-31 63 -45.5 123t-14.5 115q0 80 25 155.5t73.5 134.5t121 94.5t167.5 35.5h355v-180h-355q-54 0 -93 -21t-64.5 -55t-38 -77t-12.5 -87t12 -87t37.5 -76.5t65 -54t93.5 -20.5h386v-180h-954v180h241z" />
    <glyph glyph-name="ainmedial" unicode="&#x639;" horiz-adv-x="1066" arabic-form="medial" 
d="M-10 331h312l-140 215q-29 45 -42 87t-13 83q0 52 22 101.5t62.5 87.5t97.5 61t128 23h228q63 0 119.5 -20.5t99 -57t67.5 -87.5t25 -112q0 -80 -56 -166l-139 -215h310v-180h-1081v180zM515 331h32l204 313q25 38 25 72q0 23 -12 40.5t-30.5 29.5t-42 18t-46.5 6h-228
q-26 0 -49.5 -7.5t-41.5 -20t-28.5 -30t-10.5 -36.5q0 -35 24 -72z" />
    <glyph glyph-name="ghainisolated" unicode="&#x63a;" horiz-adv-x="1131" arabic-form="isolated" 
d="M543 151q-75 -3 -130.5 -24t-92 -53t-55 -73.5t-18.5 -85.5q0 -55 26 -109.5t86 -98.5q-29 -42 -51 -75.5t-49 -73.5q-48 35 -83.5 77t-59.5 87.5t-36 94t-12 96.5q0 57 17.5 112t52 105t86 92t119.5 72q-45 66 -66 136t-21 139q0 80 25 155.5t74 134.5t121 94.5
t167 35.5h356v-180h-356q-54 0 -93 -21t-64.5 -55t-38 -77t-12.5 -87t12.5 -87t38 -76.5t64.5 -54t93 -20.5h386v-180h-486zM581 1245q0 42 28 70.5t70 28.5t70 -28.5t28 -70.5t-28 -70t-70 -28t-70 28t-28 70z" />
    <glyph glyph-name="ghainfinal" unicode="&#x63a;" horiz-adv-x="1141" arabic-form="final" 
d="M535 151q-77 -4 -133 -25t-92 -54t-53.5 -74t-17.5 -84q0 -55 28 -109t84 -97q-26 -38 -51.5 -76.5t-49.5 -73.5q-95 70 -143 165t-48 192q0 63 22.5 125t67 115.5t110 95t151.5 64.5l-151 231q-27 42 -39 83.5t-12 81.5q0 56 22.5 106.5t63 88.5t97 60.5t123.5 22.5h229
q68 0 125 -22t97.5 -60t63 -88t22.5 -106q0 -41 -13 -83t-40 -84l-139 -215h292v-180h-616zM612 331h33l204 313q22 35 22 69q0 44 -34.5 70.5t-93.5 26.5h-230q-60 -4 -93.5 -29.5t-33.5 -67.5q0 -35 23 -69zM512 1243q0 42 28.5 70t69.5 28q21 0 39 -7.5t31.5 -21t21 -31
t7.5 -38.5t-7.5 -38.5t-21 -31t-31.5 -21t-39 -7.5q-41 0 -69.5 28t-28.5 70z" />
    <glyph glyph-name="ghaininitial" unicode="&#x63a;" horiz-adv-x="1061" arabic-form="initial" 
d="M232 331q-31 63 -45.5 123t-14.5 115q0 80 25 155.5t73.5 134.5t121 94.5t167.5 35.5h355v-180h-355q-54 0 -93 -21t-64.5 -55t-38 -77t-12.5 -87t12 -87t37.5 -76.5t65 -54t93.5 -20.5h386v-180h-954v180h241zM399 1238q0 42 28 70t70 28t70.5 -28t28.5 -70t-28.5 -70
t-70.5 -28t-70 28t-28 70z" />
    <glyph glyph-name="ghainmedial" unicode="&#x63a;" horiz-adv-x="1066" arabic-form="medial" 
d="M-10 331h312l-140 215q-29 45 -42 87t-13 83q0 52 22 101.5t62.5 87.5t97.5 61t128 23h228q63 0 119.5 -20.5t99 -57t67.5 -87.5t25 -112q0 -80 -56 -166l-139 -215h310v-180h-1081v180zM515 331h32l204 313q25 38 25 72q0 23 -12 40.5t-30.5 29.5t-42 18t-46.5 6h-228
q-26 0 -49.5 -7.5t-41.5 -20t-28.5 -30t-10.5 -36.5q0 -35 24 -72zM428 1243q0 42 28 70t70 28t70.5 -28t28.5 -70t-28.5 -70t-70.5 -28t-70 28t-28 70z" />
    <glyph glyph-name="fehisolated" unicode="&#x641;" horiz-adv-x="1419" arabic-form="isolated" 
d="M624 331q-31 63 -46 123t-15 115q0 80 25 155.5t74 134.5t121 94.5t167 35.5h271q25 0 47 -10t38 -27t25 -39t9 -47l1 -625q0 -38 -26 -64t-63 -26h-802q-111 0 -187.5 33t-124.5 87t-69 123t-21 141q0 77 18.5 150.5t44.5 127.5q44 -24 79.5 -42.5t78.5 -40.5
q-18 -39 -29.5 -91t-11.5 -107q0 -41 8.5 -77t32 -63.5t65.5 -44t109 -17.5q3 1 7 1h174zM761 465q10 -28 27 -52.5t40.5 -42.5t53.5 -28.5t68 -10.5h211v478h-211q-54 0 -93 -21t-64.5 -55t-38 -77t-12.5 -87q0 -26 4 -52.5t15 -51.5zM926 1245q0 42 28.5 70.5t69.5 28.5
q21 0 39 -7.5t31.5 -21t21 -31.5t7.5 -39t-7.5 -38.5t-21 -31t-31.5 -21t-39 -7.5q-41 0 -69.5 28t-28.5 70z" />
    <glyph glyph-name="fehfinal" unicode="&#x641;" horiz-adv-x="1483" arabic-form="final" 
d="M448 151q-111 0 -187.5 33t-124.5 87t-69 123t-21 141q0 77 18.5 150.5t44.5 127.5q22 -12 41.5 -22.5t38 -20t37.5 -19.5t41 -21q-18 -39 -29.5 -91t-11.5 -107q0 -41 8.5 -77t32 -63.5t65.5 -44t109 -17.5q3 1 7 1h174q-31 63 -46 123t-15 115q0 80 25 155.5t74 134.5
t121 94.5t167 35.5h271q25 0 46.5 -10t37.5 -27t25.5 -39t9.5 -47v-535h155v-180h-1045zM759 465q10 -28 26.5 -52.5t40 -42.5t54 -28.5t68.5 -10.5h211v478h-211q-54 0 -93 -21t-64.5 -55t-38 -77t-12.5 -87q0 -26 4 -52.5t15 -51.5zM924 1245q0 42 28.5 70.5t69.5 28.5
q21 0 39 -7.5t31.5 -21t21 -31.5t7.5 -39t-7.5 -38.5t-21 -31t-31.5 -21t-39 -7.5q-41 0 -69.5 28t-28.5 70z" />
    <glyph glyph-name="fehinitial" unicode="&#x641;" horiz-adv-x="1027" arabic-form="initial" 
d="M-3 151v180h230q-31 63 -45.5 123t-14.5 115q0 80 25 155.5t73.5 134.5t120.5 94.5t167 35.5h271q25 0 47 -10t38 -27t25 -39t9 -47l1 -625q0 -38 -26 -64t-63 -26h-858zM364 465q10 -28 27 -52.5t40.5 -42.5t54 -28.5t67.5 -10.5h211v478h-211q-54 0 -93 -21t-64.5 -55
t-37.5 -77t-12 -87q0 -26 4 -52.5t14 -51.5zM512 1245q0 42 28 70.5t70 28.5t70.5 -28.5t28.5 -70.5t-28.5 -70t-70.5 -28t-70 28t-28 70z" />
    <glyph glyph-name="fehmedial" unicode="&#x641;" horiz-adv-x="1066" arabic-form="medial" 
d="M-10 151v180h210q-31 63 -46 123t-15 115q0 80 25 155.5t74 134.5t121 94.5t167 35.5h270q25 0 47 -10t38 -27t25.5 -39t9.5 -47v-535h153v-180h-1079zM337 465q10 -28 26.5 -52.5t40 -42.5t54 -28.5t68.5 -10.5h211v478h-211q-54 0 -93 -21t-64.5 -55t-38 -77t-12.5 -87
q0 -26 4 -52.5t15 -51.5zM474 1245q0 42 28.5 70.5t69.5 28.5q21 0 39 -7.5t31.5 -21t21 -31.5t7.5 -39t-7.5 -38.5t-21 -31t-31.5 -21t-39 -7.5q-41 0 -69.5 28t-28.5 70z" />
    <glyph glyph-name="qafisolated" unicode="&#x642;" horiz-adv-x="1419" arabic-form="isolated" 
d="M624 331q-31 63 -46 123t-15 115q0 80 25 155.5t74 134.5t121 94.5t167 35.5h271q25 0 47 -10t38 -27t25 -39t9 -47l1 -625q0 -38 -26 -64t-63 -26h-802q-111 0 -187.5 33t-124.5 87t-69 123t-21 141q0 77 18.5 150.5t44.5 127.5q44 -24 79.5 -42.5t78.5 -40.5
q-18 -39 -29.5 -91t-11.5 -107q0 -41 8.5 -77t32 -63.5t65.5 -44t109 -17.5q3 1 7 1h174zM761 465q10 -28 27 -52.5t40.5 -42.5t53.5 -28.5t68 -10.5h211v478h-211q-54 0 -93 -21t-64.5 -55t-38 -77t-12.5 -87q0 -26 4 -52.5t15 -51.5zM732 1245q0 42 28 70.5t70 28.5
t70.5 -28.5t28.5 -70.5t-28.5 -70t-70.5 -28t-70 28t-28 70zM1008 1245q0 42 28 70.5t69 28.5q21 0 39 -7.5t31.5 -21t21 -31.5t7.5 -39t-7.5 -38.5t-21 -31t-31.5 -21t-39 -7.5q-41 0 -69 28t-28 70z" />
    <glyph glyph-name="qaffinal" unicode="&#x642;" horiz-adv-x="1483" arabic-form="final" 
d="M448 151q-111 0 -187.5 33t-124.5 87t-69 123t-21 141q0 77 18.5 150.5t44.5 127.5q22 -12 41.5 -22.5t38 -20t37.5 -19.5t41 -21q-18 -39 -29.5 -91t-11.5 -107q0 -41 8.5 -77t32 -63.5t65.5 -44t109 -17.5q3 1 7 1h174q-31 63 -46 123t-15 115q0 80 25 155.5t74 134.5
t121 94.5t167 35.5h271q25 0 46.5 -10t37.5 -27t25.5 -39t9.5 -47v-535h155v-180h-1045zM759 465q10 -28 26.5 -52.5t40 -42.5t54 -28.5t68.5 -10.5h211v478h-211q-54 0 -93 -21t-64.5 -55t-38 -77t-12.5 -87q0 -26 4 -52.5t15 -51.5zM1006 1245q0 42 28 70.5t69 28.5
q21 0 39 -7.5t31.5 -21t21 -31.5t7.5 -39t-7.5 -38.5t-21 -31t-31.5 -21t-39 -7.5q-41 0 -69 28t-28 70zM730 1245q0 42 28 70.5t70 28.5t70 -28.5t28 -70.5t-28 -70t-70 -28t-70 28t-28 70z" />
    <glyph glyph-name="qafinitial" unicode="&#x642;" horiz-adv-x="1027" arabic-form="initial" 
d="M-3 151v180h230q-31 63 -45.5 123t-14.5 115q0 80 25 155.5t73.5 134.5t120.5 94.5t167 35.5h271q25 0 47 -10t38 -27t25 -39t9 -47l1 -625q0 -38 -26 -64t-63 -26h-858zM364 465q10 -28 27 -52.5t40.5 -42.5t54 -28.5t67.5 -10.5h211v478h-211q-54 0 -93 -21t-64.5 -55
t-37.5 -77t-12 -87q0 -26 4 -52.5t14 -51.5zM593 1245q0 42 28.5 70.5t69.5 28.5q21 0 39 -7.5t31.5 -21t21 -31.5t7.5 -39t-7.5 -38.5t-21 -31t-31.5 -21t-39 -7.5q-41 0 -69.5 28t-28.5 70zM318 1245q0 42 28 70.5t69 28.5q21 0 39 -7.5t31.5 -21t21 -31.5t7.5 -39
t-7.5 -38.5t-21 -31t-31.5 -21t-39 -7.5q-41 0 -69 28t-28 70z" />
    <glyph glyph-name="qafmedial" unicode="&#x642;" horiz-adv-x="1076" arabic-form="medial" 
d="M0 151v180h210q-31 63 -46 123t-15 115q0 80 25 155.5t74 134.5t121 94.5t167 35.5h270q25 0 47 -10t38 -27t25.5 -39t9.5 -47v-535h155v-180h-1081zM347 465q10 -28 26.5 -52.5t40 -42.5t54 -28.5t68.5 -10.5h211v478h-211q-54 0 -93 -21t-64.5 -55t-38 -77t-12.5 -87
q0 -26 4 -52.5t15 -51.5zM335 1245q0 42 28 70.5t70 28.5q21 0 39 -7.5t31.5 -21t21 -31.5t7.5 -39t-7.5 -38.5t-21 -31t-31.5 -21t-39 -7.5q-42 0 -70 28t-28 70zM611 1245q0 42 28 70.5t70 28.5t70 -28.5t28 -70.5t-28 -70t-70 -28t-70 28t-28 70z" />
    <glyph glyph-name="kafisolated" unicode="&#x643;" horiz-adv-x="1300" arabic-form="isolated" 
d="M1194 1353v-1112q0 -38 -26 -64t-64 -26h-636q-113 0 -189.5 33.5t-123.5 88t-67.5 123.5t-20.5 139q0 78 18 151t44 127q45 -24 80 -42.5t78 -40.5q-17 -39 -29 -91t-12 -107q0 -41 8.5 -77t32 -63.5t65 -44t106.5 -17.5l557 1v1022h179zM440 962q-8 17 -11 36t-3 39
q0 39 14.5 76.5t42.5 66.5t69.5 47t96.5 18h199v-132l-199 1q-48 0 -70 -24t-22 -53q0 -28 19.5 -50.5t63.5 -24.5h225v-132h-493v132h68z" />
    <glyph glyph-name="arabickaffinal" unicode="&#x643;" horiz-adv-x="1359" arabic-form="final" 
d="M466 151q-113 0 -189.5 33.5t-123.5 88t-67.5 123.5t-20.5 139q0 78 17.5 151t43.5 127q22 -12 41.5 -22.5t38.5 -20t38 -19.5t41 -21q-18 -39 -29.5 -91t-11.5 -107q0 -41 8.5 -77t32 -63.5t65 -44t106.5 -17.5l556 1v1022h179v-1022h183v-180h-908zM440 962
q-8 17 -11 36t-3 39q0 39 14.5 76.5t42.5 66.5t69.5 47t96.5 18h199v-132l-199 1q-48 0 -70 -24t-22 -53q0 -28 19.5 -50.5t63.5 -24.5h225v-132h-493v132h68z" />
    <glyph glyph-name="kafinitial" unicode="&#x643;" horiz-adv-x="1250" arabic-form="initial" 
d="M-3 331h998v128q0 64 -4 99t-19.5 52t-45.5 21t-82 4q-134 0 -267 1t-267 1q-38 0 -66 12t-46 31.5t-27 45.5t-9 56q0 60 31 121q52 106 137.5 186.5t189.5 135t220 82t229 27.5h15q-2 -50 -4 -91t-3 -89q-87 0 -178.5 -21t-176 -63.5t-156 -106t-117.5 -148.5h425
q78 0 138 -2.5t105 -12t75 -30t49 -56t27 -89t8 -130.5v-118q0 -32 -0.5 -65t-0.5 -71t-26 -64t-63 -26h-1089v180z" />
    <glyph glyph-name="kafmedial" unicode="&#x643;" horiz-adv-x="1329" arabic-form="medial" 
d="M-11 331h999v128q0 64 -4 99t-19.5 52t-45.5 21t-82 4q-134 0 -267 1t-267 1q-38 0 -66 12t-46 31.5t-27 45.5t-9 56q0 60 31 121q52 106 137.5 186.5t189.5 135t219.5 82t228.5 27.5h16q-2 -50 -4 -91t-3 -89q-87 0 -178.5 -21t-176.5 -63.5t-156 -106t-117 -148.5h425
q78 0 138 -2.5t105 -12t75 -30t49 -56t27 -89t8 -130.5v-164h170v-180h-1350v180z" />
    <glyph glyph-name="lamisolated" unicode="&#x644;" horiz-adv-x="1027" arabic-form="isolated" 
d="M268 557v-359q0 -55 20.5 -95t53.5 -66.5t76 -39t88 -12.5t88 12.5t76.5 39t53.5 66.5t20 95v1155h181v-1155q0 -96 -36 -169.5t-95 -123t-134.5 -75t-153.5 -25.5q-79 0 -154.5 25.5t-134 75t-94 123t-35.5 169.5v359h180z" />
    <glyph glyph-name="lamfinal" unicode="&#x644;" horiz-adv-x="1106" arabic-form="final" 
d="M919 151q-12 -85 -52 -149.5t-97 -108t-126 -66t-141 -22.5q-79 0 -154 25.5t-133.5 75t-94 123t-35.5 169.5v359h180v-359q0 -55 20 -95t53.5 -66.5t76 -39t87.5 -12.5q46 0 89 12.5t76 39t53 66.5t20 95v1155h181v-1022h188v-180h-191z" />
    <glyph glyph-name="laminitial" unicode="&#x644;" horiz-adv-x="476" arabic-form="initial" 
d="M-4 331h197v1022h179v-1103q1 -4 1 -9q0 -38 -26.5 -64t-63.5 -26h-287v180z" />
    <glyph glyph-name="lammedial" unicode="&#x644;" horiz-adv-x="561" arabic-form="medial" 
d="M0 151v180h204v1022h179v-1022h188v-180h-571z" />
    <glyph glyph-name="meemisolated" unicode="&#x645;" horiz-adv-x="1230" arabic-form="isolated" 
d="M371 603q1 67 32 137t83.5 126t123.5 90.5t151 32.5q78 -1 156.5 -2t156.5 -3q18 0 34.5 -7t28.5 -19t19 -28t7 -34v-655q0 -38 -26 -64t-63 -26h-624q-47 0 -85 -5t-65 -22.5t-41.5 -50.5t-14.5 -90v-334h-180v334q0 79 23 139t64.5 102t97.5 67t122 36v276zM551 330
h432v477q-75 1 -119.5 1.5t-67.5 1t-30 0.5h-7q-40 0 -77.5 -17t-66.5 -46t-46.5 -67.5t-17.5 -81.5v-268z" />
    <glyph glyph-name="meemfinal" unicode="&#x645;" horiz-adv-x="1309" arabic-form="final" 
d="M369 603q1 67 32 137t83.5 126t123.5 90.5t151 32.5q78 -1 156.5 -2t156.5 -3q18 0 34.5 -7t28.5 -19t19 -28t7 -34v-565h156v-180h-869q-47 0 -85 -5t-65 -22.5t-41.5 -50.5t-14.5 -90v-334h-181v334q0 79 23.5 139t64.5 102t97.5 67t122.5 36v276zM549 330l432 1v476
q-75 1 -119.5 1.5t-67.5 1t-30 0.5h-7q-40 0 -77.5 -17t-66.5 -46t-46.5 -67.5t-17.5 -81.5v-268z" />
    <glyph glyph-name="meeminitial" unicode="&#x645;" horiz-adv-x="1047" arabic-form="initial" 
d="M-6 331h173v272q0 68 30.5 138t83 126t124 90.5t152.5 31.5q78 -1 156.5 -2t156.5 -3q18 0 34.5 -7t28.5 -19t19 -28t7 -34v-645q0 -42 -23.5 -71t-65.5 -29h-876v180zM347 331h432v476q-27 0 -54.5 0.5t-52.5 1t-47 0.5h-34q-26 1 -31 1h-7q-39 0 -76 -18t-66 -46.5
t-46.5 -65.5t-17.5 -76v-273z" />
    <glyph glyph-name="meemmedial" unicode="&#x645;" horiz-adv-x="1106" arabic-form="medial" 
d="M-5 151v180h170v272q0 68 30.5 138t83 126t124 90.5t152.5 31.5q78 -1 156.5 -2t156.5 -3q18 0 34.5 -7t28.5 -19t19 -28t7 -34v-565h156v-180h-1118zM345 331h432v476q-27 0 -54.5 0.5t-52.5 1t-47 0.5h-34q-26 1 -31 1h-7q-39 0 -76 -18t-66 -46.5t-46.5 -65.5
t-17.5 -76v-273z" />
    <glyph glyph-name="noonisolated" unicode="&#x646;" horiz-adv-x="982" arabic-form="isolated" 
d="M253 557v-359q0 -55 20 -95t53.5 -66.5t76.5 -39t88 -12.5t88 12.5t76.5 39t53.5 66.5t20 95v743h181v-743q0 -96 -36 -169.5t-95 -123t-134.5 -75t-153.5 -25.5q-79 0 -154.5 25.5t-134 75t-94 123t-35.5 169.5v359h180zM368 1167q0 42 28 70t69 28q21 0 39 -7.5
t31.5 -21t21 -31t7.5 -38.5t-7.5 -38.5t-21 -31t-31.5 -21t-39 -7.5q-41 0 -69 28t-28 70z" />
    <glyph glyph-name="noonfinal" unicode="&#x646;" horiz-adv-x="1061" arabic-form="final" 
d="M904 151q-12 -85 -52 -149.5t-97 -108t-126 -66t-140 -22.5q-79 0 -154.5 25.5t-134 75t-94 123t-35.5 169.5v359h180v-359q0 -55 20 -95t53 -66.5t76 -39t89 -12.5q45 0 88 12.5t76 39t53 66.5t20 95v743h182v-610h156v-180h-160zM365 1167q0 42 28.5 70t69.5 28
q21 0 39 -7.5t31.5 -21t21 -31t7.5 -38.5t-7.5 -38.5t-21 -31t-31.5 -21t-39 -7.5q-41 0 -69.5 28t-28.5 70z" />
    <glyph glyph-name="nooninitial" unicode="&#x646;" horiz-adv-x="570" arabic-form="initial" 
d="M-7 331h289v624h179v-705q1 -4 1 -9q0 -38 -26 -64t-64 -26h-379v180zM273 1248q0 42 28 70.5t70 28.5t70.5 -28.5t28.5 -70.5t-28.5 -70t-70.5 -28t-70 28t-28 70z" />
    <glyph glyph-name="noonmedial" unicode="&#x646;" horiz-adv-x="563" arabic-form="medial" 
d="M203 331v624h179v-620h188v-181q-148 -1 -288 -1.5t-287 -1.5v180h208zM194 1248q0 42 28 70.5t69 28.5q21 0 39 -7.5t31.5 -21t21 -31.5t7.5 -39t-7.5 -38.5t-21 -31t-31.5 -21t-39 -7.5q-41 0 -69 28t-28 70z" />
    <glyph glyph-name="hehisolated" unicode="&#x647;" horiz-adv-x="962" arabic-form="isolated" 
d="M797 180q-75 -20 -156.5 -30.5t-164.5 -10.5q-43 0 -84.5 3t-83.5 8h1q-35 6 -75 12t-73.5 17.5t-55.5 32t-22 56.5v327q0 81 30.5 153t84 125.5t125 84.5t153.5 31h274q24 0 45.5 -9t38 -25.5t26 -38.5t9.5 -48l1 -600q0 -32 -20.5 -56.5t-51.5 -30.5zM476 319
q54 0 107 5t107 15v470l-214 1q-44 0 -83 -17.5t-68.5 -47t-46 -68.5t-16.5 -82l1 -254q36 -8 63 -12.5t50.5 -6.5t44.5 -2.5t45 -0.5h10z" />
    <glyph glyph-name="hehfinal" unicode="&#x647;" horiz-adv-x="1022" arabic-form="final" 
d="M1029 151h-265q-42 0 -66 29t-24 70l-2 559l-215 1q-44 0 -83 -17.5t-68.5 -46.5t-46 -68.5t-16.5 -82.5l1 -256q39 -5 67.5 -9.5t61.5 -4.5q34 0 79 6.5t117 21.5q4 -50 8 -90.5t8 -88.5q-71 -11 -132.5 -16t-117 -4t-106.5 8t-100 20q-29 6 -47 30t-18 56v327
q0 81 30.5 153t84 125.5t125 84.5t153.5 31h273q23 0 44.5 -9.5t37.5 -25t26 -36.5t11 -44l4 -543h176v-180z" />
    <glyph glyph-name="hehinitial" unicode="&#x647;" horiz-adv-x="1389" arabic-form="initial" 
d="M-11 151v180h172q-9 50 -12 93.5t-3 72.5q0 85 30.5 164.5t81 144t116 109t135.5 60.5q32 5 70 8t78 3q67 0 140.5 -12t144.5 -41.5t136.5 -79.5t117 -126t84.5 -181t40 -245q0 -34 -0.5 -74.5t-0.5 -75.5h-1330zM682 637q0 67 -28 110.5t-73 50.5q-43 6 -83 -12
t-73.5 -52.5t-58 -82t-36.5 -100.5q-3 -18 -3 -44q0 -30 7 -60t23.5 -55t42.5 -40.5t64 -16.5q40 5 79.5 32.5t70 69.5t49.5 94t19 106zM826 774q3 -12 9 -29.5t12 -37t10.5 -38t4.5 -31.5q0 -72 -25.5 -152.5t-73.5 -152.5h376q-6 101 -28.5 174t-57.5 124t-80 82.5
t-96 49.5z" />
    <glyph glyph-name="hehmedial" unicode="&#x647;" horiz-adv-x="1463" arabic-form="medial" 
d="M-13 151v180h190q-6 21 -12 43.5t-10.5 44.5t-7.5 42.5t-3 35.5q0 85 30.5 164.5t81 144t116 109t135.5 60.5q32 5 69.5 8t77.5 3q65 0 136 -11t140.5 -38.5t134 -74t116 -116.5t87 -166.5t46.5 -224.5v-22h37h42q22 0 43 -0.5t39 -1.5v-180h-1488zM328 552
q-2 -12 -3.5 -25.5t-1.5 -27.5q0 -31 7.5 -60t24 -51.5t42.5 -37t63 -15.5q40 5 79.5 32.5t71 69.5t50.5 94t19 106q-5 56 -33.5 94.5t-85.5 60.5q-31 11 -67 -5.5t-69 -51.5t-59 -83.5t-38 -99.5zM833 779q3 -11 7.5 -29.5t9 -39t7.5 -40t3 -32.5q0 -73 -25.5 -153.5
t-73.5 -152.5h375q-6 101 -28.5 174.5t-57 124.5t-79.5 82.5t-96 49.5z" />
    <glyph glyph-name="wawisolated" unicode="&#x648;" horiz-adv-x="962" arabic-form="isolated" 
d="M670 164q-24 -8 -76.5 -15t-118 -9.5t-135 1t-127 17.5t-94.5 40.5t-37 69.5v327q0 81 30.5 153t84 125.5t125 84.5t153.5 31h273q25 0 47 -9.5t38 -25.5t25.5 -38.5t9.5 -47.5q0 -88 3 -185.5t2 -197.5t-8.5 -199t-29 -189.5t-60 -169.5t-100.5 -139t-151.5 -97.5
t-212.5 -45.5v180q82 3 139.5 26.5t98 63.5t66.5 93t46 114zM475 319q54 0 108.5 5.5t109.5 16.5q4 55 4 116q0 62 -1.5 123t-3.5 119.5t-2 109.5l-215 1q-44 0 -83 -17.5t-68.5 -47t-46 -68.5t-16.5 -82l1 -254q36 -8 63 -12.5t50.5 -6.5t44.5 -2.5t45 -0.5h10z" />
    <glyph glyph-name="wawfinal" unicode="&#x648;" horiz-adv-x="1032" arabic-form="final" 
d="M848 151q-22 -103 -62 -194t-104.5 -159t-156 -109t-216.5 -44v180q82 3 140 29t99.5 69.5t69.5 102t50 126.5q-54 -6 -103 -9.5t-92 -3.5t-84.5 3t-83.5 8h1q-8 2 -18 3t-19 3q-33 5 -67 11.5t-61 18.5t-44 31t-17 51v327q0 81 30.5 153t84 125.5t125 84.5t153.5 31h273
q25 0 47 -9.5t38 -25.5t25.5 -38.5t9.5 -47.5q0 -38 1 -80.5t3 -87.5q2 -52 4 -106.5t2 -112.5q0 -62 -3 -125l-1 -25h165v-180h-189zM473 319q54 0 108.5 5.5t109.5 16.5q2 33 3 76t1 77q0 66 -2 135.5t-4 129.5v10q0 7 -0.5 14.5t-0.5 14.5v11l-215 1q-44 0 -83 -17.5
t-68.5 -46.5t-46 -68.5t-16.5 -82.5l1 -254q36 -8 63 -12.5t50 -6.5t44 -2.5t45 -0.5h11z" />
    <glyph glyph-name="alefmaksuraisolated" unicode="&#x649;" horiz-adv-x="1148" arabic-form="isolated" 
d="M275 464q-17 -40 -29 -92t-12 -106q0 -41 8.5 -77.5t32.5 -64t67.5 -43.5t113.5 -16h302q39 0 65 10t41.5 26.5t21.5 38.5t6 47q0 42 -13 70t-37 48t-59 34.5t-79 29.5q-54 19 -105.5 40t-91.5 54.5t-64 86t-24 133.5q0 95 34 162.5t89.5 110.5t126 63t142.5 20
q67 0 130.5 -14.5t115.5 -38.5q-23 -43 -44 -79.5t-44 -77.5q-33 14 -75 22.5t-86 8.5q-42 0 -80 -8.5t-67 -29.5t-46 -56t-17 -88q0 -29 15 -50.5t38.5 -38t52.5 -28t58 -21.5q34 -12 68.5 -25.5t67.5 -31.5t63 -42t53 -57q27 -44 42.5 -94.5t15.5 -101.5q0 -56 -19 -110
t-58 -97.5t-99 -70t-142 -26.5q-74 0 -148.5 1t-149.5 1q-113 0 -189.5 33.5t-124 87.5t-68 122.5t-20.5 140.5q0 77 18.5 150t44.5 127z" />
    <glyph glyph-name="alefmaksurafinal" unicode="&#x649;" horiz-adv-x="1493" arabic-form="final" 
d="M261 729q-17 -38 -29 -90.5t-12 -107.5q1 -41 9.5 -77.5t32 -64t66.5 -43.5t114 -16l293 1v317q0 164 88.5 252.5t252.5 88.5q48 -1 94.5 -2t94.5 -3q38 -1 62.5 -28t24.5 -64v-561h157v-180h-246q-38 0 -64 26t-26 64v567l-101 2q-46 0 -76.5 -8.5t-48.5 -27.5
t-25.5 -50t-7.5 -76l1 -397q0 -42 -24 -71t-67 -29h-382q-111 0 -188 33t-124 87t-68 123t-21 141q0 78 17.5 151t43.5 127z" />
    <glyph glyph-name="yehisolated" unicode="&#x64a;" horiz-adv-x="1148" arabic-form="isolated" 
d="M275 464q-17 -40 -29 -92t-12 -106q0 -41 8.5 -77.5t32.5 -64t67.5 -43.5t113.5 -16h302q39 0 65 10t41.5 26.5t21.5 38.5t6 47q0 42 -13 70t-37 48t-59 34.5t-79 29.5q-54 19 -105.5 40t-91.5 54.5t-64 86t-24 133.5q0 95 34 162.5t89.5 110.5t126 63t142.5 20
q67 0 130.5 -14.5t115.5 -38.5q-23 -43 -44 -79.5t-44 -77.5q-33 14 -75 22.5t-86 8.5q-42 0 -80 -8.5t-67 -29.5t-46 -56t-17 -88q0 -29 15 -50.5t38.5 -38t52.5 -28t58 -21.5q34 -12 68.5 -25.5t67.5 -31.5t63 -42t53 -57q27 -44 42.5 -94.5t15.5 -101.5q0 -56 -19 -110
t-58 -97.5t-99 -70t-142 -26.5q-74 0 -148.5 1t-149.5 1q-113 0 -189.5 33.5t-124 87.5t-68 122.5t-20.5 140.5q0 77 18.5 150t44.5 127zM319 -364q0 42 28 70.5t70 28.5t70.5 -28.5t28.5 -70.5t-28.5 -70t-70.5 -28t-70 28t-28 70zM595 -364q0 42 28 70.5t70 28.5t70 -28.5
t28 -70.5t-28 -70t-70 -28t-70 28t-28 70z" />
    <glyph glyph-name="yehfinal" unicode="&#x64a;" horiz-adv-x="1493" arabic-form="final" 
d="M261 729q-17 -38 -29 -90.5t-12 -107.5q1 -41 9.5 -77.5t32 -64t66.5 -43.5t114 -16l293 1v317q0 164 88.5 252.5t252.5 88.5q48 -1 94.5 -2t94.5 -3q38 -1 62.5 -28t24.5 -64v-561h157v-180h-246q-38 0 -64 26t-26 64v567l-101 2q-46 0 -76.5 -8.5t-48.5 -27.5
t-25.5 -50t-7.5 -76l1 -397q0 -42 -24 -71t-67 -29h-382q-111 0 -188 33t-124 87t-68 123t-21 141q0 78 17.5 151t43.5 127zM313 -130q0 21 7.5 39t21 31.5t31 21t38.5 7.5t39 -7.5t31.5 -21t21 -31.5t7.5 -39q0 -41 -28.5 -69t-70.5 -28t-70 28t-28 69zM589 -130
q0 21 7.5 39t21 31.5t31 21t38.5 7.5t38.5 -7.5t31 -21t21 -31.5t7.5 -39q0 -41 -28 -69t-70 -28t-70 28t-28 69z" />
    <glyph glyph-name="yehinitial" unicode="&#x64a;" horiz-adv-x="619" arabic-form="initial" 
d="M-10 331h341v624h179v-705q1 -4 1 -9q0 -19 -7 -35.5t-19.5 -28.5t-29 -19t-35.5 -7h-430v180zM-10 -150q0 42 28 70.5t70 28.5t70.5 -28.5t28.5 -70.5t-28.5 -70t-70.5 -28t-70 28t-28 70zM266 -150q0 42 28 70.5t70 28.5t70 -28.5t28 -70.5t-28 -70t-70 -28t-70 28
t-28 70z" />
    <glyph glyph-name="yehmedial" unicode="&#x64a;" horiz-adv-x="580" arabic-form="medial" 
d="M210 331v624h179v-624h188v-180h-575v180h208zM52 -150q0 42 28.5 70.5t69.5 28.5q21 0 39 -7.5t31.5 -21t21 -31.5t7.5 -39t-7.5 -38.5t-21 -31t-31.5 -21t-39 -7.5q-41 0 -69.5 28t-28.5 70zM328 -150q0 42 28 70.5t70 28.5t70.5 -28.5t28.5 -70.5t-28.5 -70t-70.5 -28
t-70 28t-28 70z" />
    <glyph glyph-name="space" unicode=" " horiz-adv-x="435" 
 />
    <glyph glyph-name="exclam" unicode="!" horiz-adv-x="585" 
d="M174 1291q2 18 15.5 30.5t33.5 12.5h135q18 0 32 -13t17 -30l-49 -675q0 -20 -14 -35t-35 -15h-38q-20 0 -34 15t-14 35zM408 259q0 -24 -9.5 -45t-25 -37t-37 -25.5t-45.5 -9.5t-44.5 9.5t-36.5 25.5t-25 37t-9 45t9 45.5t25 37t36.5 25t44.5 9.5t45.5 -9.5t37 -25
t25 -37t9.5 -45.5z" />
    <glyph glyph-name="quotedbl" unicode="&#x22;" horiz-adv-x="622" 
d="M496 1540q1 -60 3 -114t3.5 -106.5t3 -106t3.5 -113.5q-2 -20 -23 -32t-48 -17q-11 56 -20.5 106.5t-19.5 100t-19.5 100.5t-20.5 107q0 31 23 53t56 22h59zM245 1540q2 -60 3.5 -114t3 -106.5t3 -106t3.5 -113.5q0 -20 -21.5 -32t-48.5 -17q-11 56 -21 106.5t-19.5 100
t-19.5 100.5t-21 107q1 31 24 53t55 22h59z" />
    <glyph glyph-name="numbersign" unicode="#" horiz-adv-x="1370" 
d="M804 1418l-141 -395h223l142 395h143l-139 -395h262l-45 -127h-263l-81 -227h280l-44 -128h-281l-141 -394h-143l140 394h-224l-141 -394h-144l138 394h-268l46 128h269l80 227h-287l45 127h289l140 395h145zM843 896h-226l-81 -229h227z" />
    <glyph glyph-name="dollar" unicode="$" horiz-adv-x="1020" 
d="M464 -44v169q-409 30 -409 412v21h162v-15q0 -124 64.5 -195t182.5 -78v479q-382 64 -382 358q0 79 27 144t76.5 112t120 74.5t158.5 32.5v129h95v-129q184 -15 280.5 -104.5t98.5 -245.5h-164q-22 192 -215 204v-426q228 -49 321 -136q92 -86 92 -246
q0 -167 -106 -267.5t-307 -121.5v-171h-95zM559 263q117 11 179 71t62 162q0 90 -56.5 144.5t-184.5 84.5v-462zM464 913v412q-50 0 -90.5 -14.5t-69 -41t-44 -64.5t-15.5 -85q0 -88 52.5 -138.5t166.5 -68.5z" />
    <glyph glyph-name="percent" unicode="%" horiz-adv-x="829" 
d="M679 1413q-54 -182 -105 -351t-101 -336t-101 -336t-106 -350q-43 -23 -83.5 -45t-82.5 -44q54 181 105 350.5t101.5 337t101.5 336.5t105 350zM133 1258q22 0 42 -8.5t35 -23t23.5 -34.5t8.5 -43t-8.5 -43t-23.5 -35t-35 -23.5t-42 -8.5t-42 8.5t-35 23.5t-24 35t-9 43
t9 43t24 34.5t35 23t42 8.5zM654 302q22 0 42 -8.5t35 -23.5t24 -35t9 -42q0 -23 -9 -42.5t-24 -34.5t-35 -23.5t-42 -8.5q-23 0 -42.5 8.5t-34.5 23.5t-23.5 34.5t-8.5 42.5q0 22 8.5 42t23.5 35t34.5 23.5t42.5 8.5z" />
    <glyph glyph-name="ampersand" unicode="&#x26;" horiz-adv-x="1294" 
d="M418 945q-79 85 -116 160.5t-37 153.5q0 67 24.5 124t68.5 97.5t104 63.5t132 23q75 0 136 -20.5t104 -59t66 -92.5t23 -120q0 -110 -62 -198t-195 -167l257 -314q24 45 37.5 100.5t19.5 128.5h161q0 -103 -26.5 -192t-78.5 -170l258 -310h-230l-135 166
q-167 -199 -423 -199q-90 0 -165.5 29.5t-130 82.5t-85 126t-30.5 160q0 130 75 231q74 99 248 196zM510 832q-64 -37 -109.5 -72.5t-74 -71.5t-41.5 -75t-13 -84q0 -54 19.5 -100t53.5 -79t81 -51.5t103 -18.5q84 0 160.5 40.5t145.5 119.5zM575 1006q99 61 145 124.5
t46 136.5q0 36 -11.5 66t-33 51.5t-52 33.5t-67.5 12q-82 0 -128 -43.5t-46 -121.5q0 -57 34.5 -119t112.5 -140z" />
    <glyph glyph-name="quotesingle" unicode="'" horiz-adv-x="385" 
d="M245 1540q2 -60 3.5 -114t3 -106.5t3 -106t3.5 -113.5q0 -20 -21.5 -32t-48.5 -17q-11 56 -21 106.5t-19.5 100t-19.5 100.5t-21 107q1 31 24 53t55 22h59z" />
    <glyph glyph-name="parenleft" unicode="(" horiz-adv-x="533" 
d="M467 1589q-87 -183 -130 -386.5t-43 -413.5q0 -209 42.5 -411t130.5 -384h-100q-140 206 -208.5 401.5t-68.5 388.5q0 198 70 396t208 409h99z" />
    <glyph glyph-name="parenright" unicode=")" horiz-adv-x="533" 
d="M179 1589q138 -211 208 -409t70 -396q0 -193 -69 -388.5t-208 -401.5h-100q87 182 130 384t43 411q0 210 -43 413.5t-130 386.5h99z" />
    <glyph glyph-name="asterisk" unicode="*" horiz-adv-x="891" 
d="M444 976l-152 -219l-121 81l171 213l-247 68l44 138l239 -82v257h134v-257l236 82l48 -138l-251 -68l173 -211l-119 -88z" />
    <glyph glyph-name="plus" unicode="+" horiz-adv-x="1484" 
d="M804 1212v-470h459v-121h-459v-471h-124v471h-459v121h459v470h124z" />
    <glyph glyph-name="comma" unicode="," horiz-adv-x="488" 
d="M155 150v192h178v-208q0 -99 -46.5 -163t-131.5 -85v89q42 9 65 47t23 101v27h-88z" />
    <glyph glyph-name="hyphenminus" unicode="-" horiz-adv-x="884" 
d="M119 477l57 197h590l-57 -197h-590z" />
    <glyph glyph-name="period" unicode="." horiz-adv-x="497" 
d="M254 342q22 0 42 -8.5t35 -23t24 -34.5t9 -43t-9 -42.5t-24 -34.5t-35 -23.5t-42 -8.5q-23 0 -42.5 8.5t-34.5 23.5t-23.5 34.5t-8.5 42.5t8.5 43t23.5 34.5t34.5 23t42.5 8.5z" />
    <glyph glyph-name="slash" unicode="/" horiz-adv-x="658" 
d="M619 1413q-54 -182 -105.5 -351t-102 -336t-101.5 -336t-106 -350q-43 -23 -83.5 -45t-82.5 -44q55 181 106 350.5t101.5 337t102 336.5t105.5 350z" />
    <glyph glyph-name="zero" unicode="0" horiz-adv-x="1019" 
d="M66 717q0 150 31 271t88.5 206.5t139.5 131.5t184 46t183.5 -45.5t139.5 -130.5t89 -206.5t31 -272.5q0 -148 -30.5 -269t-88 -207t-139.5 -133t-185 -47t-185 46.5t-139.5 132t-88 207t-30.5 270.5zM314 717q0 -242 48.5 -356t146.5 -114t147 115.5t49 354.5
q0 238 -49 355t-147 117t-146.5 -115t-48.5 -357z" />
    <glyph glyph-name="one" unicode="1" horiz-adv-x="1019" 
d="M478 85v1031l-240 -166l-68 162l286 239h257v-1266h-235z" />
    <glyph glyph-name="two" unicode="2" horiz-adv-x="1019" 
d="M927 85h-827l10 189q43 47 98.5 100t113.5 109.5t114 116.5t99.5 120.5t70 121t26.5 118.5q0 54 -17.5 94t-48 66t-71 38.5t-85.5 12.5q-60 0 -123.5 -21t-118.5 -62l-75 169q94 61 188 89t197 28q92 0 167.5 -31.5t129 -84.5t83 -123t29.5 -147q0 -70 -25 -138
q-30 -81 -87.5 -159t-127.5 -149.5t-143 -134.5t-134 -114h557v-208z" />
    <glyph glyph-name="three" unicode="3" horiz-adv-x="1019" 
d="M435 61q-107 0 -187.5 18t-144.5 56l48 150q59 -29 113 -40t111 -11q67 0 118 15t85.5 40.5t51.5 59t17 69.5q0 41 -23 81.5t-68.5 73.5t-115 54t-162.5 23l-8 154q48 6 107.5 22.5t111.5 45t87.5 69.5t35.5 97q0 45 -18.5 77t-49 52.5t-71 30t-83.5 9.5q-48 0 -95 -10.5
t-87 -30.5l-60 151q51 26 127.5 41t160.5 15q45 0 88.5 -5t83 -15.5t73.5 -27t58 -39.5q52 -51 77 -106.5t25 -112.5q0 -90 -61 -170.5t-182 -134.5q279 -110 279 -344q0 -81 -30.5 -146.5t-87.5 -112.5t-139 -72.5t-185 -25.5z" />
    <glyph glyph-name="four" unicode="4" horiz-adv-x="1019" 
d="M587 85v296h-547v214q157 195 310 386t310 386h148v-771h126v-215h-126v-296h-221zM588 596v439l-357 -439h357z" />
    <glyph glyph-name="five" unicode="5" horiz-adv-x="1019" 
d="M197 260q41 -14 81.5 -20t82.5 -6q90 0 151.5 20t99.5 53.5t55 76.5t17 88q0 84 -40 129.5t-108 66.5t-157 24t-187 3l-2 656h652v-198h-453v-249q127 0 225.5 -28.5t166 -83.5t102.5 -135.5t35 -184.5q-2 -101 -43 -178t-109.5 -128.5t-157 -78t-184.5 -26.5
q-81 0 -148.5 10t-124.5 31z" />
    <glyph glyph-name="six" unicode="6" horiz-adv-x="1019" 
d="M95 520q0 114 37 232t105 229t163.5 209.5t213.5 173.5q7 -8 11 -13.5t8 -10.5t8 -10.5t10 -12.5v1q18 -23 35 -45.5t36 -45.5q-240 -157 -328 -364q66 27 140 27q73 0 144 -26.5t127.5 -78t91.5 -127.5t35 -175q0 -92 -31 -169.5t-86.5 -133t-132 -86.5t-168.5 -31
q-101 0 -179.5 33.5t-131.5 94.5t-80.5 144.5t-27.5 184.5zM539 265q46 0 82 19t60.5 47.5t37.5 62.5t13 65q0 51 -23.5 93t-61 72t-84.5 46.5t-93 16.5q-38 0 -75 -11t-69 -34q-13 -49 -13 -102q0 -54 15 -104t43.5 -88t71 -60.5t96.5 -22.5z" />
    <glyph glyph-name="seven" unicode="7" horiz-adv-x="1019" 
d="M255 131l388 1027h-552v193h795v-193l-429 -1104z" />
    <glyph glyph-name="eight" unicode="8" horiz-adv-x="1019" 
d="M509 1372q84 0 152 -30.5t116.5 -79.5t75 -111.5t26.5 -126.5q0 -39 -11 -77.5t-33.5 -73.5t-57.5 -65t-84 -52q125 -55 187.5 -138.5t62.5 -189.5q0 -83 -30.5 -150t-86.5 -118v1q-59 -48 -138 -74t-179 -26q-101 0 -180.5 26t-138.5 74v-1q-55 51 -85 119t-30 149
q0 53 16 100.5t45.5 88t69.5 72.5t88 53q-89 53 -131 131t-42 160q0 65 25.5 126t74.5 108.5t121.5 76t166.5 28.5zM502 628q-49 0 -86 -17.5t-61.5 -45.5t-37 -64t-12.5 -73t12 -71t36 -60t60.5 -41.5t84.5 -15.5q47 0 85.5 10t65.5 33.5t41.5 62.5t14.5 96q0 8 -2.5 25
t-10 38t-21.5 42.5t-36.5 39.5t-55 29.5t-77.5 11.5zM328 1020q0 -34 19 -67t47 -59t59 -42t54 -16q10 0 14 2q24 9 50.5 24.5t48.5 38t36.5 51t14.5 63.5q0 39 -16 69.5t-41.5 51.5t-57.5 32t-65 11q-32 0 -61 -10t-52 -29.5t-36.5 -49.5t-13.5 -70z" />
    <glyph glyph-name="nine" unicode="9" horiz-adv-x="1019" 
d="M932 908q0 -114 -37 -232t-105 -229.5t-164 -210t-214 -172.5q-13 16 -18.5 24t-17.5 23v-1q-19 23 -35.5 45t-36.5 45q121 79 202.5 170t125.5 194q-66 -27 -139 -27t-144 26.5t-127.5 78t-91.5 127.5t-35 175q0 93 31 170t86 133t131.5 87t168.5 31q102 0 180 -33.5
t131.5 -94.5t81 -145t27.5 -184zM487 1163q-46 0 -82 -19t-60.5 -47.5t-37.5 -62.5t-13 -65q0 -51 23.5 -93t61 -72t84 -46.5t93.5 -16.5q38 0 75 11t69 34q13 49 13 102q0 54 -15 104t-43.5 88t-71 60.5t-96.5 22.5z" />
    <glyph glyph-name="colon" unicode=":" horiz-adv-x="505" 
d="M250 438q22 0 42 -8.5t35 -23t24 -34.5t9 -43t-9 -42.5t-24 -34.5t-35 -23.5t-42 -8.5q-23 0 -42.5 8.5t-34.5 23.5t-23.5 34.5t-8.5 42.5t8.5 43t23.5 34.5t34.5 23t42.5 8.5zM250 917q22 0 42 -8.5t35 -23t24 -34.5t9 -43t-9 -42.5t-24 -34.5t-35 -23.5t-42 -8.5
q-23 0 -42.5 8.5t-34.5 23.5t-23.5 34.5t-8.5 42.5t8.5 43t23.5 34.5t34.5 23t42.5 8.5z" />
    <glyph glyph-name="semicolon" unicode=";" horiz-adv-x="529" 
d="M175 150v192h180v-208q0 -97 -46.5 -161.5t-133.5 -86.5v89q42 9 65.5 48t23.5 100v27h-89zM175 889v193h180v-193h-180z" />
    <glyph glyph-name="less" unicode="&#x3c;" horiz-adv-x="1484" 
d="M1255 1025l-843 -344l843 -342v-134l-1025 421v112l1025 420v-133z" />
    <glyph glyph-name="equal" unicode="=" horiz-adv-x="1484" 
d="M1263 915v-122h-1042v122h1042zM1263 568v-120h-1042v120h1042z" />
    <glyph glyph-name="greater" unicode="&#x3e;" horiz-adv-x="1484" 
d="M1255 738v-112l-1025 -421v134l844 342l-844 344v133z" />
    <glyph glyph-name="question" unicode="?" horiz-adv-x="959" 
d="M382 519q0 7 -1 20.5t-1 19.5q0 51 8 96.5t26 86.5t46.5 80t68.5 78l72 73q56 57 81.5 109.5t24.5 119.5q0 47 -16.5 85.5t-45.5 66t-70 42.5t-90 15q-125 0 -187 -75t-68 -228h-166v25q0 102 29 181.5t83.5 134.5t134 83.5t181.5 28.5q89 0 162 -26t124.5 -73t80 -113
t28.5 -147q0 -90 -34 -165.5t-106 -141.5l-78 -75q-38 -36 -61.5 -65.5t-36.5 -58t-18 -59.5t-5 -70q0 -19 0.5 -29t1.5 -18zM377 150v204h186v-204h-186z" />
    <glyph glyph-name="at" unicode="@" horiz-adv-x="1782" 
d="M1117 893l50 100h115l-128 -501q-4 -14 -5 -27t-1 -24q0 -82 87 -82q42 0 89 23t92 66q70 66 109 161.5t39 203.5q0 112 -43.5 205t-123 159.5t-190 103.5t-243.5 37q-117 0 -214 -24t-184 -75q-167 -99 -258 -261q-91 -160 -91 -356q0 -154 54 -268t167 -200
q88 -67 206 -103t250 -36q148 0 286 42t255 123l47 -71q-129 -97 -273 -145.5t-304 -48.5q-189 0 -339.5 54t-256 149.5t-161.5 225t-56 280.5q0 145 45 272.5t132 233.5q128 156 305 235.5t397 79.5q163 0 296 -48t227.5 -130t145.5 -190t51 -228q0 -115 -36 -219.5
t-100.5 -184t-154.5 -126.5t-199 -47q-174 0 -174 136v17q-48 -78 -112.5 -114.5t-149.5 -36.5q-134 0 -203.5 73t-69.5 215q0 102 32 189.5t88 152.5t132 102t163 37q73 0 126 -32t84 -98zM1035 563l52 206q-15 76 -59.5 118t-113.5 42q-60 0 -111.5 -30.5t-89.5 -83.5
t-60 -124.5t-22 -152.5q0 -91 42 -141t120 -50q42 0 81 16.5t71 45.5t55.5 68.5t34.5 85.5z" />
    <glyph glyph-name="A" unicode="A" horiz-adv-x="1188" 
d="M517 1449h190l467 -1297h-196l-130 386h-499l-140 -386h-192zM606 1255l-200 -569h388z" />
    <glyph glyph-name="B" unicode="B" horiz-adv-x="1188" 
d="M132 1448h563q82 0 149 -23.5t114 -66t72.5 -103t25.5 -134.5q0 -95 -44 -163t-126 -109q65 -26 109.5 -57t71.5 -69.5t38.5 -85t11.5 -103.5q0 -87 -31.5 -157.5t-88.5 -121t-137.5 -78t-177.5 -27.5h-550v1298zM304 301h369q135 0 203 62t68 174q0 110 -75 164.5
t-224 54.5h-341v-455zM304 899h313q139 0 203 50t64 160q0 94 -62.5 141.5t-202.5 47.5h-315v-399z" />
    <glyph glyph-name="C" unicode="C" horiz-adv-x="1286" 
d="M1212 1044h-184q-9 36 -16.5 61t-17.5 44t-23.5 35.5t-33.5 36.5q-96 90 -264 90q-98 0 -175.5 -34.5t-131.5 -100.5t-82.5 -162t-28.5 -218q0 -116 27 -209.5t79 -159t127 -101t170 -35.5q152 0 248.5 88.5t121.5 253.5h184q-26 -173 -111 -291q-158 -215 -438 -215
q-139 0 -249.5 46t-188 131.5t-118.5 207.5t-41 274q0 364 205 544q45 39 90.5 66.5t91.5 45.5q90 34 215 34q115 0 211.5 -30t167 -86t113.5 -136t52 -180z" />
    <glyph glyph-name="D" unicode="D" horiz-adv-x="1286" 
d="M157 1449h438q164 0 247 -18t156 -73q226 -171 226 -543q0 -221 -84 -387t-229 -232q-27 -12 -57 -20t-66 -13.5t-79.5 -8t-97.5 -2.5h-454v1297zM337 1287v-972h262q182 0 265 58q173 119 173 445q0 163 -54.5 275t-157.5 160q-69 34 -232 34h-256z" />
    <glyph glyph-name="E" unicode="E" horiz-adv-x="1188" 
d="M157 1449h935v-162h-755v-382h698v-163h-698v-427h764v-163h-944v1297z" />
    <glyph glyph-name="F" unicode="F" horiz-adv-x="1188" 
d="M157 1449h935v-162h-755v-382h698v-163h-698v-590h-180v1297z" />
    <glyph glyph-name="G" unicode="G" horiz-adv-x="1386" 
d="M1219 1048h-184q-10 35 -19 59.5t-19.5 44t-23.5 36.5t-31 35q-89 88 -262 88q-102 0 -181 -35t-134 -101t-83.5 -161.5t-28.5 -217.5q0 -117 29 -210.5t83.5 -159t133.5 -100.5t180 -35q66 0 125.5 17.5t108 50.5t84.5 81t56 110q18 55 18 152h-405v148h567v-690h-114
l-43 158q-88 -102 -185 -147q-96 -44 -226 -44q-137 0 -247.5 47.5t-188.5 134.5t-120.5 209.5t-42.5 272.5q0 157 43.5 283.5t124.5 215.5t195 137.5t255 48.5q270 0 410 -158q26 -30 45.5 -58.5t32.5 -57.5t25 -67.5t22 -86.5z" />
    <glyph glyph-name="H" unicode="H" horiz-adv-x="1286" 
d="M157 1449h180v-531h615v531h182v-1297h-182v602h-615v-602h-180v1297z" />
    <glyph glyph-name="I" unicode="I" horiz-adv-x="483" 
d="M157 1449h180v-1297h-180v1297z" />
    <glyph glyph-name="J" unicode="J" horiz-adv-x="891" 
d="M27 585h178q0 -53 1 -88.5t5 -59.5t11.5 -41.5t21.5 -34.5q48 -70 148 -70q31 0 59.5 9t51.5 27t39 44t22 60q9 43 9 131v889h182v-889q0 -202 -63 -293q-48 -69 -127.5 -105.5t-176.5 -36.5q-68 0 -127 18t-105 51t-76.5 79.5t-40.5 103.5q-12 64 -12 206z" />
    <glyph glyph-name="K" unicode="K" horiz-adv-x="1188" 
d="M157 1451h180v-631l613 631h240l-524 -529l522 -770h-215l-429 650l-207 -198v-452h-180v1299z" />
    <glyph glyph-name="L" unicode="L" horiz-adv-x="990" 
d="M157 1449h180v-1134h656v-163h-836v1297z" />
    <glyph glyph-name="M" unicode="M" horiz-adv-x="1466" 
d="M116 152v1296h219l406 -1077l394 1077h219v-1296h-159v1039l-379 -1039h-146l-396 1039v-1039h-158z" />
    <glyph glyph-name="N" unicode="N" horiz-adv-x="1286" 
d="M157 1449h201l594 -1019v1019h182v-1297h-204l-593 1028v-1028h-180v1297z" />
    <glyph glyph-name="O" unicode="O" horiz-adv-x="1386" 
d="M66 788q0 158 44 285t126 216.5t199 138t264 48.5q142 0 257.5 -46.5t197.5 -132.5t126 -208.5t44 -273.5q0 -145 -42 -270.5t-123 -218.5t-199 -146t-270 -53q-143 0 -258 46.5t-196.5 133t-125.5 208.5t-44 273zM255 793q0 -116 30.5 -209t87.5 -158t139.5 -100
t186.5 -35q103 0 184 35t137.5 102t86.5 164t30 221q0 118 -30 210.5t-86.5 156.5t-138 97.5t-183.5 33.5q-107 0 -189.5 -34.5t-139 -101t-86 -163t-29.5 -219.5z" />
    <glyph glyph-name="P" unicode="P" horiz-adv-x="1122" 
d="M137 150v1298h472q58 0 100.5 -2.5t74.5 -8.5t57.5 -15.5t49.5 -23.5q78 -42 120 -126.5t42 -198.5q0 -69 -17.5 -130t-52 -108.5t-85.5 -80t-117 -45.5q-62 -12 -205 -12h-265v-547h-174zM311 854h293q77 0 129 11.5t84 38t46 68t14 101.5q0 57 -14.5 98t-45.5 67.5
t-80.5 38.5t-119.5 12h-306v-435z" />
    <glyph glyph-name="Q" unicode="Q" horiz-adv-x="1356" 
d="M1033 208q-78 -42 -162 -61.5t-178 -19.5q-148 0 -265 45.5t-198.5 132t-125 210.5t-43.5 281t43.5 281t125 210.5t198.5 132t265 45.5q147 0 263.5 -46t197.5 -132.5t124.5 -210.5t43.5 -280q0 -155 -42.5 -277t-130.5 -222l160 -128l-88 -108zM887 324l-146 116l89 107
l177 -138q63 64 95.5 164t32.5 227q0 121 -30 216.5t-87 162t-139 101.5t-186 35t-186.5 -35t-140 -101.5t-88 -162t-30.5 -216.5t30.5 -217t87.5 -162.5t139.5 -101.5t187.5 -35q55 0 103 9.5t91 30.5z" />
    <glyph glyph-name="R" unicode="R" horiz-adv-x="1286" 
d="M157 1449h540q62 0 106.5 -1.5t78 -6.5t60 -13.5t52.5 -22.5q169 -91 169 -313q0 -57 -10.5 -101.5t-33 -80t-57 -63.5t-82.5 -51q48 -17 79.5 -38t50 -54t25.5 -82t7 -121v-150q0 -105 50 -187l9 -12h-214q-16 51 -23 97t-7 88v162q0 170 -124 196q-44 9 -147 9h-349
v-552h-180v1297zM337 1287v-419h340q50 0 82 1t54 4.5t38.5 9.5t34.5 17q90 49 90 177q0 66 -27 114.5t-78 71.5q-51 24 -179 24h-355z" />
    <glyph glyph-name="S" unicode="S" horiz-adv-x="1188" 
d="M80 585h187v-37q0 -36 3 -61.5t10.5 -45.5t21 -36t33.5 -32q92 -82 274 -82q71 0 129.5 14.5t100.5 41.5t65 65t23 85q0 26 -7 53.5t-24 52.5t-46 47t-73 38l-400 100q-133 48 -190.5 126t-57.5 191q0 83 33 151.5t93.5 117t146 75.5t191.5 27q83 0 156 -16t131.5 -46.5
t100 -74.5t62.5 -99q10 -26 15.5 -60.5t5.5 -79.5l3 -43h-188q0 31 -2 52.5t-6 38t-10 30t-14 28.5q-17 24 -43 43.5t-59.5 33t-73 21t-81.5 7.5q-58 0 -107.5 -13.5t-86 -39t-57 -62t-20.5 -83.5q0 -31 5.5 -54t21 -41t42.5 -33t70 -30l415 -106q239 -86 239 -317
q0 -80 -28.5 -153t-90 -129t-158.5 -89.5t-233 -33.5q-259 0 -390.5 105.5t-131.5 313.5v39z" />
    <glyph glyph-name="T" unicode="T" horiz-adv-x="1088" 
d="M29 1449h1038v-162h-431v-1135h-180v1135h-427v162z" />
    <glyph glyph-name="U" unicode="U" horiz-adv-x="1286" 
d="M139 1451h182v-809q0 -43 2.5 -77t9.5 -61.5t17.5 -50t27.5 -43.5q40 -55 112.5 -87t157.5 -32q70 0 129 20.5t102 63.5t66.5 107.5t23.5 153.5v815h182v-816q0 -105 -20 -179q-22 -79 -67.5 -140.5t-109 -103.5t-143 -63.5t-168.5 -21.5q-116 0 -209.5 30.5t-159 92.5
t-100.5 154.5t-35 217.5v829z" />
    <glyph glyph-name="V" unicode="V" horiz-adv-x="1088" 
d="M456 150l-456 1298h180l369 -1087l358 1087h181l-450 -1298h-182z" />
    <glyph glyph-name="W" unicode="W" horiz-adv-x="1682" 
d="M14 1449h193l196 -775l48 -260q16 74 24.5 115.5t14 65.5t10 40t12.5 39l231 775h185l230 -775q9 -23 16.5 -55.5t17.5 -74.5l30 -130q11 67 22.5 133t27.5 127l204 775h194l-355 -1297h-181l-301 1052l-295 -1052h-189z" />
    <glyph glyph-name="X" unicode="X" horiz-adv-x="1078" 
d="M0 150l440 665l-417 633h214l305 -480l310 480h202l-416 -630l440 -668h-214l-330 525l-322 -525h-212z" />
    <glyph glyph-name="Y" unicode="Y" horiz-adv-x="1188" 
d="M2 1449h226l376 -615l370 615h216l-498 -786v-511h-184v511z" />
    <glyph glyph-name="Z" unicode="Z" horiz-adv-x="1088" 
d="M43 310l783 977h-726v162h951v-157l-787 -977h787v-163h-1008v158z" />
    <glyph glyph-name="bracketleft" unicode="[" horiz-adv-x="631" 
d="M216 -207v1639h347v-122h-191v-1395h191v-122h-347z" />
    <glyph glyph-name="backslash" unicode="\" horiz-adv-x="536" 
d="M428 -15l-430 1480h107l433 -1480h-110z" />
    <glyph glyph-name="bracketright" unicode="]" horiz-adv-x="631" 
d="M415 1432v-1639h-347v122h190v1395h-190v122h347z" />
    <glyph glyph-name="underscore" unicode="_" horiz-adv-x="891" 
d="M891 -146v-124h-891v124h891z" />
    <glyph glyph-name="grave" unicode="`" horiz-adv-x="891" 
d="M570 1209h-105l-248 303h175z" />
    <glyph glyph-name="a" unicode="a" horiz-adv-x="990" 
d="M119 806q0 79 26.5 139t76 100.5t119.5 60.5t158 20q90 0 158 -15.5t113.5 -51t68.5 -92.5t23 -140v-453q0 -98 58 -98l47 4v-125q-18 -6 -32 -9.5t-25.5 -6t-21.5 -3t-22 -0.5q-133 0 -152 144q-138 -153 -326 -153q-69 0 -126 19.5t-97.5 56.5t-62.5 89t-22 118
q0 179 158 253q108 50 371 80l95 13v46q0 52 -13.5 86t-39.5 54.5t-64 29t-88 8.5q-101 0 -155.5 -43t-54.5 -131h-170zM702 628q-33 -5 -60.5 -9t-55.5 -8.5t-59.5 -10.5t-72.5 -15q-54 -13 -92 -27.5t-62 -33.5t-34.5 -44.5t-10.5 -60.5q0 -69 44.5 -107t125.5 -38
q57 0 107.5 18t88 48t59.5 70t22 85v133z" />
    <glyph glyph-name="b" unicode="b" horiz-adv-x="1059" 
d="M123 150v1298h155v-485q108 161 306 161q93 0 169.5 -36t131 -102.5t84.5 -159.5t30 -207q0 -112 -29 -204t-83 -157t-130.5 -101t-170.5 -36q-102 0 -175 36t-133 112v-119h-155zM272 628q0 -176 72 -271t207 -95q65 0 117 24t89 69t56.5 109t19.5 144q0 181 -73 277.5
t-208 96.5q-280 0 -280 -354z" />
    <glyph glyph-name="c" unicode="c" horiz-adv-x="891" 
d="M729 490h167q-12 -95 -46 -164t-85.5 -113.5t-117.5 -66t-141 -21.5q-105 0 -187 33t-138.5 95t-85.5 152.5t-29 205.5q0 123 29.5 219t85.5 161.5t137 100t185 34.5q83 0 151 -24t118.5 -69.5t82 -111.5t41.5 -149h-167q-45 206 -226 206q-126 0 -194.5 -89.5
t-68.5 -252.5q0 -176 67.5 -269.5t197.5 -93.5q169 0 224 217z" />
    <glyph glyph-name="d" unicode="d" horiz-adv-x="990" 
d="M713 1005v446h164v-1298h-156v121q-36 -43 -67 -71.5t-63 -45t-67.5 -23.5t-79.5 -7q-87 0 -156.5 34.5t-119 98t-76 153t-26.5 200.5q0 114 28 208.5t79 162.5t122.5 106t158.5 38q39 0 72 -6t63 -20.5t60 -38t64 -58.5zM483 274q117 0 178.5 90.5t61.5 263.5
q0 169 -61.5 259.5t-178.5 90.5q-118 0 -180.5 -89.5t-62.5 -260.5q0 -173 62.5 -263.5t180.5 -90.5z" />
    <glyph glyph-name="e" unicode="e" horiz-adv-x="990" 
d="M927 574h-689q0 -147 69.5 -223.5t197.5 -76.5q194 0 238 191h171q-18 -80 -55 -142.5t-90 -106t-121 -66.5t-149 -23q-101 0 -181 34.5t-136 99.5t-86 157.5t-30 209.5q0 116 33 208t92 156t141 98t180 34q92 0 168.5 -29t131.5 -87.5t85.5 -148t30.5 -210.5zM763 722
q0 60 -19 107.5t-52.5 80.5t-80.5 50.5t-103 17.5q-228 0 -264 -256h519z" />
    <glyph glyph-name="f" unicode="f" horiz-adv-x="471" 
d="M153 150v807h-153v125h153v137q0 232 211 232q16 0 41.5 -3t73.5 -10v-140q-25 4 -42 6t-27 2q-27 0 -46 -6.5t-30.5 -23t-17 -45t-5.5 -71.5v-78h168v-125h-168v-807h-158z" />
    <glyph glyph-name="g" unicode="g" horiz-adv-x="990" 
d="M713 975v127h162v-806q0 -122 -9 -192q-22 -173 -124 -257.5t-277 -84.5q-169 0 -257.5 70t-105.5 221h163q10 -39 25 -66t38.5 -44.5t55.5 -25t77 -7.5q73 0 120.5 22t74.5 66t37.5 110.5t10.5 155.5q-30 -36 -60.5 -62t-62.5 -42.5t-68 -24.5t-78 -8q-87 0 -155.5 33
t-116 95.5t-72.5 151.5t-25 202q0 120 25.5 216t74 162.5t118 102.5t156.5 36q173 0 273 -151zM240 628q0 -80 16.5 -145t47.5 -111.5t75 -72t99 -25.5q54 0 97 25t73.5 71.5t46.5 111.5t16 146q0 79 -16.5 144t-47 110.5t-73.5 70.5t-96 25q-55 0 -99 -25t-75 -70.5
t-47.5 -110.5t-16.5 -144z" />
    <glyph glyph-name="h" unicode="h" horiz-adv-x="992" 
d="M116 1449h164v-449q65 66 132 96t154 30q75 0 133 -18t97 -59.5t59 -108.5t20 -164v-624h-164v586q0 65 -10 111t-31.5 74.5t-55.5 41.5t-83 13q-42 0 -81 -13t-71.5 -37t-55.5 -59t-33 -78q-10 -44 -10 -135v-504h-164v1297z" />
    <glyph glyph-name="i" unicode="i" horiz-adv-x="395" 
d="M116 1102h164v-950h-164v950zM116 1449h164v-185h-164v185z" />
    <glyph glyph-name="j" unicode="j" horiz-adv-x="395" 
d="M-36 -78q45 -12 66 -12q26 0 42.5 6.5t26.5 24t13.5 47.5t3.5 78v1036h164v-1061q0 -148 -54.5 -213.5t-164.5 -65.5h-56q-14 2 -24 4t-17 3v153zM116 1449h164v-185h-164v185z" />
    <glyph glyph-name="k" unicode="k" horiz-adv-x="891" 
d="M117 1449h165v-734l388 387h217l-365 -352l371 -598h-198l-283 484l-130 -122v-362h-165v1297z" />
    <glyph glyph-name="l" unicode="l" horiz-adv-x="395" 
d="M116 1458h164v-1306h-164v1306z" />
    <glyph glyph-name="m" unicode="m" horiz-adv-x="1529" 
d="M1283 150v588q0 73 -9 121.5t-30 77.5t-54.5 40.5t-81.5 11.5q-117 0 -181 -71.5t-64 -202.5v-565h-163v588q0 73 -9.5 121.5t-30.5 77t-54 40.5t-81 12q-57 0 -102.5 -19t-77 -54t-48.5 -86t-17 -115v-565h-161v955h153v-135q54 81 126.5 120.5t172.5 39.5
q90 0 152.5 -36t108.5 -114q62 77 136 113.5t171 36.5q121 0 199 -55.5t97 -162.5q9 -51 9 -161v-601h-161z" />
    <glyph glyph-name="n" unicode="n" horiz-adv-x="990" 
d="M116 1102h164v-124q73 84 138 116q64 32 155 32q62 0 116.5 -18.5t95.5 -53.5t64.5 -86.5t23.5 -117.5l2 -93v-605h-164v574q0 132 -32 179q-48 73 -155 73q-145 0 -211 -121q-30 -46 -31 -117l-2 -90v-498h-164v950z" />
    <glyph glyph-name="o" unicode="o" horiz-adv-x="990" 
d="M66 628q0 118 29.5 210.5t85 156.5t135.5 97.5t181 33.5q100 0 180 -33.5t136 -97.5t85.5 -156.5t29.5 -210.5q0 -117 -29 -209.5t-84.5 -157.5t-135.5 -99.5t-182 -34.5q-101 0 -180.5 34.5t-135.5 99t-85.5 157.5t-29.5 210zM240 628q0 -82 17 -147.5t50 -111.5
t80.5 -70.5t109.5 -24.5q124 0 190 93t66 266q0 81 -17 145.5t-50 108.5t-80.5 67.5t-108.5 23.5q-124 0 -190.5 -91t-66.5 -259z" />
    <glyph glyph-name="p" unicode="p" horiz-adv-x="1059" 
d="M223 -222h-152v1304h152v-126q55 81 128.5 118.5t173.5 37.5q93 0 169 -35t129 -99.5t82 -155.5t29 -203q0 -113 -29 -205t-82 -157t-129 -100.5t-169 -35.5q-103 0 -180 38.5t-122 113.5v-495zM772 629q0 79 -19.5 142.5t-56 107.5t-88.5 68t-116 24q-131 0 -203 -92.5
t-72 -261.5q0 -173 70 -265.5t199 -92.5q138 0 212 95.5t74 274.5z" />
    <glyph glyph-name="q" unicode="q" horiz-adv-x="1059" 
d="M782 273q-45 -75 -121.5 -113.5t-181.5 -38.5q-93 0 -168.5 35.5t-128.5 100.5t-82 157t-29 205q0 112 29 203t82 155.5t128.5 99.5t168.5 35q100 0 173 -37.5t130 -118.5v126h152v-1304h-152v495zM233 629q0 -179 74 -274.5t212 -95.5q129 0 198.5 92.5t69.5 265.5
q0 169 -71.5 261.5t-202.5 92.5q-64 0 -116 -23.5t-88.5 -67.5t-56 -107.5t-19.5 -143.5z" />
    <glyph glyph-name="r" unicode="r" horiz-adv-x="592" 
d="M117 1102h165v-158q50 100 110.5 141t137.5 41q9 0 20 -1t33 -6v-175l-52 5q-91 0 -154 -46.5t-83 -137.5q-10 -47 -10 -141v-472h-167v950z" />
    <glyph glyph-name="s" unicode="s" horiz-adv-x="891" 
d="M65 463h173q0 -28 1.5 -47.5t5 -34t11 -26t19.5 -23.5q57 -58 173 -58q93 0 149 37.5t56 100.5q0 30 -19.5 54t-73.5 48l-299 93q-165 75 -165 243q0 61 26 112t72.5 87.5t111.5 56.5t144 20q78 0 142 -19t110.5 -56.5t72 -94t25.5 -131.5h-167q0 44 -15.5 73.5t-42 47.5
t-61 26t-71.5 8t-69.5 -8.5t-57 -24t-39 -37t-14.5 -46.5q0 -78 82 -109l278 -86q51 -22 89 -44.5t63.5 -50t38.5 -61.5t13 -79q0 -66 -26.5 -122t-75.5 -97t-120 -64.5t-159 -23.5q-186 0 -283.5 85t-97.5 251z" />
    <glyph glyph-name="t" unicode="t" horiz-adv-x="525" 
d="M26 1102h125v233h163v-233h158v-138h-158v-576q0 -34 4.5 -56.5t16.5 -36t32 -19t51 -5.5l54 2v-139l-122 -7q-148 0 -183 107q-16 41 -16 166v564h-125v138z" />
    <glyph glyph-name="u" unicode="u" horiz-adv-x="990" 
d="M116 1102h164v-603q0 -68 11 -111.5t33.5 -68.5t57 -35t81.5 -10q40 0 78.5 13t70.5 38t55 61.5t33 83.5q11 53 11 149v483h164v-947h-152v146q-87 -174 -301 -174q-72 0 -129 18.5t-96 61t-60 111.5t-21 170v614z" />
    <glyph glyph-name="v" unicode="v" horiz-adv-x="857" 
d="M355 150l-353 955h172l267 -765l261 765h172l-349 -955h-170z" />
    <glyph glyph-name="w" unicode="w" horiz-adv-x="1286" 
d="M14 1102h180l139 -554l39 -186q6 31 10.5 54t8.5 43t8.5 41t10.5 48l144 554h182l141 -547q8 -28 15 -64l24 -120q4 24 5 35.5t4 26.5t10 41.5t22 80.5l146 547h172l-281 -950h-168l-183 731l-185 -731h-167z" />
    <glyph glyph-name="x" unicode="x" horiz-adv-x="869" 
d="M0 150l333 492l-317 463h188l235 -343l230 343h185l-321 -462l342 -493h-194l-250 369l-243 -369h-188z" />
    <glyph glyph-name="y" unicode="y" horiz-adv-x="891" 
d="M197 1102l255 -756l250 756h178l-383 -1057q-28 -84 -56.5 -139t-59.5 -88t-65 -46t-73 -13l-66 6q-23 0 -34.5 1.5t-17.5 4t-9.5 4.5t-10.5 3v153l18 -7q20 -8 41 -11t33 -3q31 0 52 8t39 31.5t35.5 67.5t40.5 116l-350 969h183z" />
    <glyph glyph-name="z" unicode="z" horiz-adv-x="891" 
d="M66 282l534 672h-491v148h705v-131l-536 -671h550v-148h-762v130z" />
    <glyph glyph-name="braceleft" unicode="{" horiz-adv-x="891" 
d="M753 1304h-35q-52 0 -86 -7.5t-54 -29.5t-28 -60.5t-8 -101.5v-210q0 -69 -9 -117.5t-29 -81t-54 -52.5t-83 -33q49 -12 82.5 -31.5t54 -51.5t29.5 -81t9 -119v-210q0 -62 8 -101t28 -61t54 -29.5t87 -7.5h34v-129h-37q-113 0 -177.5 16t-97 53t-41 96t-8.5 145v214
q0 64 -11 109t-35.5 73t-64.5 40.5t-97 12.5q-7 0 -19.5 -0.5t-18.5 -0.5v129q7 0 20 -1t19 -1q57 0 96 12.5t64 40.5t36 72.5t11 108.5v214q0 66 4.5 110t15 74t27 49t40.5 34q39 24 94.5 34.5t147.5 10.5h32v-131z" />
    <glyph glyph-name="bar" unicode="|" horiz-adv-x="891" 
d="M512 1512v-1782h-131v1782h131z" />
    <glyph glyph-name="braceright" unicode="}" horiz-adv-x="891" 
d="M500 1123v-214q0 -64 11 -108.5t36 -72.5t64 -40.5t96 -12.5q6 0 19 1t20 1v-129q-6 0 -19 0.5t-18 0.5q-58 0 -98 -12.5t-64.5 -40t-35.5 -72.5t-11 -110v-214q0 -65 -4.5 -109t-15 -74.5t-27 -50t-40.5 -34.5q-18 -11 -39.5 -19t-49.5 -13t-64 -7.5t-83 -2.5h-38v129
h34q53 0 87.5 8.5t54.5 30.5t28 61t8 101v208q0 71 9 119.5t29.5 80.5t53.5 51t82 32q-49 13 -82.5 32.5t-53.5 52t-29 80.5t-9 119v210q0 61 -8 100t-28.5 61t-55 30t-86.5 8h-34v131h32q112 0 177.5 -16.5t99 -53.5t43 -96.5t9.5 -145.5z" />
    <glyph glyph-name="asciitilde" unicode="~" horiz-adv-x="1484" 
d="M1331 684q-91 -63 -173.5 -92.5t-164.5 -29.5q-79 0 -223 50q-10 3 -17.5 5.5t-12.5 4.5l-13 5q-152 52 -237 52q-73 0 -152.5 -32t-182.5 -105v135q183 125 337 125q29 0 59 -3t65 -10.5t76.5 -21t93.5 -33.5q139 -50 208 -50q77 0 156.5 32.5t180.5 103.5v-136z" />
    <glyph glyph-name="delete" horiz-adv-x="1392" 
d="M498 520q0 -128 -62 -193t-177 -65h-183v510h175q60 0 106 -13t77.5 -43t47.5 -78t16 -118zM428 521q0 103 -41 147t-136 44h-108v-390h109q52 0 86 13t54 38.5t28 62.5t8 85zM940 262h-381v510h368v-60h-301v-156h282v-60h-282v-174h314v-60zM1322 262h-318v510h68v-450
h250v-60z" />
    <glyph glyph-name="copyright" unicode="&#xa9;" horiz-adv-x="1484" 
d="M741 1424q89 0 171 -23t153.5 -65t130.5 -100.5t100.5 -130t64.5 -153.5t23 -170q0 -92 -25 -175.5t-69 -154.5t-104.5 -128.5t-132 -98t-151 -62.5t-161.5 -22q-85 0 -165.5 23.5t-151.5 65.5t-130 101t-102 130.5t-66.5 152.5t-23.5 168q0 85 22.5 166t64 152
t99.5 130.5t129 102.5t153 67t171 24zM1299 782q0 118 -44.5 220t-120.5 177t-177 118t-214 43q-116 0 -218 -45.5t-177.5 -122.5t-119 -178t-43.5 -212q0 -110 44.5 -210.5t120.5 -177t177.5 -122t215.5 -45.5q70 0 138.5 18.5t130.5 53.5t114.5 84.5t91 111t60 134
t21.5 153.5zM916 939q-11 67 -57 103t-121 36q-46 0 -82.5 -20t-61.5 -58.5t-38.5 -93.5t-13.5 -124q0 -137 53.5 -212.5t150.5 -75.5q72 0 119.5 40.5t59.5 112.5h126q-4 -56 -28.5 -103t-65.5 -80.5t-96 -52t-120 -18.5q-80 0 -142.5 27t-106 78t-66.5 124.5t-23 165.5
q0 86 24.5 157.5t69.5 122.5t108.5 79t140.5 28q61 0 113.5 -17t91.5 -48.5t63.5 -75t29.5 -95.5h-128z" />
    <glyph glyph-name="guillemotleft" unicode="&#xab;" horiz-adv-x="880" 
d="M763 22h-72q-82 97 -164 192.5t-164 192.5q84 97 164.5 189.5t164.5 189.5h64l-217 -378zM461 22h-68q-82 97 -163 192.5t-164 192.5q84 97 164.5 189.5t165.5 189.5h65l-219 -378z" />
    <glyph glyph-name="registered" unicode="&#xae;" horiz-adv-x="1484" 
d="M741 1424q88 0 170 -23t153.5 -65t130 -100.5t101 -130t65.5 -153.5t23 -170q0 -91 -24.5 -174t-68.5 -154.5t-104.5 -129t-132 -98.5t-151 -63t-162.5 -22q-86 0 -167 23.5t-152 66.5t-129.5 102t-101 130.5t-66 152t-23.5 166.5q0 83 22 162.5t62.5 151t97.5 131.5
t128 104t154 68.5t175 24.5zM1299 777q0 121 -44.5 224t-120.5 178.5t-177 118t-214 42.5q-82 0 -155 -22t-135 -60.5t-111.5 -91t-84.5 -114.5t-53.5 -131t-18.5 -139q0 -74 20.5 -143.5t57 -131t87.5 -113t112.5 -89t131 -58t144.5 -20.5q111 0 212.5 42t179 116
t123.5 174.5t46 217.5zM759 1158q303 0 303 -199q0 -78 -43.5 -129t-122.5 -67l163 -331h-154l-148 310h-135v-310h-137v726h274zM734 1070h-112v-241h116q98 0 140.5 27t42.5 88q0 66 -44 96t-143 30z" />
    <glyph glyph-name="paragraph" unicode="&#xb6;" horiz-adv-x="891" 
d="M830 1379h-106v-1229h-80v1229h-173v-1229h-82v690q-78 3 -139 25.5t-103 61.5t-64 92.5t-22 118.5q0 67 24.5 122.5t69 95t106.5 61t137 21.5h432v-59z" />
    <glyph glyph-name="guillemotright" unicode="&#xbb;" horiz-adv-x="880" 
d="M335 408q-54 94 -108 189t-109 189h65q81 -95 163.5 -189.5t165.5 -189.5q-84 -99 -165 -193t-163 -192h-74zM632 408q-54 94 -109.5 189t-109.5 189h65q83 -95 165.5 -189.5t164.5 -189.5q-83 -99 -163 -193t-164 -192h-68z" />
    <glyph glyph-name="multiply" unicode="&#xd7;" horiz-adv-x="1484" 
d="M748 767l408 408l85 -86l-408 -408l408 -408l-85 -84l-408 406l-408 -406l-85 84l408 408l-408 408l85 86z" />
    <glyph glyph-name="ccedilla" unicode="&#xe7;" horiz-adv-x="935" 
d="M738 772q-7 97 -69 148t-170 51q-129 0 -197.5 -90.5t-68.5 -261.5q0 -172 65.5 -263.5t189.5 -91.5q109 0 174.5 56t82.5 165h149q-4 -78 -32.5 -143t-78 -112.5t-118.5 -76t-153 -32.5v-68h22q90 0 137.5 -35t47.5 -101q0 -153 -207 -153q-45 0 -99.5 8t-114.5 25v81
q69 -16 124 -24.5t88 -8.5q45 0 68.5 17t23.5 48q0 69 -105 69q-15 0 -27 -0.5t-23 -0.5v143q-89 8 -158.5 46.5t-118.5 102.5t-74.5 151t-25.5 192q0 115 30 207.5t85.5 157t135 99.5t178.5 35q87 0 158 -24t122 -68.5t79.5 -107t30.5 -140.5h-151z" />
    <glyph glyph-name="divide" unicode="&#xf7;" horiz-adv-x="1484" 
d="M1263 742v-121h-1042v121h1042zM743 1112q22 0 41.5 -9t34.5 -24t24 -35t9 -42q0 -23 -8.5 -42.5t-23.5 -34.5t-35 -23.5t-42 -8.5q-23 0 -42.5 8.5t-34.5 23t-23.5 34.5t-8.5 43t9 43t24.5 35t35 23.5t40.5 8.5zM743 469q22 0 41.5 -9t34.5 -24t24 -34.5t9 -40.5
q0 -23 -8.5 -43t-23.5 -34.5t-35 -23t-42 -8.5q-23 0 -43 8t-34.5 22.5t-23 34.5t-8.5 44q0 22 9 41.5t24 34.5t34.5 23.5t41.5 8.5z" />
    <glyph glyph-name="oe" unicode="&#x153;" horiz-adv-x="1656" 
d="M828 308q-52 -94 -134 -141t-199 -47q-100 0 -178.5 33t-133 95t-83.5 151.5t-29 202.5q0 122 29 217t84.5 160t136 99t184.5 34q229 0 336 -176q129 176 337 176q98 0 175.5 -32.5t131.5 -93t82.5 -148t28.5 -196.5q0 -20 -3 -65v-5h-675q1 -72 20 -129.5t53.5 -97.5
t84 -61.5t111.5 -21.5q94 0 156 49t80 140h156q-13 -77 -48 -138t-88 -104t-121.5 -66t-147.5 -23q-121 0 -209 47.5t-137 140.5zM237 617q0 -171 68 -264t194 -93q61 0 110 26.5t83 76t52.5 119.5t18.5 156q0 76 -18 138t-51.5 105.5t-81 67.5t-106.5 24q-129 0 -199 -92.5
t-70 -263.5zM920 701h509v5q0 62 -17.5 111.5t-49.5 84t-79 53t-105 18.5q-56 0 -101.5 -19.5t-79 -55t-53.5 -85.5t-24 -112z" />
    <glyph glyph-name="arabiccomma" unicode="&#x60c;" horiz-adv-x="471" 
d="M303 158q-5 -1 -9 -1h-7q-32 0 -64 11.5t-57 35.5t-40.5 60.5t-15.5 86.5q0 40 13.5 86.5t37.5 91.5t57 86t72 70q-37 -66 -50 -113.5t-13 -93.5q0 -65 30.5 -110.5t94.5 -70.5z" />
    <glyph glyph-name="arabicsemicolon" unicode="&#x61b;" horiz-adv-x="565" 
d="M399 259q0 -24 -9.5 -45t-25 -37t-36.5 -25.5t-45 -9.5q-23 0 -44 9.5t-37 25.5t-25 37t-9 45t9 45.5t25 37t37 25t44 9.5q24 0 45 -9.5t36.5 -25t25 -37t9.5 -45.5zM309 539q-5 -1 -10 -1h-10q-26 0 -49.5 13t-41.5 35.5t-29 52.5t-11 64q0 36 12 72.5t32 79.5v-1
q17 32 37 58.5t43 48.5q-20 -45 -30 -82t-10 -69q0 -60 25 -99t82 -60z" />
    <glyph glyph-name="arabicquestionmark" unicode="&#x61f;" horiz-adv-x="961" 
d="M710 1331q66 -17 94 -45.5t28 -57.5q0 -17 -6.5 -33.5t-17 -29.5t-23.5 -20.5t-27 -7.5q-7 0 -13.5 1.5t-11.5 3.5q-42 12 -93 25t-99 13q-36 0 -67.5 -8t-57.5 -27t-44.5 -50.5t-28.5 -78.5q5 -42 19 -76.5t34 -64t43.5 -55.5t47.5 -50q20 -21 39 -41.5t33.5 -41.5
t23.5 -42.5t9 -43.5q0 -18 -7 -33t-19 -25.5t-27 -16t-31 -5.5q-17 0 -36.5 9t-38.5 28q-41 35 -87 81t-88 103.5t-73.5 125.5t-42.5 148q23 171 113 257t249 86q45 0 96.5 -7t109.5 -21zM619 259q0 -24 -9.5 -45t-25 -37t-37 -25.5t-45.5 -9.5q-23 0 -44 9.5t-37 25.5
t-25 37t-9 45t9 45.5t25 37t37 25t44 9.5q24 0 45.5 -9.5t37 -25t25 -37t9.5 -45.5z" />
    <glyph glyph-name="hamza" unicode="&#x621;" horiz-adv-x="1002" 
d="M111 151v180h125q-18 44 -26 80.5t-8 66.5q0 61 22.5 120.5t67 106t110.5 75t153 28.5h315v-180l-315 1q-45 0 -78 -13t-54 -34.5t-31.5 -48.5t-10.5 -55q0 -27 9 -52.5t28.5 -45.5t49.5 -33t72 -16h358v-180h-787z" />
    <glyph glyph-name="alefwithmaddaabove" unicode="&#x622;" horiz-adv-x="506" 
d="M340 153h-179v1166q50 8 90.5 15t88.5 15v-1196zM44 1400q-8 -2 -13.5 4.5t-5.5 14.5l3 49q0 11 6 17.5t14 8.5l384 68q17 3 19 -19l-3 -49q0 -9 -6 -17t-14 -9z" />
    <glyph glyph-name="alefwithhamzaabove" unicode="&#x623;" horiz-adv-x="506" 
d="M340 153h-179v1200h179v-1200zM130 1568q-5 11 -6.5 23t-1.5 24q0 25 8 48.5t23.5 42t39 29.5t53.5 11h111v-83l-111 1q-27 0 -39 -15.5t-12 -33.5q0 -17 11 -31t35 -16h125v-83h-274v83h38z" />
    <glyph glyph-name="wawwithhamzaabove" unicode="&#x624;" horiz-adv-x="962" 
d="M639 149q-41 -5 -81.5 -7.5t-82.5 -2.5q-43 0 -84.5 3t-83.5 8h1q-8 2 -17.5 3t-19.5 3q-33 5 -66.5 11.5t-61 18.5t-44.5 31t-17 51v327q0 81 30.5 153t84 125.5t125 84.5t153.5 31h273q25 0 47 -9.5t38 -25.5t25.5 -38.5t9.5 -47.5q0 -38 1 -80.5t3 -87.5
q2 -52 4 -106.5t2 -112.5q0 -82 -6 -168.5t-23 -171.5q-21 -99 -61 -188t-104 -156t-156 -108t-217 -44v180q82 3 139.5 26.5t98 63.5t66.5 93t46 114zM475 319q54 0 108.5 5.5t109.5 16.5q2 33 3 76t1 77q0 66 -2 135.5t-4 129.5v10q0 7 -0.5 14.5t-0.5 14.5v11l-215 1
q-44 0 -83 -17.5t-68 -46.5t-46 -68.5t-17 -82.5l1 -254q36 -8 63 -12.5t50.5 -6.5t44.5 -2.5t45 -0.5h10zM342 1205q-22 53 -22 86q0 30 11 59.5t33 52.5t55 37t76 14h155v-76l-155 2q-27 0 -46 -8t-31 -20.5t-18 -28.5t-6 -32q0 -32 22 -58t70 -28h179v-75h-393v75h70z
" />
    <glyph glyph-name="alefwithhamzabelow" unicode="&#x625;" horiz-adv-x="506" 
d="M340 153h-179v1200h179v-1200zM130 -153q-5 11 -6.5 23t-1.5 24q0 25 8 48.5t23.5 42t39 29.5t53.5 11h111v-83l-111 1q-27 0 -39 -15.5t-12 -33.5q0 -17 11 -31t35 -16h125v-83h-274v83h38z" />
    <glyph glyph-name="yehwithhamzaabove" unicode="&#x626;" horiz-adv-x="1148" 
d="M275 464q-17 -40 -29 -92t-12 -106q0 -41 8.5 -77.5t32.5 -64t67.5 -43.5t113.5 -16h303q39 0 65 10t41.5 26.5t21.5 38.5t6 47q0 42 -13 70t-37 48t-59 34.5t-80 29.5q-54 19 -105.5 40t-91.5 54.5t-64 86t-24 133.5q0 95 34 162.5t89.5 110.5t126 63t142.5 20
q68 0 131 -14.5t115 -38.5q-23 -43 -43.5 -79.5t-43.5 -77.5q-33 14 -75 22.5t-87 8.5q-42 0 -80 -8.5t-67 -29.5t-46 -56t-17 -88q0 -29 15 -50.5t38.5 -38t52.5 -28t58 -21.5q34 -12 68.5 -25.5t67.5 -31.5t63 -42t53 -57q27 -44 43 -94.5t16 -101.5q0 -56 -19 -110
t-58 -97.5t-99 -70t-142 -26.5q-75 0 -149.5 1t-149.5 1q-113 0 -189.5 33.5t-124 87.5t-68 122.5t-20.5 140.5q0 77 18.5 150t44.5 127zM95 1103q-11 27 -16.5 49t-5.5 37q0 30 11 59.5t33.5 52.5t55 37t76.5 14h154v-75l-154 1q-27 0 -46 -8t-31.5 -20.5t-18.5 -28.5
t-6 -32q0 -32 22 -58t70 -28h179v-75h-393v75h70z" />
    <glyph glyph-name="arabicalef" unicode="&#x627;" horiz-adv-x="506" 
d="M339 153h-178v1200h178v-1200z" />
    <glyph glyph-name="beh" unicode="&#x628;" horiz-adv-x="1275" 
d="M1191 955v-714q0 -38 -26 -64t-64 -26h-636q-113 0 -189.5 33.5t-123.5 88t-67.5 123.5t-20.5 139q0 78 18 151t44 127q45 -24 80 -42.5t78 -40.5q-17 -39 -29 -91t-12 -107q0 -41 8.5 -77t32 -63.5t65 -44t106.5 -17.5l557 1v624h179zM629 -145q0 21 7.5 39t21 31.5
t31 21t38.5 7.5t39 -7.5t31.5 -21t21 -31.5t7.5 -39q0 -42 -28.5 -70t-70.5 -28t-70 28t-28 70z" />
    <glyph glyph-name="tehmarbuta" unicode="&#x629;" horiz-adv-x="962" 
d="M797 180q-75 -20 -156.5 -30.5t-164.5 -10.5q-43 0 -84.5 3t-83.5 8h1q-35 6 -75 12t-73.5 17.5t-55.5 32t-22 56.5v327q0 81 30.5 153t84 125.5t125 84.5t153.5 31h274q24 0 45.5 -9t38 -25.5t26 -38.5t9.5 -48l1 -600q0 -32 -20.5 -56.5t-51.5 -30.5zM476 319
q54 0 107 5t107 15v470l-214 1q-44 0 -83 -17.5t-68.5 -47t-46 -68.5t-16.5 -82l1 -254q36 -8 63 -12.5t50.5 -6.5t44.5 -2.5t45 -0.5h10zM558 1245q0 42 28.5 70.5t69.5 28.5q21 0 39 -7.5t31.5 -21t21 -31.5t7.5 -39t-7.5 -38.5t-21 -31t-31.5 -21t-39 -7.5
q-41 0 -69.5 28t-28.5 70zM283 1245q0 42 28 70.5t69 28.5q21 0 39 -7.5t31.5 -21t21 -31.5t7.5 -39t-7.5 -38.5t-21 -31t-31.5 -21t-39 -7.5q-41 0 -69 28t-28 70z" />
    <glyph glyph-name="teh" unicode="&#x62a;" horiz-adv-x="1275" 
d="M1191 955v-714q0 -38 -26 -64t-64 -26h-636q-113 0 -189.5 33.5t-123.5 88t-67.5 123.5t-20.5 139q0 78 18 151t44 127q45 -24 80 -42.5t78 -40.5q-17 -39 -29 -91t-12 -107q0 -41 8.5 -77t32 -63.5t65 -44t106.5 -17.5l557 1v624h179zM682 1163q0 21 7.5 39t20.5 31.5
t31 21t38 7.5q42 0 70.5 -28.5t28.5 -70.5q0 -20 -7.5 -38t-21 -31t-31.5 -20.5t-39 -7.5q-41 0 -69 28t-28 69zM406 1163q0 21 7.5 39t21 31.5t31 21t38.5 7.5t38.5 -7.5t31 -21t21 -31.5t7.5 -39q0 -41 -28 -69t-70 -28t-70 28t-28 69z" />
    <glyph glyph-name="theh" unicode="&#x62b;" horiz-adv-x="1275" 
d="M1191 955v-714q0 -38 -26 -64t-64 -26h-636q-113 0 -189.5 33.5t-123.5 88t-67.5 123.5t-20.5 139q0 78 18 151t44 127q45 -24 80 -42.5t78 -40.5q-17 -39 -29 -91t-12 -107q0 -41 8.5 -77t32 -63.5t65 -44t106.5 -17.5l557 1v624h179zM490 1436q0 21 7.5 39t21 31.5
t31 21t38.5 7.5t39 -7.5t31.5 -21t21 -31.5t7.5 -39q0 -41 -28.5 -69.5t-70.5 -28.5t-70 28.5t-28 69.5zM325 1170q0 42 28 70t69 28q21 0 39 -7.5t31.5 -21t21 -31t7.5 -38.5t-7.5 -38.5t-21 -31t-31.5 -21t-39 -7.5q-41 0 -69 28t-28 70zM655 1170q0 42 28 70t70 28
t70 -28t28 -70t-28 -70t-70 -28t-70 28t-28 70z" />
    <glyph glyph-name="jeem" unicode="&#x62c;" horiz-adv-x="1250" 
d="M542 331h344q-6 116 -35.5 196.5t-75 132.5t-102 81t-117.5 42.5t-122 16.5t-114 3q-17 0 -32.5 -0.5t-30.5 0.5q5 51 7.5 91t7.5 88q27 -2 46.5 -2.5t50.5 -1.5q71 -3 149 -8.5t154 -26t145 -60.5t122.5 -111t87.5 -178.5t39 -262.5h90v-180h-616q-77 -4 -133 -25
t-92 -54t-53.5 -74t-17.5 -84q0 -55 28 -109t84 -97q-26 -38 -51.5 -76.5t-49.5 -73.5q-95 70 -143 165t-48 192q0 77 30.5 150t90.5 131t148.5 94t204.5 40h-1zM482 -150q0 42 28.5 70.5t69.5 28.5q21 0 39 -7.5t31.5 -21t21 -31.5t7.5 -39t-7.5 -38.5t-21 -31t-31.5 -21
t-39 -7.5q-41 0 -69.5 28t-28.5 70z" />
    <glyph glyph-name="hah" unicode="&#x62d;" horiz-adv-x="1250" 
d="M542 331h344q-6 116 -35.5 196.5t-75 132.5t-102 81t-117.5 42.5t-122 16.5t-114 3q-17 0 -32.5 -0.5t-30.5 0.5q5 51 7.5 91t7.5 88q27 -2 46.5 -2.5t50.5 -1.5q71 -3 149 -8.5t154 -26t145 -60.5t122.5 -111t87.5 -178.5t39 -262.5h90v-180h-616q-77 -4 -133 -25
t-92 -54t-53.5 -74t-17.5 -84q0 -55 28 -109t84 -97q-26 -38 -51.5 -76.5t-49.5 -73.5q-95 70 -143 165t-48 192q0 77 30.5 150t90.5 131t148.5 94t204.5 40h-1z" />
    <glyph glyph-name="khah" unicode="&#x62e;" horiz-adv-x="1250" 
d="M542 331h344q-6 116 -35.5 196.5t-75 132.5t-102 81t-117.5 42.5t-122 16.5t-114 3q-17 0 -32.5 -0.5t-30.5 0.5q5 51 7.5 91t7.5 88q27 -2 46.5 -2.5t50.5 -1.5q71 -3 149 -8.5t154 -26t145 -60.5t122.5 -111t87.5 -178.5t39 -262.5h90v-180h-616q-77 -4 -133 -25
t-92 -54t-53.5 -74t-17.5 -84q0 -55 28 -109t84 -97q-26 -38 -51.5 -76.5t-49.5 -73.5q-95 70 -143 165t-48 192q0 77 30.5 150t90.5 131t148.5 94t204.5 40h-1zM380 1243q0 42 28 70t69 28q21 0 39 -7.5t31.5 -21t21 -31t7.5 -38.5t-7.5 -38.5t-21 -31t-31.5 -21t-39 -7.5
q-41 0 -69 28t-28 70z" />
    <glyph glyph-name="dal" unicode="&#x62f;" horiz-adv-x="957" 
d="M170 984q205 1 339 -41.5t215 -135.5q41 -47 68 -105t43.5 -129t23.5 -154.5t7 -181.5q0 -38 -26 -64t-64 -26h-675v180h584q-7 127 -29.5 217t-67.5 144q-54 60 -154.5 89.5t-261.5 27.5z" />
    <glyph glyph-name="thal" unicode="&#x630;" horiz-adv-x="957" 
d="M170 984q205 1 339 -41.5t215 -135.5q41 -47 68 -105t43.5 -129t23.5 -154.5t7 -181.5q0 -38 -26 -64t-64 -26h-675v180h584q-7 127 -29.5 217t-67.5 144q-54 60 -154.5 89.5t-261.5 27.5zM195 1248q0 42 28 70.5t70 28.5t70 -28.5t28 -70.5t-28 -70t-70 -28t-70 28
t-28 70z" />
    <glyph glyph-name="reh" unicode="&#x631;" horiz-adv-x="624" 
d="M553 848q-1 -38 0 -70.5t3 -77.5q2 -52 4 -106.5t2 -112.5q0 -82 -6 -168.5t-23 -171.5q-21 -99 -61 -188t-104.5 -156t-156 -108t-216.5 -44v181q88 4 150.5 33t105.5 77t68.5 112t39.5 136.5t18 150.5t4 155q0 55 -1 109.5t-3 105.5q-2 38 -3 74t-1 69h180z" />
    <glyph glyph-name="zain" unicode="&#x632;" horiz-adv-x="624" 
d="M553 848q-1 -38 0 -70.5t3 -77.5q2 -52 4 -106.5t2 -112.5q0 -82 -6 -168.5t-23 -171.5q-21 -99 -61 -188t-104.5 -156t-156 -108t-216.5 -44v181q88 4 150.5 33t105.5 77t68.5 112t39.5 136.5t18 150.5t4 155q0 55 -1 109.5t-3 105.5q-2 38 -3 74t-1 69h180zM353 1182
q0 21 7.5 39t21 31.5t31 21t38.5 7.5t39 -7.5t31.5 -21t21 -31.5t7.5 -39q0 -42 -28.5 -70t-70.5 -28t-70 28t-28 70z" />
    <glyph glyph-name="seen" unicode="&#x633;" horiz-adv-x="1850" 
d="M226 557v-359q0 -55 20 -95t53 -66.5t76 -39t88 -12.5q46 0 89 12.5t76 39t53 66.5t20 95v757h181v-624h272v624h179v-624h272v624h179v-714q0 -38 -26 -64t-63 -26h-816q-12 -85 -52 -149.5t-97 -108t-126 -66t-141 -22.5q-79 0 -154 25.5t-133.5 75t-94 123
t-35.5 169.5v359h180z" />
    <glyph glyph-name="sheen" unicode="&#x634;" horiz-adv-x="1850" 
d="M226 557v-359q0 -55 20 -95t53 -66.5t76 -39t88 -12.5q46 0 89 12.5t76 39t53 66.5t20 95v757h181v-624h272v624h179v-624h272v624h179v-714q0 -38 -26 -64t-63 -26h-816q-12 -85 -52 -149.5t-97 -108t-126 -66t-141 -22.5q-79 0 -154 25.5t-133.5 75t-94 123
t-35.5 169.5v359h180zM1141 1511q0 21 7.5 39t21 31.5t31.5 21t38 7.5q42 0 70.5 -28.5t28.5 -70.5q0 -20 -7.5 -38t-21 -31.5t-31.5 -21t-39 -7.5q-41 0 -69.5 28.5t-28.5 69.5zM976 1245q0 42 28 70.5t69 28.5q21 0 39 -7.5t31.5 -21t21 -31.5t7.5 -39t-7.5 -38.5t-21 -31
t-31.5 -21t-39 -7.5q-41 0 -69 28t-28 70zM1306 1245q0 42 28 70.5t70 28.5t70 -28.5t28 -70.5t-28 -70t-70 -28t-70 28t-28 70z" />
    <glyph glyph-name="sad" unicode="&#x635;" horiz-adv-x="1776" 
d="M231 557v-359q0 -55 20 -95t53 -66.5t76 -39t89 -12.5q45 0 88 12.5t76 39t53 66.5t20 95q0 199 -1 395.5t-1 396.5h179l1 -206q11 37 43 73.5t77 65.5t98.5 47.5t107.5 18.5q102 -1 203 -2t203 -3q18 0 34.5 -7t28.5 -19t19 -28t7 -34v-645q0 -42 -23.5 -71t-65.5 -29
h-732q-12 -85 -52 -149.5t-97 -108t-126 -66t-140 -22.5q-79 0 -154.5 25.5t-134 75t-94 123t-35.5 169.5v359h180zM1205 810q-61 0 -118.5 -15.5t-102 -47.5t-72 -81t-29.5 -115v-220h642v476q-155 2 -235.5 2.5t-84.5 0.5z" />
    <glyph glyph-name="dad" unicode="&#x636;" horiz-adv-x="1776" 
d="M231 557v-359q0 -55 20 -95t53 -66.5t76 -39t89 -12.5q45 0 88 12.5t76 39t53 66.5t20 95q0 199 -1 395.5t-1 396.5h179l1 -206q11 37 43 73.5t77 65.5t98.5 47.5t107.5 18.5q102 -1 203 -2t203 -3q18 0 34.5 -7t28.5 -19t19 -28t7 -34v-645q0 -42 -23.5 -71t-65.5 -29
h-732q-12 -85 -52 -149.5t-97 -108t-126 -66t-140 -22.5q-79 0 -154.5 25.5t-134 75t-94 123t-35.5 169.5v359h180zM1205 810q-61 0 -118.5 -15.5t-102 -47.5t-72 -81t-29.5 -115v-220h642v476q-155 2 -235.5 2.5t-84.5 0.5zM1112 1227q0 21 7.5 39t20.5 31.5t31 21t38 7.5
q42 0 70.5 -28.5t28.5 -70.5q0 -20 -7.5 -38t-21 -31t-31.5 -20.5t-39 -7.5q-41 0 -69 28t-28 69z" />
    <glyph glyph-name="tah" unicode="&#x637;" horiz-adv-x="1260" 
d="M362 769q10 37 42 76t77 71t98.5 52.5t107.5 20.5l202 -2t203 -3q18 0 34.5 -7t28.5 -19t19 -28t7 -34v-645q0 -42 -23.5 -71t-65.5 -29h-1017v180h106v1022h179zM681 810q-61 0 -118 -15.5t-101.5 -47.5t-72 -81t-29.5 -115v-220h641v476q-154 2 -234.5 2.5t-85.5 0.5z
" />
    <glyph glyph-name="zah" unicode="&#x638;" horiz-adv-x="1260" 
d="M362 769q10 37 42 76t77 71t98.5 52.5t107.5 20.5l202 -2t203 -3q18 0 34.5 -7t28.5 -19t19 -28t7 -34v-645q0 -42 -23.5 -71t-65.5 -29h-1017v180h106v1022h179zM681 810q-61 0 -118 -15.5t-101.5 -47.5t-72 -81t-29.5 -115v-220h641v476q-154 2 -234.5 2.5t-85.5 0.5z
M579 1245q0 42 28 70.5t69 28.5q21 0 39 -7.5t31.5 -21t21 -31.5t7.5 -39t-7.5 -38.5t-21 -31t-31.5 -21t-39 -7.5q-41 0 -69 28t-28 70z" />
    <glyph glyph-name="ain" unicode="&#x639;" horiz-adv-x="1131" 
d="M543 151q-75 -3 -130.5 -24t-92 -53t-55 -73.5t-18.5 -85.5q0 -55 26 -109.5t86 -98.5q-29 -42 -51 -75.5t-49 -73.5q-48 35 -83.5 77t-59.5 87.5t-36 94t-12 96.5q0 57 17.5 112t52 105t86 92t119.5 72q-45 66 -66 136t-21 139q0 80 25 155.5t74 134.5t121 94.5
t167 35.5h356v-180h-356q-54 0 -93 -21t-64.5 -55t-38 -77t-12.5 -87t12.5 -87t38 -76.5t64.5 -54t93 -20.5h386v-180h-486z" />
    <glyph glyph-name="ghain" unicode="&#x63a;" horiz-adv-x="1131" 
d="M543 151q-75 -3 -130.5 -24t-92 -53t-55 -73.5t-18.5 -85.5q0 -55 26 -109.5t86 -98.5q-29 -42 -51 -75.5t-49 -73.5q-48 35 -83.5 77t-59.5 87.5t-36 94t-12 96.5q0 57 17.5 112t52 105t86 92t119.5 72q-45 66 -66 136t-21 139q0 80 25 155.5t74 134.5t121 94.5
t167 35.5h356v-180h-356q-54 0 -93 -21t-64.5 -55t-38 -77t-12.5 -87t12.5 -87t38 -76.5t64.5 -54t93 -20.5h386v-180h-486zM581 1245q0 42 28 70.5t70 28.5t70 -28.5t28 -70.5t-28 -70t-70 -28t-70 28t-28 70z" />
    <glyph glyph-name="tatweel" unicode="&#x640;" horiz-adv-x="407" 
d="M-11 151v180h428v-180h-428z" />
    <glyph glyph-name="feh" unicode="&#x641;" horiz-adv-x="1419" 
d="M624 331q-31 63 -46 123t-15 115q0 80 25 155.5t74 134.5t121 94.5t167 35.5h271q25 0 47 -10t38 -27t25 -39t9 -47l1 -625q0 -38 -26 -64t-63 -26h-802q-111 0 -187.5 33t-124.5 87t-69 123t-21 141q0 77 18.5 150.5t44.5 127.5q44 -24 79.5 -42.5t78.5 -40.5
q-18 -39 -29.5 -91t-11.5 -107q0 -41 8.5 -77t32 -63.5t65.5 -44t109 -17.5q3 1 7 1h174zM761 465q10 -28 27 -52.5t40.5 -42.5t53.5 -28.5t68 -10.5h211v478h-211q-54 0 -93 -21t-64.5 -55t-38 -77t-12.5 -87q0 -26 4 -52.5t15 -51.5zM926 1245q0 42 28.5 70.5t69.5 28.5
q21 0 39 -7.5t31.5 -21t21 -31.5t7.5 -39t-7.5 -38.5t-21 -31t-31.5 -21t-39 -7.5q-41 0 -69.5 28t-28.5 70z" />
    <glyph glyph-name="qaf" unicode="&#x642;" horiz-adv-x="1419" 
d="M624 331q-31 63 -46 123t-15 115q0 80 25 155.5t74 134.5t121 94.5t167 35.5h271q25 0 47 -10t38 -27t25 -39t9 -47l1 -625q0 -38 -26 -64t-63 -26h-802q-111 0 -187.5 33t-124.5 87t-69 123t-21 141q0 77 18.5 150.5t44.5 127.5q44 -24 79.5 -42.5t78.5 -40.5
q-18 -39 -29.5 -91t-11.5 -107q0 -41 8.5 -77t32 -63.5t65.5 -44t109 -17.5q3 1 7 1h174zM761 465q10 -28 27 -52.5t40.5 -42.5t53.5 -28.5t68 -10.5h211v478h-211q-54 0 -93 -21t-64.5 -55t-38 -77t-12.5 -87q0 -26 4 -52.5t15 -51.5zM732 1245q0 42 28 70.5t70 28.5
t70.5 -28.5t28.5 -70.5t-28.5 -70t-70.5 -28t-70 28t-28 70zM1008 1245q0 42 28 70.5t69 28.5q21 0 39 -7.5t31.5 -21t21 -31.5t7.5 -39t-7.5 -38.5t-21 -31t-31.5 -21t-39 -7.5q-41 0 -69 28t-28 70z" />
    <glyph glyph-name="arabickaf" unicode="&#x643;" horiz-adv-x="1300" 
d="M1194 1353v-1112q0 -38 -26 -64t-64 -26h-636q-113 0 -189.5 33.5t-123.5 88t-67.5 123.5t-20.5 139q0 78 18 151t44 127q45 -24 80 -42.5t78 -40.5q-17 -39 -29 -91t-12 -107q0 -41 8.5 -77t32 -63.5t65 -44t106.5 -17.5l557 1v1022h179zM440 962q-8 17 -11 36t-3 39
q0 39 14.5 76.5t42.5 66.5t69.5 47t96.5 18h199v-132l-199 1q-48 0 -70 -24t-22 -53q0 -28 19.5 -50.5t63.5 -24.5h225v-132h-493v132h68z" />
    <glyph glyph-name="lam" unicode="&#x644;" horiz-adv-x="1027" 
d="M268 557v-359q0 -55 20.5 -95t53.5 -66.5t76 -39t88 -12.5t88 12.5t76.5 39t53.5 66.5t20 95v1155h181v-1155q0 -96 -36 -169.5t-95 -123t-134.5 -75t-153.5 -25.5q-79 0 -154.5 25.5t-134 75t-94 123t-35.5 169.5v359h180z" />
    <glyph glyph-name="meem" unicode="&#x645;" horiz-adv-x="1230" 
d="M371 603q1 67 32 137t83.5 126t123.5 90.5t151 32.5q78 -1 156.5 -2t156.5 -3q18 0 34.5 -7t28.5 -19t19 -28t7 -34v-655q0 -38 -26 -64t-63 -26h-624q-47 0 -85 -5t-65 -22.5t-41.5 -50.5t-14.5 -90v-334h-180v334q0 79 23 139t64.5 102t97.5 67t122 36v276zM551 330
h432v477q-75 1 -119.5 1.5t-67.5 1t-30 0.5h-7q-40 0 -77.5 -17t-66.5 -46t-46.5 -67.5t-17.5 -81.5v-268z" />
    <glyph glyph-name="noon" unicode="&#x646;" horiz-adv-x="982" 
d="M253 557v-359q0 -55 20 -95t53.5 -66.5t76.5 -39t88 -12.5t88 12.5t76.5 39t53.5 66.5t20 95v743h181v-743q0 -96 -36 -169.5t-95 -123t-134.5 -75t-153.5 -25.5q-79 0 -154.5 25.5t-134 75t-94 123t-35.5 169.5v359h180zM368 1167q0 42 28 70t69 28q21 0 39 -7.5
t31.5 -21t21 -31t7.5 -38.5t-7.5 -38.5t-21 -31t-31.5 -21t-39 -7.5q-41 0 -69 28t-28 70z" />
    <glyph glyph-name="heh" unicode="&#x647;" horiz-adv-x="962" 
d="M797 180q-75 -20 -156.5 -30.5t-164.5 -10.5q-43 0 -84.5 3t-83.5 8h1q-35 6 -75 12t-73.5 17.5t-55.5 32t-22 56.5v327q0 81 30.5 153t84 125.5t125 84.5t153.5 31h274q24 0 45.5 -9t38 -25.5t26 -38.5t9.5 -48l1 -600q0 -32 -20.5 -56.5t-51.5 -30.5zM476 319
q54 0 107 5t107 15v470l-214 1q-44 0 -83 -17.5t-68.5 -47t-46 -68.5t-16.5 -82l1 -254q36 -8 63 -12.5t50.5 -6.5t44.5 -2.5t45 -0.5h10z" />
    <glyph glyph-name="waw" unicode="&#x648;" horiz-adv-x="962" 
d="M670 164q-24 -8 -76.5 -15t-118 -9.5t-135 1t-127 17.5t-94.5 40.5t-37 69.5v327q0 81 30.5 153t84 125.5t125 84.5t153.5 31h273q25 0 47 -9.5t38 -25.5t25.5 -38.5t9.5 -47.5q0 -88 3 -185.5t2 -197.5t-8.5 -199t-29 -189.5t-60 -169.5t-100.5 -139t-151.5 -97.5
t-212.5 -45.5v180q82 3 139.5 26.5t98 63.5t66.5 93t46 114zM475 319q54 0 108.5 5.5t109.5 16.5q4 55 4 116q0 62 -1.5 123t-3.5 119.5t-2 109.5l-215 1q-44 0 -83 -17.5t-68.5 -47t-46 -68.5t-16.5 -82l1 -254q36 -8 63 -12.5t50.5 -6.5t44.5 -2.5t45 -0.5h10z" />
    <glyph glyph-name="alefmaksura" unicode="&#x649;" horiz-adv-x="1148" 
d="M275 464q-17 -40 -29 -92t-12 -106q0 -41 8.5 -77.5t32.5 -64t67.5 -43.5t113.5 -16h302q39 0 65 10t41.5 26.5t21.5 38.5t6 47q0 42 -13 70t-37 48t-59 34.5t-79 29.5q-54 19 -105.5 40t-91.5 54.5t-64 86t-24 133.5q0 95 34 162.5t89.5 110.5t126 63t142.5 20
q67 0 130.5 -14.5t115.5 -38.5q-23 -43 -44 -79.5t-44 -77.5q-33 14 -75 22.5t-86 8.5q-42 0 -80 -8.5t-67 -29.5t-46 -56t-17 -88q0 -29 15 -50.5t38.5 -38t52.5 -28t58 -21.5q34 -12 68.5 -25.5t67.5 -31.5t63 -42t53 -57q27 -44 42.5 -94.5t15.5 -101.5q0 -56 -19 -110
t-58 -97.5t-99 -70t-142 -26.5q-74 0 -148.5 1t-149.5 1q-113 0 -189.5 33.5t-124 87.5t-68 122.5t-20.5 140.5q0 77 18.5 150t44.5 127z" />
    <glyph glyph-name="yeh" unicode="&#x64a;" horiz-adv-x="1148" 
d="M275 464q-17 -40 -29 -92t-12 -106q0 -41 8.5 -77.5t32.5 -64t67.5 -43.5t113.5 -16h302q39 0 65 10t41.5 26.5t21.5 38.5t6 47q0 42 -13 70t-37 48t-59 34.5t-79 29.5q-54 19 -105.5 40t-91.5 54.5t-64 86t-24 133.5q0 95 34 162.5t89.5 110.5t126 63t142.5 20
q67 0 130.5 -14.5t115.5 -38.5q-23 -43 -44 -79.5t-44 -77.5q-33 14 -75 22.5t-86 8.5q-42 0 -80 -8.5t-67 -29.5t-46 -56t-17 -88q0 -29 15 -50.5t38.5 -38t52.5 -28t58 -21.5q34 -12 68.5 -25.5t67.5 -31.5t63 -42t53 -57q27 -44 42.5 -94.5t15.5 -101.5q0 -56 -19 -110
t-58 -97.5t-99 -70t-142 -26.5q-74 0 -148.5 1t-149.5 1q-113 0 -189.5 33.5t-124 87.5t-68 122.5t-20.5 140.5q0 77 18.5 150t44.5 127zM319 -364q0 42 28 70.5t70 28.5t70.5 -28.5t28.5 -70.5t-28.5 -70t-70.5 -28t-70 28t-28 70zM595 -364q0 42 28 70.5t70 28.5t70 -28.5
t28 -70.5t-28 -70t-70 -28t-70 28t-28 70z" />
    <glyph glyph-name="fathatan" unicode="&#x64b;" horiz-adv-x="408" 
d="M389 1675l-340 -193l17 91l340 193zM403 1842l-340 -193l17 91l340 193z" />
    <glyph glyph-name="dammatan" unicode="&#x64c;" horiz-adv-x="469" 
d="M409 1632q-8 -18 -28 -45.5t-47 -53t-58 -43.5t-62 -18t-46 16t-15 36q0 23 8 47t8 41q0 12 -6.5 19.5t-26.5 7.5q-14 0 -36.5 -4.5t-54.5 -15.5q23 34 55.5 51t61.5 17t49 -16.5t20 -51.5q0 -34 -23 -80q46 20 85.5 44t71.5 62q-45 11 -64 35.5t-19 53.5q0 26 12 51
t30.5 45t42 32.5t47.5 12.5q20 -2 27 -23t7 -47q0 -29 -5 -58t-9 -40l38 -12l-17 -76zM388 1793q-6 6 -12.5 8t-12.5 2q-15 0 -22 -11t-7 -24q0 -20 19 -30t43 -21q0 5 1 10q0 5 0.5 10.5t0.5 12.5q0 14 -2 27.5t-8 17.5v-2z" />
    <glyph glyph-name="kasratan" unicode="&#x64d;" horiz-adv-x="408" 
d="M405 -148l-340 -193l17 91l340 193zM378 -316l-340 -193l17 91l340 193z" />
    <glyph glyph-name="fatha" unicode="&#x64e;" horiz-adv-x="408" 
d="M389 1675l-340 -193l17 91l340 193z" />
    <glyph glyph-name="damma" unicode="&#x64f;" horiz-adv-x="414" 
d="M366 1664q-11 -23 -36.5 -51.5t-60.5 -53.5t-76 -42.5t-83 -17.5q-56 0 -77 4t-21 3q0 1 1 1q61 25 105.5 43t79 36t62.5 39.5t56 54.5q-52 12 -73.5 38t-21.5 58q0 27 12.5 54t33 48.5t46.5 35.5t52 14t35.5 -22t9.5 -54t-6 -63t-11 -44l44 -13l-19 -80zM341 1841
q-6 7 -14.5 8.5t-13.5 1.5q-17 0 -25.5 -11.5t-8.5 -25.5q0 -23 21 -34t50 -22q0 5 1 11q0 5 0.5 12t0.5 15q0 15 -2 28.5t-9 18.5v-2z" />
    <glyph glyph-name="kasra" unicode="&#x650;" horiz-adv-x="408" 
d="M395 -148l-340 -193l17 91l340 193z" />
    <glyph glyph-name="shadda" unicode="&#x651;" horiz-adv-x="425" 
d="M398 1823q17 -26 25 -57.5t8 -61.5q0 -28 -6.5 -54.5t-19 -47t-31 -33t-43.5 -12.5t-37.5 9t-27.5 23q-6 -11 -16 -25t-24.5 -26.5t-34.5 -21t-45 -8.5t-42 9.5t-27 25t-14 35.5t-4 41q0 37 9 70t18 47q0 -1 1 -1t5.5 3.5t9.5 7t9.5 7t6.5 3.5q1 0 1 -1
q-8 -17 -12.5 -39.5t-4.5 -43.5q0 -29 11.5 -48.5t40.5 -19.5t44.5 16t23.5 37.5t12.5 44.5t12.5 38q0 -2 2 -2q4 0 12.5 9.5t12.5 9.5q2 0 2 -1q-4 -15 -4 -32q0 -34 17 -57t44 -23q6 0 14 1.5t15.5 5t13 10.5t5.5 19q0 19 -9.5 40.5t-20.5 36.5q13 18 24.5 34t22.5 32z
" />
    <glyph glyph-name="sukun" unicode="&#x652;" horiz-adv-x="328" 
d="M347 1696q1 -4 1 -8v-8q0 -31 -14.5 -65t-37.5 -78v1q0 1 1 2l-3 -5q-13 -8 -30 -15.5t-36.5 -13.5t-40.5 -9.5t-40 -3.5q-40 0 -65 19.5t-25 69.5q0 37 12 78t32.5 75t48.5 56.5t60 22.5q25 0 48.5 -12t42.5 -29.5t31 -38t15 -38.5zM283 1628q-3 13 -12.5 28.5t-23 28.5
t-29.5 21.5t-32 8.5q-32 0 -48 -21t-16 -43q0 -28 20.5 -40t48.5 -12q23 0 47.5 7.5t43.5 20.5z" />
    <glyph glyph-name="arabicindicdigitzero" unicode="&#x660;" horiz-adv-x="1149" 
d="M426 873q0 8 6.5 14.5t15.5 6.5h254q9 0 15 -6.5t6 -14.5v-254q0 -8 -6 -14t-15 -6h-254q-9 0 -15.5 6t-6.5 14v254z" />
    <glyph glyph-name="arabicindicdigitone" unicode="&#x661;" horiz-adv-x="652" 
d="M238 1317q0 8 7 14t15 6h142q8 0 14 -6t6 -14v-1150q0 -8 -6 -14t-14 -6h-142q-8 0 -15 6t-7 14v1150z" />
    <glyph glyph-name="arabicindicdigittwo" unicode="&#x662;" horiz-adv-x="1149" 
d="M867 1157l-232 1q-49 -6 -89 -17t-68.5 -31t-44 -51t-15.5 -76q0 -14 1.5 -28t3.5 -28q43 -192 88.5 -386.5t89.5 -386.5q-4 -11 -17 -11h-162q-3 0 -4.5 4.5t-2.5 10.5q-44 170 -87.5 340.5t-87.5 340.5l1 -2q-5 31 -7.5 59t-2.5 54q0 104 34.5 177t91.5 119t130.5 67.5
t151.5 23.5h16q13 0 31 0.5t38.5 1.5t40.5 2q38 1 69.5 2t38.5 1q8 0 17.5 -1.5t17.5 -4.5t13.5 -7.5t5.5 -10.5v-141q0 -9 -6.5 -15.5t-14.5 -6.5h-39z" />
    <glyph glyph-name="arabicindicdigitthree" unicode="&#x663;" horiz-adv-x="1149" 
d="M674 978h182v338q0 9 5.5 15t14.5 6h143q8 0 14 -6t6 -15v-278q0 -130 -55.5 -186.5t-159.5 -56.5h-514v-628q0 -8 -6 -14t-15 -6h-142q-8 0 -14.5 6t-6.5 14v1150q0 8 6.5 14t14.5 6h142q9 0 15 -6t6 -14v-339h182v338q0 9 5.5 15t13.5 6h143q8 0 14 -6t6 -15l-1 -312z
" />
    <glyph glyph-name="arabicindicdigitfour" unicode="&#x664;" horiz-adv-x="1149" 
d="M476 1160q-29 -18 -42.5 -38.5t-13.5 -42.5q0 -23 11 -48t30 -52.5t44.5 -57t53.5 -60.5h239q10 0 16 -6t6 -15v-141q0 -9 -6 -15t-16 -6l-247 -1q-39 -10 -71 -30.5t-54 -47.5t-34 -58.5t-12 -62.5q0 -48 27 -88.5t87 -62.5h403q9 0 15.5 -6t6.5 -14v-142q0 -9 -6.5 -15
t-15.5 -6h-405q-60 0 -114 26t-94.5 69.5t-64 101.5t-23.5 123q0 81 45.5 167t151.5 166q-24 31 -49 61t-47 62.5t-38.5 68t-24.5 76.5q1 64 22 115.5t56.5 87.5t81.5 55.5t98 19.5h405q9 0 15.5 -6.5t6.5 -15.5v-142q0 -8 -6.5 -13.5t-15.5 -5.5h-421z" />
    <glyph glyph-name="arabicindicdigitfive" unicode="&#x665;" horiz-adv-x="1149" 
d="M400 145q-78 2 -132.5 31t-89 77.5t-50 113t-15.5 137.5q0 83 18 172t50.5 175t76.5 163.5t95.5 137t108.5 96t115 40.5q58 -4 115 -40.5t108.5 -96t95.5 -137t76.5 -163.5t50.5 -175t18 -172q0 -72 -16.5 -136t-51.5 -112t-89.5 -77.5t-129.5 -33.5h-354zM862 534
q0 55 -13.5 118t-35.5 124.5t-51.5 117.5t-61 99t-63.5 68.5t-60 25.5t-60 -25.5t-63.5 -68.5t-61 -99t-51.5 -117.5t-35.5 -124.5t-13.5 -118q0 -44 9 -82t29 -65.5t52 -43t77 -15.5h236q45 0 77 15.5t52 43t29 65.5t9 82z" />
    <glyph glyph-name="arabicindicdigitsix" unicode="&#x666;" horiz-adv-x="1149" 
d="M197 1157q-8 0 -14.5 6.5t-6.5 15.5v141q0 6 5.5 10.5t13.5 7.5t17.5 4.5t17.5 1.5t27 -0.5t43.5 -1.5t51 -2t51 -1.5t43 -1t25.5 -0.5q89 -17 162.5 -58t126 -104.5t81.5 -149t29 -191.5q1 -170 2 -338.5t2 -337.5q-1 -6 -2.5 -10.5t-4.5 -4.5h-162q-7 0 -12 4t-5 10
v775q-14 56 -39 94.5t-56.5 63.5t-68.5 38t-75 19.5t-76 7.5t-72 1h-35q-16 0 -30 1h-39z" />
    <glyph glyph-name="arabicindicdigitseven" unicode="&#x667;" horiz-adv-x="1149" 
d="M503 484q16 -71 36 -112t43 -40t41.5 42t32.5 113l185 825q1 10 7 17.5t16 7.5h142q8 0 13.5 -4.5t5.5 -11.5q-51 -231 -101.5 -460t-101.5 -459q-28 -112 -84 -173t-159 -75q-91 10 -153 71.5t-89 175.5q-26 115 -51 230t-51 230q-26 114 -51 229.5t-51 230.5
q0 7 5.5 11.5t13.5 4.5h142q10 0 16 -7.5t7 -17.5z" />
    <glyph glyph-name="arabicindicdigiteight" unicode="&#x668;" horiz-adv-x="1149" 
d="M317 180q-1 -11 -7 -18.5t-16 -7.5h-142q-8 0 -13.5 4.5t-5.5 12.5q26 115 51 230t51 230t51 229.5t51 230.5q27 114 89 175t153 71q103 -13 159 -74t84 -173q50 -227 101 -459t102 -460q0 -8 -5.5 -12.5t-13.5 -4.5h-142q-10 0 -16 7.5t-7 18.5q-46 202 -93 412.5
t-92 412.5q-14 72 -32.5 116.5t-41.5 45.5q-11 0 -22 -11.5t-21 -32.5t-19 -50.5t-17 -64.5z" />
    <glyph glyph-name="arabicindicdigitnine" unicode="&#x669;" horiz-adv-x="1149" 
d="M904 167q0 -8 -6 -14t-15 -6h-141q-9 0 -15.5 6t-6.5 14v320h-281q-105 0 -160 56.5t-55 185.5v367q0 129 55 185t160 56h253q105 0 160 -56t55 -185v-28v-38t-0.5 -61t-0.5 -95v-141v-196zM407 670h313l3 485h-316v-485z" />
    <glyph glyph-name="arabicpercentsign" unicode="&#x66a;" horiz-adv-x="829" 
d="M679 1413q-54 -182 -105 -351t-101 -336t-101 -336t-106 -350q-43 -23 -83.5 -45t-82.5 -44q54 181 105 350.5t101.5 337t101.5 336.5t105 350zM133 1258q22 0 42 -8.5t35 -23t23.5 -34.5t8.5 -43t-8.5 -43t-23.5 -35t-35 -23.5t-42 -8.5t-42 8.5t-35 23.5t-24 35t-9 43
t9 43t24 34.5t35 23t42 8.5zM654 302q22 0 42 -8.5t35 -23.5t24 -35t9 -42q0 -23 -9 -42.5t-24 -34.5t-35 -23.5t-42 -8.5q-23 0 -42.5 8.5t-34.5 23.5t-23.5 34.5t-8.5 42.5q0 22 8.5 42t23.5 35t34.5 23.5t42.5 8.5z" />
    <glyph glyph-name="arabicfivepointedstar" unicode="&#x66d;" horiz-adv-x="815" 
d="M374 1445h68l17 -213l163 139l49 -49l-140 -162l214 -18v-68l-214 -17l140 -163l-49 -48l-163 139l-17 -214h-68l-17 214l-164 -139l-47 48l139 163l-214 17v68l214 18l-139 162l47 49l164 -139z" />
    <glyph glyph-name="bullet-def" unicode="&#x6f9;" horiz-adv-x="1033" 
d="M93 1109h934v-934h-934v934zM223 304h675v675h-675v-675z" />
    <glyph glyph-name="zeronojoin" unicode="&#x200c;" horiz-adv-x="45" 
d="M35 -80h-25v1631h25v-1631z" />
    <glyph glyph-name="zerojoin" unicode="&#x200d;" horiz-adv-x="45" 
d="M148 1427l-16 -16l-97 96v-1587h-25v1586l-96 -95l-16 16l109 109l-109 108l16 16l109 -108l109 108l16 -16l-109 -108z" />
    <glyph glyph-name="lefttoright" unicode="&#x200e;" horiz-adv-x="45" 
d="M291 1537q-32 -33 -62.5 -63.5l-62.5 -62.5l-17 17l97 97h-213v-1605h-25v1631h234l-93 93l17 17z" />
    <glyph glyph-name="righttoleft" unicode="&#x200f;" horiz-adv-x="45" 
d="M37 -80h-25v1605h-213l97 -97l-17 -17q-32 32 -62.5 63t-62.5 63l125 124l17 -17l-93 -93h234v-1631z" />
    <glyph glyph-name="endash" unicode="&#x2013;" horiz-adv-x="891" 
d="M0 574v95h891v-95h-891z" />
    <glyph glyph-name="quotedash" unicode="&#x2014;" horiz-adv-x="1782" 
d="M0 669h1782v-95h-1782v95z" />
    <glyph glyph-name="quoteleft" unicode="&#x2018;" horiz-adv-x="385" 
d="M245 1540q2 -60 3.5 -114t3 -106.5t3 -106t3.5 -113.5q0 -20 -21.5 -32t-48.5 -17q-11 56 -21 106.5t-19.5 100t-19.5 100.5t-21 107q1 31 24 53t55 22h59z" />
    <glyph glyph-name="quoteright" unicode="&#x2019;" horiz-adv-x="385" 
d="M199 1540q33 0 56 -22t23 -53q-11 -56 -21 -107t-19.5 -100.5t-19.5 -100t-21 -106.5q-27 5 -48 17t-22 32q2 60 3.5 113.5t3 106t3 106.5t3.5 114h59z" />
    <glyph glyph-name="quotesinglbase" unicode="&#x201a;" horiz-adv-x="447" 
d="M137 150v177h173v-206q0 -94 -44 -152t-129 -76v82q40 5 63.5 41.5t23.5 96.5v37h-87z" />
    <glyph glyph-name="quotedblleft" unicode="&#x201c;" horiz-adv-x="622" 
d="M496 1540q1 -60 3 -114t3.5 -106.5t3 -106t3.5 -113.5q-2 -20 -23 -32t-48 -17q-11 56 -20.5 106.5t-19.5 100t-19.5 100.5t-20.5 107q0 31 23 53t56 22h59zM245 1540q2 -60 3.5 -114t3 -106.5t3 -106t3.5 -113.5q0 -20 -21.5 -32t-48.5 -17q-11 56 -21 106.5t-19.5 100
t-19.5 100.5t-21 107q1 31 24 53t55 22h59z" />
    <glyph glyph-name="quotedblright" unicode="&#x201d;" horiz-adv-x="622" 
d="M203 1540q32 0 55 -22t24 -53q-11 -56 -21 -107t-19.5 -100.5t-19 -100t-20.5 -106.5q-28 5 -49 17t-23 32q2 60 3.5 113.5t3.5 106t3.5 106.5t3.5 114h59zM453 1540q33 0 56 -22t23 -53q-11 -56 -21 -107t-19.5 -100.5t-19 -100t-20.5 -106.5q-28 5 -49 17t-22 32
q2 60 3.5 113.5t3 106t3 106.5t3.5 114h59z" />
    <glyph glyph-name="bullet" unicode="&#x2022;" horiz-adv-x="613" 
d="M303 820q63 0 118.5 -24t96.5 -65t64.5 -96.5t23.5 -119.5q0 -63 -23.5 -118t-64.5 -96t-96.5 -64.5t-118.5 -23.5q-64 0 -119.5 23.5t-96.5 64.5t-64.5 96t-23.5 118q0 64 23.5 119.5t65 97t97 65t118.5 23.5z" />
    <glyph glyph-name="trademark" unicode="&#x2122;" horiz-adv-x="1484" 
d="M838 1418l131 -334l123 334h130v-468h-85v387l-144 -387h-49l-151 387v-387h-86v468h131zM604 1418v-69h-150v-399h-94v399h-149v69h393z" />
    <glyph glyph-name="fathalow" unicode="&#xe820;" 
d="M401 1225l-340 -193l17 91l340 193z" />
    <glyph glyph-name="dammalow" unicode="&#xe821;" 
d="M346 1204q-11 -23 -36.5 -51.5t-60.5 -53.5t-76 -42.5t-83 -17.5q-56 0 -77 4t-21 3q0 1 1 1q61 25 105.5 43t79 36t62.5 39.5t56 54.5q-52 12 -73.5 38t-21.5 58q0 27 12.5 54t33 48.5t46.5 35.5t52 14t35.5 -22t9.5 -54t-6 -63t-11 -44l44 -13l-19 -80zM321 1381
q-6 7 -14.5 8.5t-13.5 1.5q-17 0 -25.5 -11.5t-8.5 -25.5q0 -23 21 -34t50 -22q0 5 1 11q0 5 0.5 12t0.5 15q0 15 -2 28.5t-9 18.5v-2z" />
    <glyph glyph-name="sukunlow" unicode="&#xe822;" 
d="M344 1249q1 -4 1 -8v-8q0 -31 -14.5 -65t-37.5 -78v1q0 1 1 2l-3 -5q-13 -8 -30 -15.5t-36.5 -13.5t-40.5 -9.5t-40 -3.5q-40 0 -65 19.5t-25 69.5q0 37 12 78t32.5 75t48.5 56.5t60 22.5q25 0 48.5 -12t42.5 -29.5t31 -38t15 -38.5zM280 1181q-3 13 -12.5 28.5t-23 28.5
t-29.5 21.5t-32 8.5q-32 0 -48 -21t-16 -43q0 -28 20.5 -40t48.5 -12q23 0 47.5 7.5t43.5 20.5z" />
    <glyph glyph-name="fathatanlow" unicode="&#xe823;" 
d="M391 1222l-340 -193l17 91l340 193zM405 1389l-340 -193l17 91l340 193z" />
    <glyph glyph-name="dammatanlow" unicode="&#xe824;" 
d="M408 1207q-8 -18 -28 -45.5t-47 -53t-58 -43.5t-62 -18t-46 16t-15 36q0 23 8 47t8 41q0 12 -6.5 19.5t-26.5 7.5q-14 0 -36.5 -4.5t-54.5 -15.5q23 34 55.5 51t61.5 17t49 -16.5t20 -51.5q0 -34 -23 -80q46 20 85.5 44t71.5 62q-45 11 -64 35.5t-19 53.5q0 26 12 51
t30.5 45t42 32.5t47.5 12.5q20 -2 27 -23t7 -47q0 -29 -5 -58t-9 -40l38 -12l-17 -76zM387 1368q-6 6 -12.5 8t-12.5 2q-15 0 -22 -11t-7 -24q0 -20 19 -30t43 -21q0 5 1 10q0 5 0.5 10.5t0.5 12.5q0 14 -2 27.5t-8 17.5v-2z" />
    <glyph glyph-name="shaddalow" unicode="&#xe825;" 
d="M396 1364q17 -26 25 -57.5t8 -61.5q0 -28 -6.5 -54.5t-19 -47t-31 -33t-43.5 -12.5t-37.5 9t-27.5 23q-6 -11 -16 -25t-24.5 -26.5t-34.5 -21t-45 -8.5t-42 9.5t-27 25t-14 35.5t-4 41q0 37 9 70t18 47q0 -1 1 -1t5.5 3.5t9.5 7t9.5 7t6.5 3.5q1 0 1 -1
q-8 -17 -12.5 -39.5t-4.5 -43.5q0 -29 11.5 -48.5t40.5 -19.5t44.5 16t23.5 37.5t12.5 44.5t12.5 38q0 -2 2 -2q4 0 12.5 9.5t12.5 9.5q2 0 2 -1q-4 -15 -4 -32q0 -34 17 -57t44 -23q6 0 14 1.5t15.5 5t13 10.5t5.5 19q0 19 -9.5 40.5t-20.5 36.5q13 18 24.5 34t22.5 32z
" />
    <glyph glyph-name="kasralow" unicode="&#xe826;" 
d="M395 -148l-340 -193l17 91l340 193z" />
    <glyph glyph-name="kasratanlow" unicode="&#xe827;" 
d="M405 -148l-340 -193l17 91l340 193zM378 -316l-340 -193l17 91l340 193z" />
    <glyph glyph-name="shaddawithfathaisolatedlow" unicode="&#xe828;" 
d="M397 1372q6 -11 6 -16q0 -4 -1 -6.5t-1 -7.5q0 -2 0.5 -5t2.5 -8q15 -41 15 -83q0 -24 -5.5 -46.5t-17 -40t-29 -27.5t-41.5 -10q-17 0 -29 6t-26 16q-5 -14 -14 -31t-24 -33t-38 -26.5t-54 -10.5q-22 0 -36.5 8t-23.5 21.5t-12.5 30.5t-3.5 34q0 22 4.5 41.5t9.5 30.5
q0 -1 1 -1t4.5 4t8 9t8.5 9t6 4q1 0 1 -1q-3 -14 -5.5 -27.5t-2.5 -24.5q0 -19 8 -31t29 -12q25 0 40.5 8t24.5 21t13 29.5t5.5 33.5t2.5 32.5t5 27.5l1 -1q2 0 5 3.5t6 8t6.5 8t5.5 3.5q1 0 2 -1q-1 -5 -1 -13q0 -38 19.5 -64t47.5 -26q5 0 13.5 2t16.5 6.5t14 11.5t6 17
q0 20 -14 42t-29 37q5 10 14.5 15.5t20 10t20 9.5t15.5 13zM400 1452l-340 -193l17 91l340 193z" />
    <glyph glyph-name="shaddawithdammaisolatedlow" unicode="&#xe829;" 
d="M381 1402q26 -31 39.5 -69.5t13.5 -78.5q0 -25 -5.5 -48t-17.5 -40t-30 -27.5t-42 -10.5q-17 0 -28.5 6.5t-25.5 16.5q-5 -12 -13.5 -29t-23 -32.5t-36 -26.5t-50.5 -11q-26 0 -43.5 12.5t-28 33t-14.5 45t-4 48.5q0 26 4 47t9 32q0 -1 1 -1t5 4l8.5 8.5l8.5 8.5t6 4
q1 0 1 -1q-3 -12 -5 -26.5t-2 -29.5q0 -17 2.5 -33t9 -28.5t16.5 -20t25 -7.5q33 0 48 17.5t21 42t7.5 49.5t6.5 40l1 -1q2 0 5 3.5t6.5 8t6.5 8t5 3.5t2 -1q-1 -5 -1 -14q0 -38 19.5 -64t47.5 -26q5 0 13.5 2t16.5 6t14 10.5t6 16.5q0 20 -14 43t-28 38q11 20 19.5 37.5
t17.5 34.5zM356 1471q-11 -18 -36 -40.5t-59 -42.5t-74.5 -33.5t-81.5 -13.5q-53 0 -73.5 3.5t-21.5 1.5q0 1 1 1q60 20 103 34t77 28t61.5 31t54.5 43q-51 9 -72 30t-21 46q0 22 13 43.5t34 38t47 27t52 10.5q23 -2 31 -19.5t8 -40.5q0 -25 -6 -49.5t-11 -34.5l43 -10
l-19 -63zM331 1610q-6 5 -13 6.5t-12 1.5q-17 0 -26 -9t-9 -20q0 -18 20.5 -27t48.5 -17q0 4 1 9q0 4 0.5 9.5t0.5 11.5q0 11 -2 22t-9 14v-1z" />
    <glyph glyph-name="shaddawithfathatanisolatedlow" unicode="&#xe82a;" 
d="M425 1277q0 -76 -29.5 -121t-75.5 -45q-21 0 -64 21q-38 -87 -108 -87q-78 0 -78 109q0 31 22 101l23 4q0 -111 39 -111q14 0 29 13t28 35.5t22 52t11 61.5l19 6q24 -98 61 -98q12 0 23.5 12t20.5 32t14.5 46.5t5.5 56.5l22 11q15 -51 15 -99zM412 1701q0 -24 -1 -39
t-6 -26t-15 -19t-27 -18l-289 -166q0 23 2.5 38t9.5 27t20 22t34 22zM412 1550q0 -23 -1 -38t-6 -25.5t-14.5 -19t-27.5 -18.5l-289 -166q0 22 1.5 36.5t8.5 25.5t20 21t36 24z" />
    <glyph glyph-name="shaddawithdammatanisolatedlow" unicode="&#xe82b;" 
d="M422 1486q-9 -15 -30 -38t-49 -44.5t-60.5 -37t-64.5 -15.5q-33 0 -49 13.5t-16 30.5q0 19 9 39.5t9 35.5q0 10 -7 16t-27 6q-15 0 -38.5 -4t-58.5 -13q25 29 58.5 43.5t64.5 14.5q30 0 51 -14.5t21 -43.5q0 -14 -5.5 -31t-18.5 -37q48 17 89.5 38t75.5 53
q-48 10 -67.5 30.5t-19.5 45.5q0 22 12 43t31.5 37.5t44.5 27t50 10.5q21 -2 28.5 -19t7.5 -40q0 -26 -5.5 -50t-9.5 -33l40 -10l-18 -65zM393 1404q26 -31 39.5 -69.5t13.5 -78.5q0 -25 -5.5 -48t-17.5 -40t-30 -27.5t-42 -10.5q-17 0 -28.5 6.5t-25.5 16.5
q-5 -12 -13.5 -29t-23 -32.5t-36 -26.5t-50.5 -11q-26 0 -43.5 12.5t-28 33t-14.5 45t-4 48.5q0 26 4 47t9 32q0 -1 1 -1t5 4l8.5 8.5l8.5 8.5t6 4q1 0 1 -1q-3 -12 -5 -26.5t-2 -29.5q0 -17 2.5 -33t9 -28.5t16.5 -20t25 -7.5q33 0 48 17.5t21 42t7.5 49.5t6.5 40l1 -1
q2 0 5 3.5t6.5 8t6.5 8t5 3.5t2 -1q-1 -5 -1 -14q0 -38 19.5 -64t47.5 -26q5 0 13.5 2t16.5 6t14 10.5t6 16.5q0 20 -14 43t-28 38q11 20 19.5 37.5t17.5 34.5zM400 1623q-6 6 -13.5 7t-12.5 1q-17 0 -24 -9t-7 -20q0 -17 20 -25l45 -18q0 5 1 9q0 4 0.5 9t0.5 11
q0 12 -2 22.5t-8 14.5v-2z" />
    <glyph glyph-name="shaddawithkasraisolatedlow" unicode="&#xe82c;" 
d="M375 1606q24 -30 36.5 -67.5t12.5 -75.5q0 -26 -6 -49.5t-18 -41.5t-30 -28.5t-42 -10.5q-18 0 -29.5 7t-26.5 18q-5 -12 -13.5 -28.5t-23.5 -31.5t-36 -25.5t-49 -10.5q-26 0 -43 12t-27.5 31.5t-14.5 43t-4 47.5q0 28 4.5 51.5t10.5 34.5q0 -1 1 -1t5 4l8.5 8.5
l8.5 8.5t6 4q1 0 1 -1q-8 -29 -8 -62t11.5 -59t40.5 -26q32 0 47.5 17t22 41t8 49t7.5 40l1 -1q2 0 5 3.5t7 7.5t7 7.5t5 3.5t2 -1q-1 -5 -1 -9v-9q0 -37 18.5 -62t46.5 -25q5 0 13 2t16 6t14 11t6 17q0 19 -12.5 41t-26.5 38q11 20 20 37t19 34zM412 1224l-340 -193l17 91
l340 193z" />
    <glyph glyph-name="shaddawithkasratanisolatedlow" unicode="&#xe82d;" 
d="M374 1619q24 -30 36.5 -67.5t12.5 -75.5q0 -26 -6 -49.5t-18 -41.5t-30 -28.5t-42 -10.5q-18 0 -29.5 7t-26.5 18q-5 -12 -13.5 -28.5t-23.5 -31.5t-36 -25.5t-49 -10.5q-26 0 -43 12t-27.5 31.5t-14.5 43t-4 47.5q0 28 4.5 51.5t10.5 34.5q0 -1 1 -1t5 4l8.5 8.5
l8.5 8.5t6 4q1 0 1 -1q-8 -29 -8 -62t11.5 -59t40.5 -26q32 0 47.5 17t22 41t8 49t7.5 40l1 -1q2 0 5 3.5t7 7.5t7 7.5t5 3.5t2 -1q-1 -5 -1 -9v-9q0 -37 18.5 -62t46.5 -25q5 0 13 2t16 6t14 11t6 17q0 19 -12.5 41t-26.5 38q11 20 20 37t19 34zM385 1148l-350 -141l33 75
l350 141zM395 1253l-350 -141l33 75l350 141z" />
    <glyph glyph-name="fathaonhamza" unicode="&#xe832;" 
d="M394 1426q-97 -51 -192 -101.5t-192 -102.5q5 23 8 38.5t7 38.5q99 52 191.5 101.5t191.5 102.5z" />
    <glyph glyph-name="fathatanonhamza" unicode="&#xe833;" 
d="M389 1171q-97 -51 -192 -101.5t-192 -102.5q5 23 8 38.5t7 38.5q99 52 191.5 101.5t191.5 102.5z" />
    <glyph glyph-name="sukunonhamza" unicode="&#xe834;" 
d="M268 1588q1 -4 1 -8v-8q0 -31 -16 -68t-40 -83q-14 -8 -32.5 -16t-39.5 -15t-43 -11t-42 -4q-41 0 -65.5 19.5t-24.5 69.5q0 39 12.5 82.5t34 80.5t50.5 61t63 24q26 0 50 -12t43.5 -30.5t32.5 -40.5t16 -41zM218 1512q-4 16 -15.5 35.5t-28 36t-36 28t-39.5 11.5
t-34.5 -7.5t-25 -19.5t-15.5 -26t-5 -27q0 -37 26 -53t61 -16z" />
    <glyph glyph-name="dammaonhamza" unicode="&#xe835;" 
d="M365 1288q17 -26 25 -57.5t8 -61.5q0 -28 -6.5 -54.5t-19 -47t-31 -33t-43.5 -12.5t-37.5 9t-27.5 23q-6 -11 -16 -25t-24.5 -26.5t-34.5 -21t-45 -8.5t-42 9.5t-27 25t-14 35.5t-4 41q0 37 9 70t18 47q0 -1 1 -1t5.5 3.5t9.5 7t9.5 7t6.5 3.5q1 0 1 -1
q-8 -17 -12.5 -39.5t-4.5 -43.5q0 -29 11.5 -48.5t40.5 -19.5t44.5 16t23.5 37.5t12.5 44.5t12.5 38q0 -2 2 -2q4 0 12.5 9.5t12.5 9.5q2 0 2 -1q-4 -15 -4 -32q0 -34 17 -57t44 -23q6 0 14 1.5t15.5 5t13 10.5t5.5 19q0 19 -9.5 40.5t-20.5 36.5q13 18 24.5 34t22.5 32z
" />
    <glyph glyph-name="dammatanonhamza" unicode="&#xe836;" 
d="M297 1715q17 -26 25 -57.5t8 -61.5q0 -28 -6.5 -54.5t-19 -47t-31 -33t-43.5 -12.5t-37.5 9t-27.5 23q-6 -11 -16 -25t-24.5 -26.5t-34.5 -21t-45 -8.5t-42 9.5t-27 25t-14 35.5t-4 41q0 37 9 70t18 47q0 -1 1 -1t5.5 3.5t9.5 7t9.5 7t6.5 3.5q1 0 1 -1
q-8 -17 -12.5 -39.5t-4.5 -43.5q0 -29 11.5 -48.5t40.5 -19.5t44.5 16t23.5 37.5t12.5 44.5t12.5 38q0 -2 2 -2q4 0 12.5 9.5t12.5 9.5q2 0 2 -1q-4 -15 -4 -32q0 -34 17 -57t44 -23q6 0 14 1.5t15.5 5t13 10.5t5.5 19q0 19 -9.5 40.5t-20.5 36.5q13 18 24.5 34t22.5 32z
" />
    <glyph glyph-name="ornateleftparenthesis" unicode="&#xfd3e;" horiz-adv-x="652" 
d="M478 -24h-304v1696h304v-130h-174v-1436h174v-130z" />
    <glyph glyph-name="ornaterightparenthesis" unicode="&#xfd3f;" horiz-adv-x="652" 
d="M473 -24h-304v130h174v1436h-174v130h304v-1696z" />
    <glyph glyph-name="zerowidthnobreakspace" unicode="&#xfeff;" horiz-adv-x="744" 
 />
    <glyph glyph-name="agrave" unicode="&#xe0;" horiz-adv-x="990" 
d="M119 806q0 79 26.5 139t76 100.5t119.5 60.5t158 20q90 0 158 -15.5t113.5 -51t68.5 -92.5t23 -140v-453q0 -98 58 -98l47 4v-125q-18 -6 -32 -9.5t-25.5 -6t-21.5 -3t-22 -0.5q-133 0 -152 144q-138 -153 -326 -153q-69 0 -126 19.5t-97.5 56.5t-62.5 89t-22 118
q0 179 158 253q108 50 371 80l95 13v46q0 52 -13.5 86t-39.5 54.5t-64 29t-88 8.5q-101 0 -155.5 -43t-54.5 -131h-170zM702 628q-33 -5 -60.5 -9t-55.5 -8.5t-59.5 -10.5t-72.5 -15q-54 -13 -92 -27.5t-62 -33.5t-34.5 -44.5t-10.5 -60.5q0 -69 44.5 -107t125.5 -38
q57 0 107.5 18t88 48t59.5 70t22 85v133zM583 1224h-86q-60 73 -119 145t-119 144h154z" />
    <glyph glyph-name="aacute" unicode="&#xe1;" horiz-adv-x="990" 
d="M119 806q0 79 26.5 139t76 100.5t119.5 60.5t158 20q90 0 158 -15.5t113.5 -51t68.5 -92.5t23 -140v-453q0 -98 58 -98l47 4v-125q-18 -6 -32 -9.5t-25.5 -6t-21.5 -3t-22 -0.5q-133 0 -152 144q-138 -153 -326 -153q-69 0 -126 19.5t-97.5 56.5t-62.5 89t-22 118
q0 179 158 253q108 50 371 80l95 13v46q0 52 -13.5 86t-39.5 54.5t-64 29t-88 8.5q-101 0 -155.5 -43t-54.5 -131h-170zM702 628q-33 -5 -60.5 -9t-55.5 -8.5t-59.5 -10.5t-72.5 -15q-54 -13 -92 -27.5t-62 -33.5t-34.5 -44.5t-10.5 -60.5q0 -69 44.5 -107t125.5 -38
q57 0 107.5 18t88 48t59.5 70t22 85v133zM556 1513h154q-60 -72 -119 -144t-119 -145h-86z" />
    <glyph glyph-name="egrave" unicode="&#xe8;" horiz-adv-x="990" 
d="M927 574h-689q0 -147 69.5 -223.5t197.5 -76.5q194 0 238 191h171q-18 -80 -55 -142.5t-90 -106t-121 -66.5t-149 -23q-101 0 -181 34.5t-136 99.5t-86 157.5t-30 209.5q0 116 33 208t92 156t141 98t180 34q92 0 168.5 -29t131.5 -87.5t85.5 -148t30.5 -210.5zM763 722
q0 60 -19 107.5t-52.5 80.5t-80.5 50.5t-103 17.5q-228 0 -264 -256h519zM578 1224h-86q-60 73 -119 145t-119 144h154z" />
    <glyph glyph-name="eacute" unicode="&#xe9;" horiz-adv-x="990" 
d="M927 574h-689q0 -147 69.5 -223.5t197.5 -76.5q194 0 238 191h171q-18 -80 -55 -142.5t-90 -106t-121 -66.5t-149 -23q-101 0 -181 34.5t-136 99.5t-86 157.5t-30 209.5q0 116 33 208t92 156t141 98t180 34q92 0 168.5 -29t131.5 -87.5t85.5 -148t30.5 -210.5zM763 722
q0 60 -19 107.5t-52.5 80.5t-80.5 50.5t-103 17.5q-228 0 -264 -256h519zM556 1513h154q-60 -72 -119 -144t-119 -145h-86z" />
    <glyph glyph-name="ecircumflex" unicode="&#xea;" horiz-adv-x="990" 
d="M927 574h-689q0 -147 69.5 -223.5t197.5 -76.5q194 0 238 191h171q-18 -80 -55 -142.5t-90 -106t-121 -66.5t-149 -23q-101 0 -181 34.5t-136 99.5t-86 157.5t-30 209.5q0 116 33 208t92 156t141 98t180 34q92 0 168.5 -29t131.5 -87.5t85.5 -148t30.5 -210.5zM763 722
q0 60 -19 107.5t-52.5 80.5t-80.5 50.5t-103 17.5q-228 0 -264 -256h519zM244 1224q43 75 82.5 144.5t82.5 144.5h161q42 -74 82.5 -144.5t82.5 -144.5h-89l-157 206q-38 -50 -79 -103.5t-79 -102.5h-87z" />
    <glyph glyph-name="ocircumflex" unicode="&#xf4;" horiz-adv-x="990" 
d="M66 628q0 118 29.5 210.5t85 156.5t135.5 97.5t181 33.5q100 0 180 -33.5t136 -97.5t85.5 -156.5t29.5 -210.5q0 -117 -29 -209.5t-84.5 -157.5t-135.5 -99.5t-182 -34.5q-101 0 -180.5 34.5t-135.5 99t-85.5 157.5t-29.5 210zM240 628q0 -82 17 -147.5t50 -111.5
t80.5 -70.5t109.5 -24.5q124 0 190 93t66 266q0 81 -17 145.5t-50 108.5t-80.5 67.5t-108.5 23.5q-124 0 -190.5 -91t-66.5 -259zM244 1224q43 75 82.5 144.5t82.5 144.5h161q42 -74 82.5 -144.5t82.5 -144.5h-89l-157 206q-38 -50 -79 -103.5t-79 -102.5h-87z" />
    <glyph glyph-name="nonbreakingspace" unicode="&#xb7;" horiz-adv-x="1082" 
d="M549 98l-198 219l198 199l201 -199zM1025 581l-214 -205l-198 205l198 198zM549 1056l196 -215l-196 -198l-198 198zM74 581l212 198l198 -198l-198 -198z" />
    <glyph glyph-name="dagger" unicode="&#xb0;" horiz-adv-x="1024" 
d="M509 1094l456 -457l-456 -456l-457 456zM128 637l381 -380l380 380l-380 381zM509 855l217 -218l-217 -217l-217 217z" />
    <glyph glyph-name="periodcentered" unicode="&#xba;" horiz-adv-x="983" 
d="M253 1047h454l227 -393l-227 -394h-454l-227 394l113 196zM298 968l-182 -314l182 -315h364l181 315l-181 314h-364zM361 859h238l118 -205l-118 -206h-238l-118 206l59 103z" />
    <glyph glyph-name="daggerdbl" unicode="&#xb1;" horiz-adv-x="901" 
d="M450 1043l402 -291l-153 -473h-497l-154 473l201 145zM592 430l141 103l-108 333h-350l-108 -333l283 -205zM528 727l79 -56l-60 -184h-193l-60 184l156 113z" />
    <glyph glyph-name="questiondown" unicode="&#xbf;" horiz-adv-x="774" 
d="M77 979h675v-675h-675v675z" />
    <glyph glyph-name="asciicircum" unicode="^" horiz-adv-x="1782" 
d="M971 1418l444 -484h-157l-367 365l-369 -365h-157l444 484h162z" />
    </font>
</defs>
</svg>
